<svg width="25" height="25" viewBox="0 0 25 25" fill="none" xmlns="http://www.w3.org/2000/svg">
<path d="M12.5 25C19.4036 25 25 19.4036 25 12.5C25 5.59644 19.4036 0 12.5 0C5.59644 0 0 5.59644 0 12.5C0 19.4036 5.59644 25 12.5 25Z" fill="white"/>
<path d="M11.9046 8.95085C12.3057 8.89035 12.6939 8.88497 13.0967 8.95209C13.1004 8.89574 13.1083 8.84478 13.1062 8.79423C13.0946 8.47644 13.3598 8.22991 13.7012 8.28418C13.9088 8.31733 14.0807 8.48638 14.0981 8.71716C14.1085 8.85472 14.1081 8.99435 14.1014 9.13232C14.0969 9.22845 14.125 9.28646 14.2129 9.33535C14.5373 9.51558 14.8294 9.74056 15.0871 10.0078C15.4795 10.4143 15.7592 10.8854 15.9208 11.4302C16.0194 11.7629 16.0778 12.101 16.0964 12.4441C16.1072 12.6363 16.077 12.8331 16.0451 13.0246C16.0098 13.235 15.9597 13.4439 15.9021 13.649C15.8089 13.9796 15.6386 14.275 15.4463 14.5568C15.2549 14.8373 15.0275 15.0875 14.7598 15.2955C14.5816 15.4339 14.3869 15.5528 14.1938 15.6705C14.1242 15.7128 14.0985 15.7567 14.1018 15.8354C14.1072 15.9738 14.0989 16.1122 14.1023 16.2506C14.1072 16.432 13.9572 16.6545 13.7182 16.7113C13.5081 16.761 13.2769 16.6591 13.1746 16.4739C13.1311 16.3947 13.1004 16.3127 13.1062 16.2191C13.1095 16.1677 13.1025 16.1159 13.0992 16.0538C12.6997 16.1026 12.3119 16.1035 11.9084 16.0538C11.9038 16.1155 11.8934 16.1706 11.8972 16.2245C11.9104 16.4304 11.7584 16.6222 11.5848 16.6864C11.3938 16.7573 11.1605 16.7063 11.0354 16.5646C10.9583 16.4768 10.9082 16.3761 10.9053 16.2576C10.9024 16.1234 10.8978 15.9883 10.9061 15.8545C10.9119 15.7604 10.8808 15.7045 10.7971 15.6601C10.4831 15.4948 10.205 15.2802 9.95561 15.0283C9.68257 14.7523 9.46049 14.4408 9.28978 14.0919C9.16672 13.84 9.0706 13.5785 9.01052 13.3055C8.97323 13.136 8.95251 12.9624 8.9289 12.7901C8.9144 12.6856 8.89575 12.5792 8.90072 12.4747C8.9173 12.1342 8.95997 11.7973 9.06521 11.4704C9.26409 10.8543 9.5765 10.3111 10.0617 9.87108C10.2883 9.66557 10.5278 9.48161 10.7971 9.33825C10.8825 9.29267 10.9107 9.23591 10.9061 9.14393C10.8999 9.01797 10.9036 8.8916 10.9053 8.76523C10.9078 8.54397 11.0271 8.38445 11.2504 8.30076C11.4199 8.23737 11.6482 8.2933 11.7737 8.43832C11.8491 8.52533 11.8997 8.62642 11.8963 8.74782C11.8947 8.81122 11.9013 8.87502 11.905 8.95043L11.9046 8.95085ZM10.904 10.4843C10.2237 10.979 9.67967 12.0119 10.0198 13.2251C10.3347 14.3484 11.4149 15.2044 12.7536 15.0842C13.9415 14.9773 14.9512 14.0455 15.0788 12.7366C15.1402 12.1064 14.9819 11.5205 14.6144 10.9993C14.4785 10.8062 14.3206 10.631 14.1023 10.4723C14.1023 10.5473 14.1023 10.5912 14.1023 10.6347C14.101 10.8626 14.1072 11.0909 14.0969 11.3188C14.0849 11.579 13.806 11.7865 13.5732 11.7579C13.3072 11.7256 13.1045 11.5355 13.1062 11.2425C13.1079 10.868 13.1062 10.4934 13.1062 10.1188C13.1062 10.0749 13.1062 10.0314 13.1062 9.97549C12.9877 9.9527 12.8812 9.91707 12.7739 9.915C12.5344 9.91003 12.2941 9.89014 12.0555 9.93903C11.9113 9.96845 11.8959 9.97798 11.8959 10.1276C11.8955 10.5183 11.8976 10.9094 11.8934 11.3001C11.8905 11.5694 11.6142 11.7824 11.3751 11.7584C11.1095 11.7314 10.9049 11.545 10.904 11.2483C10.9036 11.0366 10.904 10.8249 10.9036 10.6131C10.9036 10.5742 10.9036 10.5353 10.9036 10.4847L10.904 10.4843ZM11.3909 8.58499C11.3896 8.44246 11.2806 8.38031 11.1787 8.44039C11.0714 8.50378 11.0337 8.61109 11.008 8.72255C10.9948 8.78056 11.0606 8.85472 11.1253 8.87212C11.1932 8.89035 11.2566 8.85721 11.2894 8.78843C11.3084 8.74865 11.3324 8.71136 11.3519 8.67159C11.3693 8.63678 11.3838 8.60032 11.3904 8.58458L11.3909 8.58499ZM13.5943 8.57919C13.5918 8.44205 13.4803 8.3799 13.3801 8.44122C13.2748 8.50585 13.2342 8.61275 13.2102 8.72421C13.1978 8.7818 13.2653 8.85596 13.3304 8.87254C13.3933 8.8887 13.4605 8.85596 13.4903 8.79754C13.5139 8.75114 13.5429 8.70763 13.5653 8.66081C13.5806 8.62932 13.5889 8.59411 13.5943 8.57836V8.57919Z" fill="black"/>
<path d="M19.5711 10.0638C19.7571 9.95064 19.9216 9.82924 20.1039 9.7472C20.2518 9.6805 20.4201 9.65439 20.5821 9.62332C20.7461 9.59141 20.9119 9.59224 21.0801 9.61545C21.3076 9.64694 21.5243 9.7037 21.7244 9.81515C22.1408 10.0468 22.4379 10.3832 22.5953 10.8352C22.6541 11.0039 22.6885 11.1775 22.6885 11.359C22.6865 12.5199 22.6852 13.6809 22.6906 14.8414C22.6918 15.1331 22.4606 15.3842 22.1561 15.397C21.9137 15.407 21.6854 15.2839 21.5984 14.9947C21.5777 14.9259 21.5698 14.851 21.5698 14.7789C21.5682 13.6668 21.562 12.5547 21.5727 11.4431C21.5756 11.151 21.3734 10.8555 21.1099 10.7665C20.6198 10.6007 20.1619 10.95 20.1603 11.3904C20.1565 12.5145 20.1582 13.639 20.1582 14.7631C20.1582 14.8994 20.1354 15.0295 20.0592 15.146C19.9386 15.3299 19.7571 15.4124 19.5491 15.3958C19.3067 15.3767 19.1414 15.2292 19.0532 15.0018C19.042 14.9728 19.0441 14.9375 19.0436 14.9052C19.042 14.7138 19.0403 14.5224 19.0399 14.331C19.0399 13.39 19.0395 12.4491 19.0399 11.5081C19.0399 11.3113 18.9964 11.1302 18.8663 10.9765C18.7143 10.7967 18.5199 10.7209 18.2846 10.7267C17.8578 10.7375 17.5993 11.122 17.6022 11.4683C17.6109 12.5804 17.6022 13.6925 17.6072 14.8041C17.6084 15.1037 17.4327 15.3415 17.0971 15.3991C16.8875 15.4352 16.592 15.2512 16.5291 15.042C16.5071 14.9695 16.4951 14.8911 16.4947 14.8153C16.4926 13.6747 16.4876 12.5344 16.4955 11.3938C16.5001 10.7544 16.798 10.2643 17.3175 9.90216C17.632 9.68298 17.9875 9.59141 18.3637 9.59929C18.7379 9.60674 19.0954 9.69085 19.402 9.92412C19.463 9.97053 19.5205 10.0215 19.5707 10.0629L19.5711 10.0638ZM18.0588 10.0136C18.0588 9.93075 17.9738 9.83421 17.8868 9.84291C17.7961 9.85162 17.7045 9.87772 17.6183 9.90962C17.3987 9.99125 17.2309 10.14 17.0975 10.3302C17.0623 10.3807 17.0515 10.4313 17.0801 10.4897C17.1435 10.619 17.279 10.6488 17.376 10.5394C17.5276 10.3683 17.6954 10.2332 17.9262 10.1852C18.0049 10.1686 18.0584 10.0836 18.0588 10.014V10.0136ZM20.5825 9.97674C20.5808 9.87233 20.5216 9.80811 20.4147 9.81184C20.1603 9.82137 19.9589 9.94401 19.7936 10.128C19.7364 10.1918 19.7534 10.2979 19.8168 10.3588C19.891 10.4296 19.9693 10.4391 20.0443 10.3687C20.157 10.2626 20.2846 10.1947 20.435 10.1599C20.5348 10.1367 20.5833 10.065 20.5821 9.97674H20.5825Z" fill="black"/>
<path d="M5.41859 14.9215C5.31583 14.9965 5.21971 15.0698 5.12027 15.1382C4.91145 15.282 4.67279 15.3342 4.42626 15.3764C4.14534 15.4249 3.87561 15.3905 3.60713 15.3168C3.25121 15.219 2.96615 15.0114 2.72833 14.7346C2.50583 14.4757 2.38153 14.1703 2.32187 13.838C2.30612 13.7506 2.31192 13.6594 2.31192 13.5695C2.31151 12.4413 2.31565 11.3127 2.30861 10.1844C2.30654 9.87533 2.52738 9.63502 2.81575 9.60187C3.04281 9.57577 3.31751 9.70836 3.4012 9.99839C3.42233 10.0713 3.43062 10.15 3.43104 10.2263C3.43311 11.3383 3.43394 12.4504 3.43104 13.5625C3.43021 13.8637 3.57232 14.0742 3.83169 14.2039C4.20957 14.3924 4.68273 14.2001 4.80579 13.7899C4.83314 13.6988 4.84308 13.5994 4.84308 13.5036C4.84557 12.4119 4.84515 11.3201 4.84474 10.2283C4.84474 10.0742 4.87623 9.9321 4.97401 9.80655C5.07718 9.67355 5.33199 9.53641 5.58971 9.6288C5.80019 9.70463 5.97297 9.92339 5.95722 10.1119C5.95225 10.1724 5.95888 10.2341 5.95888 10.2951C5.95888 11.3582 5.95846 12.4214 5.95929 13.4846C5.95929 13.6839 6.00197 13.8691 6.13911 14.0257C6.29449 14.203 6.4884 14.2859 6.72166 14.2722C7.08503 14.2507 7.30712 14.0108 7.38377 13.7058C7.39661 13.6557 7.39537 13.601 7.39537 13.5484C7.3962 12.428 7.40034 11.3077 7.39288 10.1877C7.39123 9.91262 7.5727 9.64828 7.88511 9.60436C8.1536 9.56624 8.47843 9.75559 8.50661 10.1152C8.50827 10.1355 8.50702 10.1558 8.50702 10.1761C8.50702 11.3209 8.51034 12.4657 8.50495 13.6101C8.50288 14.0332 8.36159 14.4085 8.08192 14.7342C7.87061 14.9807 7.62491 15.1751 7.31913 15.2807C7.04194 15.3768 6.75813 15.4311 6.45898 15.3831C6.24601 15.3487 6.0318 15.325 5.84162 15.2161C5.72644 15.1502 5.61747 15.0731 5.50726 14.9986C5.47452 14.9766 5.44676 14.9463 5.41776 14.9211L5.41859 14.9215ZM4.94293 10.1836C4.94418 10.2644 5.00384 10.3357 5.07884 10.3456C5.1501 10.3551 5.20479 10.3129 5.23172 10.2259C5.24001 10.1989 5.24913 10.1716 5.25368 10.1438C5.26529 10.0721 5.30133 10.0295 5.3755 10.0108C5.47079 9.9872 5.5085 9.91759 5.48488 9.82934C5.46499 9.75476 5.3726 9.70421 5.29139 9.72369C5.09624 9.77051 4.93962 9.97684 4.94293 10.1836ZM8.03966 9.87202C8.03966 9.76512 7.94395 9.69344 7.83871 9.72617C7.60046 9.80034 7.52506 9.95778 7.49895 10.1786C7.48901 10.2636 7.54702 10.3299 7.62657 10.3448C7.697 10.358 7.75957 10.3158 7.78857 10.2325C7.79769 10.206 7.80763 10.1778 7.80887 10.1504C7.81302 10.068 7.85611 10.0237 7.93525 10.0116C8.01687 9.99922 8.03924 9.94411 8.04007 9.87202H8.03966ZM2.40971 10.1488C2.40763 10.2694 2.44658 10.3245 2.53898 10.3303C2.64463 10.3373 2.68814 10.2942 2.70222 10.1679C2.71217 10.0796 2.7449 10.0212 2.84641 10.0042C2.94129 9.98844 2.97734 9.87658 2.92762 9.79371C2.8808 9.71623 2.80001 9.69303 2.70512 9.72742C2.50417 9.79992 2.40971 10.0029 2.40971 10.1484V10.1488Z" fill="black"/>
<path d="M10.9041 10.4842C10.9041 10.5347 10.9041 10.5737 10.9041 10.6126C10.9041 10.8243 10.9041 11.0361 10.9045 11.2478C10.9053 11.5444 11.1096 11.7309 11.3756 11.7578C11.6143 11.7823 11.891 11.5693 11.8939 11.2996C11.8981 10.9089 11.8956 10.5177 11.8964 10.127C11.8964 9.97744 11.9117 9.96791 12.0559 9.93849C12.2946 9.8896 12.5349 9.90949 12.7744 9.91446C12.8817 9.91654 12.9882 9.95217 13.1067 9.97496C13.1067 10.0305 13.1067 10.0744 13.1067 10.1183C13.1067 10.4929 13.1083 10.8674 13.1067 11.242C13.105 11.5353 13.3076 11.7251 13.5736 11.7574C13.8065 11.786 14.0857 11.578 14.0973 11.3182C14.1077 11.0908 14.1015 10.8625 14.1027 10.6342C14.1027 10.5907 14.1027 10.5471 14.1027 10.4717C14.3211 10.63 14.479 10.8057 14.6149 10.9988C14.982 11.52 15.1406 12.1055 15.0793 12.7361C14.9521 14.0454 13.942 14.9772 12.7541 15.0837C11.4154 15.2038 10.3352 14.3478 10.0203 13.2246C9.68015 12.0118 10.2238 10.9785 10.9045 10.4838L10.9041 10.4842ZM12.5291 14.8326C12.682 14.8119 12.8751 14.8032 13.059 14.7572C13.3967 14.6722 13.7029 14.5152 13.971 14.2902C14.1781 14.1162 14.3576 13.9169 14.4773 13.6729C14.5668 13.491 14.5125 13.2494 14.3617 13.1164C14.1143 12.8985 13.7965 12.9354 13.5989 13.2043C13.4684 13.3816 13.3238 13.5428 13.1295 13.6555C12.9115 13.7818 12.6766 13.8237 12.4284 13.8125C12.2009 13.8021 11.9901 13.74 11.8003 13.6128C11.6288 13.498 11.4995 13.3431 11.3785 13.1782C11.2161 12.9561 10.9062 12.9167 10.6866 13.0804C10.4757 13.2374 10.4065 13.532 10.5954 13.7939C10.733 13.984 10.8834 14.1618 11.0677 14.3143C11.4833 14.6577 11.966 14.7999 12.5295 14.8334L12.5291 14.8326Z" fill="white"/>
<path d="M11.391 8.58497C11.3844 8.6003 11.3699 8.63676 11.3525 8.67198C11.333 8.71134 11.309 8.74904 11.2899 8.78882C11.2572 8.85718 11.1938 8.89075 11.1258 8.87251C11.0608 8.85511 10.9953 8.78095 11.0086 8.72294C11.0338 8.6119 11.072 8.50417 11.1793 8.44078C11.2812 8.3807 11.3902 8.44285 11.3914 8.58538L11.391 8.58497Z" fill="white"/>
<path d="M13.5941 8.57882C13.5887 8.59456 13.5804 8.62937 13.5651 8.66127C13.5427 8.70809 13.5137 8.7516 13.4901 8.798C13.4602 8.85642 13.3931 8.88915 13.3301 8.873C13.2651 8.85642 13.1976 8.78226 13.21 8.72466C13.2344 8.61279 13.2746 8.5059 13.3799 8.44168C13.4801 8.38035 13.5916 8.44209 13.5941 8.57965V8.57882Z" fill="white"/>
<path d="M18.059 10.0139C18.059 10.0835 18.0051 10.1685 17.9264 10.185C17.6956 10.2331 17.5274 10.3682 17.3762 10.5393C17.2792 10.6487 17.1441 10.6188 17.0803 10.4896C17.0517 10.4311 17.0625 10.3806 17.0977 10.33C17.2312 10.1399 17.399 9.99112 17.6186 9.90949C17.7047 9.87759 17.7959 9.85149 17.887 9.84279C17.9741 9.8345 18.0594 9.93062 18.059 10.0135V10.0139Z" fill="white"/>
<path d="M20.5831 9.97662C20.5848 10.0649 20.5363 10.1365 20.436 10.1598C20.2852 10.1946 20.158 10.2629 20.0453 10.3686C19.9703 10.439 19.892 10.4291 19.8178 10.3586C19.7544 10.2977 19.7374 10.1917 19.7946 10.1278C19.9599 9.94347 20.1609 9.82083 20.4157 9.81171C20.5226 9.80757 20.5819 9.8722 20.5835 9.97662H20.5831Z" fill="white"/>
<path d="M4.94291 10.1829C4.94001 9.9761 5.09621 9.76976 5.29136 9.72294C5.37257 9.70347 5.46497 9.75402 5.48486 9.8286C5.50806 9.91685 5.47036 9.98646 5.37547 10.0101C5.30131 10.0283 5.26526 10.0714 5.25366 10.1431C5.2491 10.1708 5.23999 10.1982 5.2317 10.2251C5.20435 10.3121 5.15008 10.3544 5.07881 10.3449C5.00382 10.3349 4.94415 10.2636 4.94291 10.1829Z" fill="white"/>
<path d="M8.03979 9.87163C8.03896 9.94373 8.01658 9.99925 7.93496 10.0113C7.85582 10.0233 7.81273 10.0676 7.80859 10.1501C7.80735 10.1778 7.7974 10.2056 7.78829 10.2321C7.75928 10.315 7.69672 10.3576 7.62628 10.3444C7.54673 10.3295 7.48872 10.2632 7.49867 10.1782C7.52477 9.95699 7.59977 9.79995 7.83842 9.72579C7.94366 9.69306 8.03937 9.76432 8.03937 9.87163H8.03979Z" fill="white"/>
<path d="M2.40972 10.1483C2.40972 10.0029 2.50419 9.79983 2.70514 9.72733C2.80002 9.69294 2.88081 9.71655 2.92763 9.79362C2.97777 9.87649 2.94131 9.98836 2.84643 10.0041C2.74491 10.0211 2.71218 10.0795 2.70224 10.1678C2.68774 10.2941 2.64423 10.3368 2.53899 10.3302C2.44701 10.324 2.40806 10.2693 2.40972 10.1487V10.1483Z" fill="white"/>
<path d="M12.5296 14.8326C11.9661 14.7991 11.4834 14.6569 11.0678 14.3135C10.8835 14.161 10.7331 13.9836 10.5955 13.7931C10.4066 13.5312 10.4762 13.2366 10.6867 13.0796C10.9063 12.9159 11.2166 12.9557 11.3786 13.1774C11.4992 13.3427 11.6289 13.4972 11.8004 13.612C11.9902 13.7392 12.2006 13.8013 12.4285 13.8117C12.6767 13.8233 12.9116 13.781 13.1296 13.6547C13.3235 13.5424 13.4685 13.3812 13.599 13.2035C13.7966 12.935 14.1144 12.8977 14.3618 13.1156C14.5126 13.2486 14.5669 13.4902 14.4774 13.6721C14.3576 13.9161 14.1782 14.1154 13.9711 14.2894C13.703 14.5144 13.3968 14.6714 13.0591 14.7564C12.8756 14.8024 12.6825 14.8111 12.5292 14.8318L12.5296 14.8326Z" fill="black"/>
</svg>
