<svg width="24" height="24" viewBox="0 0 24 24" fill="none" xmlns="http://www.w3.org/2000/svg">
<path d="M12 24C18.6274 24 24 18.6274 24 12C24 5.37258 18.6274 0 12 0C5.37258 0 0 5.37258 0 12C0 18.6274 5.37258 24 12 24Z" fill="white"/>
<path d="M6.97039 7.7604C6.97039 7.31172 6.6068 6.948 6.15829 6.948C5.70978 6.948 5.34619 7.31172 5.34619 7.7604V16.191C5.34619 16.6397 5.70978 17.0034 6.15829 17.0034C6.6068 17.0034 6.97039 16.6397 6.97039 16.191V7.7604Z" fill="url(#paint0_linear_484_16)"/>
<path d="M10.8708 9.48305C10.8708 9.03438 10.5072 8.67065 10.0587 8.67065C9.61017 8.67065 9.24658 9.03438 9.24658 9.48305V14.4685C9.24658 14.9171 9.61017 15.2809 10.0587 15.2809C10.5072 15.2809 10.8708 14.9171 10.8708 14.4685V9.48305Z" fill="url(#paint1_linear_484_16)"/>
<path d="M14.7717 10.956C14.7717 10.5073 14.4081 10.1436 13.9596 10.1436C13.5111 10.1436 13.1475 10.5073 13.1475 10.956V12.9906C13.1475 13.4392 13.5111 13.803 13.9596 13.803C14.4081 13.803 14.7717 13.4392 14.7717 12.9906V10.956Z" fill="url(#paint2_linear_484_16)"/>
<path d="M18.654 7.7604C18.654 7.31172 18.2904 6.948 17.8419 6.948C17.3934 6.948 17.0298 7.31172 17.0298 7.7604V16.2396C17.0298 16.6883 17.3934 17.052 17.8419 17.052C18.2904 17.052 18.654 16.6883 18.654 16.2396V7.7604Z" fill="url(#paint3_linear_484_16)"/>
<defs>
<linearGradient id="paint0_linear_484_16" x1="5.34619" y1="11.976" x2="6.97039" y2="11.976" gradientUnits="userSpaceOnUse">
<stop stop-color="#5407D8"/>
<stop offset="1" stop-color="#9F27A8"/>
</linearGradient>
<linearGradient id="paint1_linear_484_16" x1="9.24658" y1="11.9761" x2="10.8708" y2="11.9761" gradientUnits="userSpaceOnUse">
<stop stop-color="#E84777"/>
<stop offset="1" stop-color="#F74D6D"/>
</linearGradient>
<linearGradient id="paint2_linear_484_16" x1="13.1475" y1="11.973" x2="14.7717" y2="11.973" gradientUnits="userSpaceOnUse">
<stop stop-color="#FA645B"/>
<stop offset="1" stop-color="#FB734E"/>
</linearGradient>
<linearGradient id="paint3_linear_484_16" x1="17.0298" y1="12" x2="18.654" y2="12" gradientUnits="userSpaceOnUse">
<stop stop-color="#FC8F3A"/>
<stop offset="1" stop-color="#FD9E2D"/>
</linearGradient>
</defs>
</svg>
