<svg width="24" height="24" viewBox="0 0 24 24" fill="none" xmlns="http://www.w3.org/2000/svg">
<path d="M24 12C24 5.37258 18.6274 0 12 0C5.37258 0 0 5.37258 0 12C0 18.6274 5.37258 24 12 24C18.6274 24 24 18.6274 24 12Z" fill="#EAF7FF"/>
<path fill-rule="evenodd" clip-rule="evenodd" d="M14.8139 11.0057C15.3029 11.6195 15.5951 12.3959 15.5951 13.2401C15.5951 14.0843 15.2939 14.8841 14.7923 15.5015L14.7491 15.5549L14.7377 15.4871C14.7281 15.4295 14.7167 15.3719 14.7029 15.3131C14.4515 14.2091 13.6331 13.2623 12.2855 12.4955C11.3753 11.9795 10.8545 11.3579 10.7177 10.6517C10.6295 10.1951 10.6949 9.73606 10.8221 9.34306C10.9487 8.95006 11.1377 8.62126 11.2979 8.42326L11.8223 7.78246C11.9141 7.67026 12.0863 7.67026 12.1781 7.78246L14.8145 11.0057H14.8139ZM15.6431 10.3655L12.1295 6.06946C12.0623 5.98726 11.9369 5.98726 11.8697 6.06946L8.35612 10.3655L8.34472 10.3799C7.69792 11.1821 7.31152 12.2015 7.31152 13.3115C7.31152 15.8963 9.41032 17.9921 11.9993 17.9921C14.5883 17.9921 16.6871 15.8963 16.6871 13.3115C16.6871 12.2015 16.3001 11.1821 15.6539 10.3799L15.6425 10.3655H15.6431ZM9.19732 10.9919L9.51172 10.6073L9.52132 10.6781C9.52912 10.7345 9.53812 10.7909 9.54892 10.8473C9.75232 11.9141 10.4789 12.8039 11.6933 13.4927C12.7487 14.0933 13.3637 14.7845 13.5407 15.5423C13.6145 15.8585 13.6277 16.1699 13.5959 16.4417L13.5941 16.4585L13.5791 16.4657C13.1027 16.6985 12.5669 16.8293 12.0011 16.8293C10.0157 16.8293 8.40592 15.2225 8.40592 13.2401C8.40592 12.3887 8.70292 11.6069 9.19852 10.9919H9.19732Z" fill="#4DA1FF"/>
</svg>
