<svg width="25" height="24" viewBox="0 0 25 24" fill="none" xmlns="http://www.w3.org/2000/svg">
<g clip-path="url(#clip0_506_62)">
<path d="M23.8407 10.074C24.0876 11.3462 24.0703 12.6235 23.8598 13.8951C22.5659 21.6992 14.4025 26.1297 7.14535 22.9728C2.70932 21.043 -0.171693 16.457 0.00794613 11.6111C0.00918076 11.5703 0.0196751 11.5302 0.025231 11.4901C0.0153539 11.2166 0.149929 10.9586 0.106099 10.6802C0.0875799 10.5647 0.162275 10.4882 0.256724 10.4339C0.473402 10.3098 0.507972 10.1209 0.499329 9.88444C0.485749 9.51838 0.477723 9.14737 0.558592 8.78562C0.621558 8.50166 0.922808 8.33869 1.16973 8.43931C1.38209 8.52635 1.46913 8.73068 1.3753 8.93872C1.26727 9.17885 1.18825 9.4122 1.44321 9.61468C1.45802 9.62641 1.47345 9.65604 1.46605 9.669C1.3574 9.86099 1.42654 10.0925 1.34814 10.2764C1.27838 10.44 1.22282 10.5968 1.30616 10.7413C1.47716 11.037 1.42098 11.3456 1.36295 11.637C1.27715 12.0679 1.27283 12.4648 1.54815 12.8309C1.60309 13.4606 1.5605 14.0915 1.57284 14.7217C1.58087 15.1316 1.5784 15.131 1.97842 15.1699C2.10991 15.1829 2.23646 15.2273 2.36794 15.2397C2.70994 15.323 2.8692 15.5533 2.92538 15.8909C2.9723 16.1749 2.9797 16.4601 2.99946 16.7453C3.00625 16.8397 3.00625 16.9811 3.13959 16.9755C3.2433 16.9712 3.24392 16.8397 3.26552 16.7527C3.2933 16.641 3.27169 16.5292 3.26182 16.4169C3.23712 16.1446 3.29083 15.886 3.42047 15.6471C3.46615 15.5625 3.54023 15.4286 3.64826 15.515C3.8174 15.6502 3.8353 15.5347 3.85876 15.4199C3.89518 15.2403 4.00013 15.1051 4.11618 14.9742C4.19396 14.8866 4.28039 14.8149 4.40879 14.8575C4.53719 14.9001 4.61127 14.9915 4.63288 15.1242C4.65633 15.2674 4.64584 15.4094 4.62115 15.5514C4.56188 15.8866 4.58287 16.2249 4.59769 16.5613C4.60571 16.7471 4.66498 16.9231 4.78597 17.0712C5.07426 17.2731 5.44156 17.2169 5.66873 16.9175C5.82244 16.715 5.95825 16.4977 6.04468 16.2545C6.05826 16.2156 6.07307 16.1774 6.09468 16.1428C6.14715 16.0588 6.18542 15.9323 6.31321 15.973C6.43852 16.0125 6.40951 16.1372 6.39778 16.2366C6.3842 16.3484 6.3663 16.4595 6.38976 16.5718C6.43544 16.7867 6.54347 16.9323 6.78792 16.9009C7.00522 16.8731 7.18054 16.9373 7.35215 17.0749C7.58303 17.2601 7.73612 17.2095 7.84477 16.9367C7.97317 16.6126 8.0454 16.2718 8.12565 15.9341C8.17688 15.7181 8.28738 15.5668 8.50344 15.4921C8.67753 15.4323 8.83494 15.336 8.99298 15.2403C9.18681 15.123 9.37818 15.0298 9.53189 15.3113C9.60597 15.4465 9.65597 15.3224 9.70536 15.2681C9.86154 15.1508 9.90105 15.2755 9.93623 15.3853C9.9992 15.5823 10.0078 15.7872 10.0078 15.9928C10.0078 16.1317 9.99303 16.2755 10.0961 16.428C10.2597 16.2391 10.1949 16.0391 10.206 15.8582C10.2251 15.5471 10.285 15.2662 10.6184 15.1366C10.8431 15.1193 10.8591 15.2798 10.8671 15.4372C10.877 15.6304 10.8702 15.8243 10.961 16.0033C11.14 16.4576 11.4456 16.7533 11.9512 16.8076C12.074 16.8206 12.1901 16.8576 12.2833 16.9496C12.4697 17.133 12.703 17.1719 12.9395 17.1052C13.6204 16.9126 14.3167 16.8033 15.0143 16.7002C15.1075 16.6866 15.1859 16.6348 15.2754 16.6126C15.6408 16.6175 15.7767 16.7552 15.7433 17.1163C15.7242 17.3262 15.7538 17.5108 15.9421 17.625C16.1433 17.7466 16.3353 17.6781 16.5162 17.5583C16.6718 17.4558 16.8107 17.3342 16.9249 17.1885C17.328 16.6755 17.8181 16.2582 18.3521 15.8909C18.8206 15.5681 19.1509 15.1366 19.3892 14.6285C19.4201 14.5631 19.4398 14.4847 19.5269 14.4841C19.6207 14.4828 19.6855 14.5495 19.7028 14.631C19.7658 14.9298 19.946 15.0545 20.246 15.0576C20.4448 15.0594 20.4886 15.2477 20.5411 15.3835C20.5886 15.3897 20.6041 15.3798 20.617 15.36C20.6812 15.2613 20.7109 15.0983 20.8627 15.1255C21.03 15.1557 21.0553 15.3187 21.0745 15.4637C21.1053 15.7008 21.0454 15.9483 21.1325 16.199C21.259 16.1058 21.2195 15.9953 21.2245 15.9008C21.256 15.3113 21.4195 15.1187 21.9893 15.0409C22.1412 15.0199 22.2109 14.9532 22.2079 14.8045C22.1862 13.71 22.2653 12.6136 22.164 11.5197C22.143 11.2925 22.0622 11.0475 22.2597 10.8475C22.4468 10.7333 22.4647 10.5647 22.4227 10.369C22.385 10.1925 22.3813 10.0209 22.5906 9.9326C22.6875 9.89185 22.6924 9.78938 22.732 9.70851C22.8616 9.43998 23.1573 9.38751 23.3474 9.61344C23.495 9.78876 23.7647 9.82827 23.8419 10.0746L23.8407 10.074Z" fill="black"/>
<path d="M1.05422 7.11644C1.49498 6.00898 2.14069 5.02436 2.92901 4.14222C5.41987 1.35442 8.54288 -0.0505919 12.2869 0.0012626C14.6092 0.033363 16.7414 0.729695 18.6773 2.01742C18.7366 2.05692 18.7891 2.10569 18.844 2.15014C18.9261 2.35817 18.9996 2.56868 19.2576 2.63164C19.3237 2.6477 19.3669 2.72609 19.3879 2.79523C19.4299 2.93351 19.5113 3.02611 19.6527 3.06747C19.7225 3.08784 19.7959 3.12735 19.8219 3.1934C19.9077 3.41193 20.12 3.49897 20.2571 3.64343C20.4472 3.84344 20.6509 4.04036 20.8287 4.24963C20.9559 4.39902 21.1188 4.491 21.2306 4.61878C21.4812 4.90769 21.9275 5.07436 21.8991 5.57069C21.8886 5.75032 21.9621 5.90095 22.159 5.97997C22.3522 6.05775 22.4294 6.21948 22.38 6.43184C22.3158 6.70655 22.3924 6.90594 22.6646 7.03311C22.8325 7.11151 22.8986 7.27324 22.7992 7.44671C22.6942 7.62943 22.5294 7.65289 22.3498 7.55042C22.2522 7.49486 22.1633 7.41708 22.0436 7.41893C21.8584 7.42202 21.7923 7.3146 21.7763 7.15163C21.7497 6.88557 21.5824 6.7689 21.325 6.71642C21.2911 6.87507 21.3886 6.99051 21.3824 7.122C21.3756 7.26028 21.3664 7.39609 21.2232 7.46214C21.075 7.53066 20.9373 7.49733 20.8386 7.36831C20.7052 7.19423 20.5095 7.09607 20.354 6.94668C20.141 6.74173 19.7255 6.91767 19.657 7.20966C19.586 7.50967 19.3465 7.73191 19.2619 8.02945C19.244 8.0918 19.1601 8.15168 19.0879 8.13501C18.8446 8.08007 18.5903 8.18502 18.3588 8.10044C18.1668 8.03069 17.9884 8.01526 17.7921 8.05538C17.6267 8.08933 17.4686 8.02884 17.3143 7.96896C17.1594 7.90908 16.9816 7.83685 16.8402 7.93747C16.4291 8.23008 15.9784 8.1239 15.5327 8.11156C15.1512 8.10106 14.7697 8.04612 14.3895 8.16588C14.1956 8.22699 13.9827 8.20168 13.7796 8.15724C13.5975 8.11773 13.4363 8.13316 13.311 8.29675C13.2085 8.43071 13.0758 8.4375 12.9758 8.30539C12.8524 8.14242 12.6912 8.13254 12.5122 8.12699C12.182 8.11711 11.8295 8.18872 11.5795 7.86463C11.5165 7.78315 11.3986 7.83994 11.3208 7.88006C10.901 8.09798 10.4529 7.95352 10.0189 7.99118C9.93492 7.99859 9.87196 7.94612 9.81331 7.87759C9.5849 7.61277 9.42255 7.57264 9.12562 7.70968C9.03488 7.75166 8.95154 7.76339 8.85956 7.73561C8.49905 7.62449 8.13977 7.62573 7.77123 7.7066C7.55147 7.75475 7.32306 7.68314 7.09712 7.69981C6.9286 7.71215 6.77982 7.7424 6.66624 7.89118C6.47178 8.14551 6.32116 8.18996 6.03287 8.06958C5.86928 8.00106 5.72174 7.98439 5.56433 8.06958C5.50074 8.10415 5.42914 8.12699 5.35753 8.12205C4.82417 8.08193 4.29513 8.27021 3.76732 8.18193C3.16729 8.08192 2.56541 8.1702 1.96599 8.10662C1.75981 8.08501 1.55301 8.17699 1.3351 8.1344C1.14311 8.09674 1.03014 8.01526 1.03817 7.81586C1.04743 7.58252 0.973967 7.34732 1.05175 7.11583L1.05422 7.11644Z" fill="black"/>
<path d="M1.05454 7.11646C1.07615 7.26708 1.11195 7.41771 1.11627 7.56957C1.13109 8.06898 1.30887 8.19182 1.80581 8.01527C1.94718 7.96527 2.06076 8.06219 2.19472 8.05046C2.56079 8.01897 2.9355 8.01527 3.29478 8.03379C3.57813 8.04799 3.87506 8.14058 4.16149 8.10108C4.66522 8.03132 5.185 8.12268 5.67885 7.93502C5.78873 7.89304 5.92578 7.92205 6.05912 7.98811C6.26036 8.08811 6.49803 8.15108 6.59803 7.82946C6.65606 7.64179 6.8357 7.62266 6.97336 7.62574C7.5166 7.63809 8.05552 7.57389 8.5969 7.55537C8.68641 7.55228 8.74753 7.60537 8.82099 7.64056C8.89568 7.67636 8.96729 7.72822 9.071 7.65846C9.37349 7.45475 9.70807 7.53994 9.87907 7.85539C9.91858 7.92885 9.97352 7.92699 10.0309 7.92267C10.5186 7.8844 11.0285 8.01527 11.4835 7.73007C11.5656 7.67883 11.6643 7.68007 11.6816 7.78192C11.7279 8.0591 11.9526 8.01589 12.1286 8.04243C12.2792 8.06527 12.4354 8.04675 12.5891 8.04799C12.7693 8.04922 12.9558 8.00663 13.0305 8.26343C13.0632 8.3764 13.1873 8.4048 13.2453 8.24985C13.3317 8.01836 13.5237 8.02453 13.7058 8.05725C14.0095 8.11219 14.2886 8.12145 14.5997 8.01774C14.8275 7.94181 15.1188 7.99181 15.3738 8.0091C15.6108 8.02515 15.8559 8.02638 16.0967 8.06959C16.2479 8.09676 16.4603 8.1054 16.5905 7.98132C16.8442 7.73933 17.1085 7.7739 17.3832 7.90601C17.5597 7.9912 17.7338 8.01342 17.9178 7.95539C18.0412 7.9165 18.1505 7.9165 18.2684 7.98811C18.5344 8.14984 18.8437 7.94304 19.1184 8.07268C19.1283 8.077 19.1783 8.03441 19.1802 8.01157C19.2042 7.65908 19.5993 7.46956 19.5814 7.10349C19.5709 6.89114 19.6573 6.79854 19.8697 6.81521C19.9716 6.82323 20.0728 6.81521 20.171 6.77385C20.2376 6.74545 20.3524 6.73496 20.3691 6.79484C20.4475 7.08004 20.8154 7.06707 20.9031 7.33931C20.937 7.44425 21.05 7.43623 21.1432 7.42635C21.2531 7.41462 21.2969 7.34301 21.3056 7.23745C21.3192 7.06769 21.2877 6.9146 21.1796 6.77632C21.0994 6.67323 21.142 6.59915 21.2661 6.59174C21.534 6.57569 21.8396 6.85595 21.8587 7.13683C21.8673 7.26955 21.8531 7.39302 22.055 7.31894C22.1816 7.27264 22.2649 7.36956 22.3433 7.45228C22.4291 7.54241 22.5272 7.5887 22.6445 7.52265C22.7273 7.47574 22.789 7.40413 22.7797 7.29918C22.7686 7.17078 22.6902 7.09856 22.5698 7.06646C22.2556 6.98374 22.2297 6.74854 22.2896 6.49359C22.3507 6.23123 22.3087 6.07134 22.0106 6.00899C21.7538 5.95529 21.8235 5.69478 21.8124 5.53181C21.7963 5.30834 21.7784 5.13734 21.5284 5.07314C21.4772 5.06018 21.4093 4.99783 21.4013 4.94906C21.3593 4.69349 21.1673 4.64226 20.9624 4.60151C20.9321 4.59534 20.8772 4.58793 20.8765 4.57991C20.8661 4.23977 20.6302 4.13544 20.3537 4.06754C20.3382 4.06383 20.3228 4.01198 20.3259 3.98482C20.3543 3.75456 20.3012 3.6169 20.0228 3.64221C19.9148 3.65208 19.8166 3.57677 19.8265 3.42429C19.8388 3.2428 19.7456 3.12983 19.5573 3.12428C19.4024 3.11934 19.3339 3.04526 19.3363 2.89464C19.3382 2.77858 19.2746 2.65882 19.1783 2.65944C18.7845 2.66129 18.8425 2.39214 18.8443 2.14954C20.0123 2.92056 20.9766 3.90086 21.7889 5.03302C22.826 6.47815 23.494 8.08256 23.8205 9.83018C23.8353 9.90981 23.8341 9.99191 23.8403 10.0734C23.6785 9.8845 23.347 9.91722 23.2637 9.61473C23.239 9.52584 23.1267 9.51288 23.0254 9.55362C22.9131 9.5993 22.7785 9.61535 22.7859 9.78141C22.7921 9.91845 22.7631 9.99438 22.597 10.0271C22.3927 10.0678 22.4803 10.2475 22.5063 10.3759C22.5519 10.5975 22.5902 10.808 22.2896 10.8765C22.2507 10.8413 22.2198 10.7963 22.2204 10.7457C22.2272 10.3148 22.1285 9.88512 22.2025 9.45423C22.2976 9.24002 22.384 9.02211 22.4686 8.80297C22.5717 8.53628 22.4964 8.27886 22.4229 8.02453C22.3982 7.93934 22.3346 7.87946 22.2408 7.96774C22.0778 8.10725 21.9951 8.32146 21.8019 8.43258C21.7519 8.43566 21.7192 8.40912 21.6951 8.36837C21.6821 8.34183 21.6729 8.31405 21.6661 8.28565C21.642 8.14676 21.613 8.0091 21.5957 7.86835C21.5636 7.60352 21.4611 7.56833 21.2327 7.71958C21.0556 7.83687 20.9611 8.04614 20.7611 8.13688C20.5648 8.08935 20.5179 7.90847 20.4395 7.76279C20.3481 7.59364 20.2747 7.55352 20.1395 7.72884C19.9265 8.00539 19.9135 8.16775 20.1185 8.46097C20.1784 8.5474 20.1623 8.64555 20.1635 8.74185C20.1635 8.82395 20.1617 8.90606 20.1493 8.98754C20.1203 9.17891 20.0142 9.21348 19.8753 9.09681C19.3573 8.66283 18.7363 8.65728 18.1227 8.70419C17.6616 8.73938 17.2023 8.74679 16.7411 8.74802C16.514 8.74802 16.3109 8.74802 16.2566 9.0431C16.2251 9.21348 16.0917 9.18447 16.0022 9.09496C15.5016 8.59369 14.8707 8.78074 14.2805 8.7616C14.1231 8.75667 14.0743 8.87828 14.0743 9.01347C14.0731 9.56658 14.0367 10.1216 14.0922 10.6728C14.1626 11.3691 14.1182 12.0655 14.125 12.7618C14.1256 12.8445 14.1157 12.9328 14.0645 12.997C13.8638 13.2501 13.754 13.5483 13.6225 13.8372C13.5163 14.0711 13.4237 14.0724 13.2891 13.8588C13.1657 13.6637 13.1027 13.4575 13.1391 13.2168C13.2947 12.1933 13.2218 11.1728 13.0774 10.1549C13.0416 9.89993 12.9595 9.65301 12.8385 9.42707C12.6082 8.99618 12.2465 8.75543 11.7471 8.75173C11.081 8.74679 10.4143 8.75358 9.74758 8.74864C9.52596 8.74679 9.36978 8.80667 9.32163 9.04804C9.28459 9.23509 9.18335 9.25361 9.04137 9.13446C8.4543 8.6437 7.74995 8.76284 7.07028 8.76346C6.91101 8.76346 6.87459 8.88877 6.87027 9.02211C6.86286 9.2678 6.86842 9.51411 6.86718 9.76042C6.86657 9.87339 6.87274 9.98636 6.85916 10.0987C6.8499 10.1783 6.85422 10.2882 6.76286 10.3061C6.64927 10.3284 6.6147 10.216 6.59186 10.1308C6.51284 9.83388 6.44926 9.53387 6.30296 9.25793C6.15542 8.97952 5.97516 8.75667 5.62638 8.76346C5.27821 8.76963 5.09487 8.99557 4.96956 9.28385C4.73559 9.824 4.61275 10.3944 4.51089 10.971C4.48435 11.1222 4.51336 11.3512 4.31458 11.3759C4.15408 11.3957 4.14297 11.1753 4.06951 11.0593C4.03124 10.9988 4.00099 10.9321 3.95654 10.8765C3.81764 10.7012 3.81147 10.5284 3.93987 10.3413C4.07198 10.1487 4.1121 9.9271 4.09914 9.69622C4.06951 9.18015 3.7627 8.85852 3.2491 8.82025C2.95279 8.79864 2.65462 8.81161 2.35769 8.81346C2.02928 8.81593 2.00644 8.83753 2.00521 9.16224C2.00212 9.85919 2.00397 10.5561 2.00397 11.2537C2.00397 12.2173 2.00274 13.181 2.00397 14.1446C2.00459 14.6082 2.012 14.6138 2.46078 14.607C2.66573 14.6039 2.8713 14.6002 3.07563 14.607C3.59541 14.6249 3.95716 14.3946 4.17754 13.9279C4.21952 13.839 4.24174 13.7063 4.36582 13.7131C4.47817 13.7193 4.51274 13.8421 4.56028 13.9322C4.6788 14.1557 4.73744 14.3903 4.69979 14.644C4.67571 14.8064 4.5967 14.902 4.4294 14.807C4.26396 14.7131 4.16211 14.7718 4.07136 14.9101C3.93246 15.1224 3.72443 15.2206 3.48244 15.2638C2.98118 15.3082 2.48548 15.2403 1.99162 15.1737C1.65457 15.128 1.55271 15.0058 1.54901 14.665C1.54284 14.1045 1.53851 13.5433 1.5521 12.9828C1.60642 12.3785 1.60827 11.7723 1.60765 11.166C1.60765 11.0932 1.60765 11.0204 1.60765 10.9481C1.58173 10.7413 1.60025 10.5308 1.55457 10.3259C1.54222 9.74252 1.5521 9.15854 1.48666 8.57703C1.46073 8.34986 1.53851 8.27269 1.79223 8.25047C2.36695 8.20046 2.93488 8.21158 3.50775 8.25664C4.00407 8.29553 4.43311 8.38875 4.52138 9.00112C4.66398 8.93445 4.70658 8.82519 4.77325 8.74309C5.23562 8.17639 5.70416 8.05725 6.37148 8.33936C6.44617 8.37084 6.52272 8.43011 6.59618 8.35171C6.99682 7.92391 7.51722 8.0165 8.01169 8.03996C8.29565 8.05354 8.58517 8.10787 8.80679 8.32331C8.86235 8.37702 8.93272 8.41097 9.00063 8.36158C9.45127 8.03255 9.97907 8.08441 10.481 8.09552C10.9699 8.10663 11.4612 8.13935 11.9495 8.19923C12.4496 8.26034 12.8484 8.4548 13.1101 8.89988C13.1755 9.01162 13.2397 9.13508 13.3941 9.18632C13.4941 9.08323 13.4564 8.93939 13.486 8.81655C13.5663 8.47949 13.7348 8.30232 14.0706 8.28072C14.5102 8.25232 14.9602 8.21528 15.3898 8.29368C15.7374 8.35726 16.0627 8.54863 16.3769 8.23257C16.385 8.22454 16.3992 8.22516 16.4059 8.22516C17.4702 8.19182 18.5338 8.16281 19.5228 8.35665C19.1783 8.25417 18.7542 8.2196 18.3338 8.2017C17.7708 8.17824 17.206 8.19367 16.6418 8.19676C16.5177 8.19738 16.3751 8.18009 16.2825 8.25479C16.0189 8.46653 15.7738 8.34739 15.4923 8.29491C14.9904 8.20108 14.4707 8.23627 13.9608 8.27948C13.6916 8.30232 13.5206 8.47455 13.4595 8.74864C13.4354 8.85729 13.4076 8.99865 13.2879 9.02026C13.1601 9.04372 13.1113 8.90235 13.0545 8.81099C12.7218 8.26899 12.1718 8.1696 11.6143 8.14429C10.9007 8.11219 10.1846 8.01712 9.46917 8.13565C9.42904 8.14244 9.37534 8.12268 9.34818 8.14491C9.0389 8.39368 8.77346 8.20726 8.46048 8.11774C7.83699 7.93996 7.18819 7.88008 6.59495 8.2696C6.49741 8.33381 6.40543 8.3301 6.30543 8.28195C5.75108 8.01404 5.29797 8.19553 4.89548 8.6011C4.84486 8.65234 4.79547 8.70419 4.74794 8.7579C4.64114 8.87951 4.52694 8.8863 4.46089 8.73136C4.32508 8.4122 4.05655 8.32146 3.75036 8.27763C3.04785 8.17701 2.34411 8.1875 1.63852 8.23689C1.49036 8.24738 1.47987 8.3406 1.48234 8.44863C1.48975 8.77642 1.53172 9.10236 1.53728 9.42892C1.54592 9.96167 1.54777 10.4938 1.60395 11.0247C1.60395 11.2438 1.60395 11.4624 1.60395 11.6815C1.62185 11.9784 1.55703 12.2717 1.56136 12.568C1.56259 12.6501 1.54654 12.7316 1.46999 12.7847C1.08108 12.484 1.22801 12.0778 1.25949 11.6969C1.2848 11.3901 1.41505 11.0975 1.21257 10.779C1.12121 10.6352 1.06812 10.3648 1.30208 10.2067C1.31875 10.1956 1.3385 10.1895 1.35702 10.1814C1.32986 10.1592 1.29221 10.1425 1.27677 10.1141C1.21072 9.995 1.02429 9.84314 1.3453 9.80857C1.4132 9.80116 1.41505 9.74375 1.41382 9.69252C1.41258 9.64066 1.3848 9.62029 1.33542 9.64313C1.11257 9.74684 1.18109 9.58634 1.19467 9.48448C1.2243 9.2604 1.14405 9.03446 1.33295 8.81222C1.43481 8.69308 1.23788 8.50604 1.06812 8.48628C0.850825 8.46159 0.650815 8.54122 0.623036 8.79864C0.581676 9.18755 0.545254 9.57831 0.572416 9.97031C0.589701 10.2179 0.530438 10.4172 0.276722 10.5061C0.156345 10.5481 0.0964655 10.6364 0.132887 10.7389C0.232275 11.0154 0.0384378 11.2377 0.0180664 11.4895C0.0618958 9.96105 0.388456 8.49925 1.04651 7.11522L1.05454 7.11646Z" fill="#020202"/>
<path d="M3.5188 15.1822C3.70832 15.1292 3.8824 15.0613 4.00031 14.8828C4.23674 14.5236 4.24168 14.5267 4.56022 14.8032C4.80035 14.3773 4.48058 14.0624 4.38058 13.6507C4.0355 14.5193 3.74536 14.7149 2.85457 14.723C2.63913 14.7248 2.42307 14.71 2.20886 14.7279C1.98169 14.7464 1.93107 14.6439 1.93045 14.4409C1.92798 12.6266 1.92119 10.8123 1.90823 8.99798C1.90699 8.79426 1.95329 8.69488 2.18046 8.7066C2.549 8.72512 2.91816 8.71833 3.28731 8.72574C4.18057 8.74364 4.40465 9.88197 4.0429 10.3406C3.88055 10.5468 3.88611 10.674 4.05525 10.8561C4.18304 10.9938 4.24415 11.1833 4.32625 11.3672C4.44972 10.9117 4.49787 10.4493 4.63244 10.0061C4.72442 9.70295 4.79171 9.39183 4.94789 9.11033C5.1053 8.82698 5.33124 8.66216 5.66336 8.66401C5.98868 8.66586 6.19055 8.85167 6.33932 9.11897C6.54427 9.48627 6.62143 9.89741 6.7807 10.2931C6.7807 9.85296 6.79181 9.4122 6.77638 8.97205C6.76835 8.74241 6.84737 8.65969 7.07516 8.67204C7.39246 8.6887 7.71038 8.68129 8.02829 8.68747C8.50116 8.69611 8.94686 8.77081 9.22897 9.24552C9.30264 8.86896 9.5364 8.678 9.93024 8.67265C10.4222 8.6671 10.9155 8.69117 11.4056 8.6566C12.5964 8.57265 13.0063 9.19675 13.1699 10.1814C13.3452 11.2364 13.3767 12.3006 13.2119 13.3643C13.1841 13.5427 13.2051 13.5803 13.4687 14.0205C13.6434 13.6482 13.7132 13.234 14.0138 12.9334C14.0558 12.8914 14.0255 12.7753 14.0249 12.6932C14.0175 11.453 14.0169 10.2129 13.9959 8.97267C13.9909 8.69735 14.078 8.60475 14.3465 8.63191C14.5496 8.65228 14.7564 8.635 14.9614 8.63623C15.4256 8.63993 15.8583 8.72636 16.1565 9.12329C16.2485 9.07885 16.2213 9.00786 16.2176 8.956C16.2016 8.71772 16.2948 8.6424 16.5417 8.64673C17.1967 8.65845 17.8529 8.63376 18.5085 8.62882C19.0653 8.6245 19.624 8.62203 20.0369 9.19058C20.0555 8.96526 20.0672 8.8171 20.0795 8.66833C20.5759 8.50968 21.0839 8.45659 21.5895 8.58499C21.7901 8.63561 21.8031 8.8918 21.9136 9.04613C21.9451 9.4122 21.8944 9.48072 21.5537 9.5548C21.4703 9.5727 21.3401 9.54986 21.3413 9.67764C21.3426 9.80234 21.4703 9.7937 21.5549 9.80049C21.8136 9.82209 21.9438 9.9505 21.9481 10.2141C21.9537 10.5153 21.8599 10.6666 21.5981 10.753C21.5494 10.7691 21.4987 10.7796 21.4494 10.7907C21.3086 10.8228 21.2845 10.9277 21.2845 11.0481C21.2845 11.179 21.3456 11.2456 21.479 11.279C21.9093 11.3864 21.95 11.4407 21.9525 11.8852C21.9562 12.6642 21.958 13.4433 21.9519 14.2217C21.9488 14.6304 21.8648 14.7137 21.4673 14.7223C21.1395 14.7298 20.8111 14.7298 20.4833 14.7223C20.0851 14.7137 19.9925 14.6248 19.9882 14.2279C19.9801 13.4488 19.9863 12.6698 19.9851 11.8913C19.9851 11.7907 19.9962 11.6876 19.953 11.5376C19.6832 11.7697 19.3388 11.7679 19.0647 11.9432C18.9529 12.0759 18.9881 12.2364 18.9931 12.3846C19.0005 12.6247 18.8869 12.7531 18.6603 12.776C18.3554 12.8062 18.0591 12.9056 17.7572 12.9173C17.3547 12.9334 17.0226 13.1365 16.6578 13.2513C16.6189 13.2636 16.6077 13.313 16.5942 13.3519C16.1886 14.0569 15.9948 14.8742 15.454 15.5076C15.3848 15.5884 15.3373 15.7323 15.1972 15.6625C15.0614 15.5946 15.078 15.4545 15.1262 15.3378C15.2398 15.0637 15.3379 14.7847 15.4287 14.5026C15.4602 14.405 15.4929 14.3075 15.4923 14.2044C15.4916 14.1192 15.475 14.0377 15.3811 14.0063C15.2787 13.9717 15.2021 14.0168 15.1441 14.0982C15.0898 14.1742 15.0645 14.2637 15.0354 14.3507C14.8595 14.8828 14.6188 15.3952 14.5379 15.9576C14.5305 16.0088 14.5033 16.0533 14.4595 16.0848C14.2564 16.1502 14.0564 16.1712 13.8551 16.0434C13.9002 15.9014 14.0422 15.928 14.1169 15.8601C14.2798 15.6693 14.286 15.4162 14.3774 15.1971C14.4237 15.0866 14.465 14.9742 14.5262 14.8705C14.5527 14.81 14.6052 14.7458 14.5428 14.6835C14.4916 14.6328 14.4342 14.6686 14.3848 14.7032C14.2206 14.8563 14.1848 15.0755 14.0922 15.2656C14.0397 15.3724 14.0311 15.5051 13.9088 15.5705C13.8329 15.5607 13.8125 15.5039 13.7977 15.4415C13.7977 15.1563 13.9218 14.9045 14.0181 14.647C14.1589 14.2729 14.3113 13.9026 14.4657 13.534C14.5126 13.4217 14.5595 13.2815 14.4101 13.2099C14.2774 13.1463 14.1755 13.2334 14.0953 13.3359C14.0311 13.418 13.999 13.5161 13.965 13.613C13.7385 14.2612 13.4508 14.8878 13.2619 15.5496C13.2156 15.7113 13.1323 15.8125 12.9502 15.7076C12.8076 15.6255 12.7051 15.6823 12.5952 15.7823C12.3248 16.0286 12.1563 16.0483 11.9161 15.8848C11.6229 15.6847 11.56 15.4841 11.6643 15.1458C11.7723 14.7958 11.9896 14.5075 12.1859 14.2087C12.3014 14.0328 12.4446 14.076 12.5668 14.2155C12.6501 14.31 12.6674 14.4384 12.7217 14.5489C12.765 14.6365 12.8255 14.7057 12.9304 14.7057C13.0434 14.7057 13.0835 14.6199 13.1174 14.5304C13.2131 14.2779 12.9866 13.7056 12.7316 13.5581C12.4686 13.4056 12.0087 13.5278 11.805 13.7933C11.4982 14.1927 11.3013 14.6569 11.0297 15.0767C10.934 15.0859 10.8877 15.0267 10.8531 14.9501C10.8303 14.8841 10.8192 14.7865 10.7352 14.7896C10.3364 14.802 9.91728 14.66 9.54998 14.9335C9.49998 14.9662 9.45553 15.0051 9.40676 15.039C9.18761 15.1903 9.14132 15.1674 9.07094 14.881C9.16971 14.6143 9.45121 14.5193 9.61294 14.3106C9.68764 14.2143 9.79073 14.1408 9.86543 14.0427C9.99568 13.8711 9.97037 13.7099 9.79629 13.5939C9.43577 13.3525 9.01847 13.2772 8.59869 13.2593C8.37831 13.25 8.29065 13.4636 8.20732 13.6439C8.12768 13.8161 8.13633 14.0328 7.95607 14.1557C7.79433 14.1489 7.84372 13.9742 7.75729 13.9075C7.63506 13.7964 7.5079 13.7859 7.36345 13.8705C7.28999 13.9137 7.20294 13.9859 7.12763 13.8643C7.12208 13.7032 7.23504 13.5778 7.26035 13.426C7.27085 13.363 7.27147 13.3007 7.21652 13.2568C7.148 13.2025 7.0801 13.2303 7.01837 13.2729C6.92392 13.3383 6.86527 13.4365 6.79675 13.526C6.41278 14.0291 6.1924 14.618 5.92448 15.1822C5.81892 15.4045 5.69299 15.6162 5.60163 15.8452C5.56397 15.9403 5.50841 16.0619 5.39606 16.044C5.2726 16.0243 5.2868 15.886 5.28433 15.7872C5.27383 15.3971 5.34297 15.0125 5.37569 14.6248C5.39112 14.4409 5.40841 14.2575 5.40038 14.0729C5.39544 13.9526 5.40409 13.7951 5.2405 13.7859C5.08987 13.7779 5.03555 13.9205 5.03123 14.0445C5.01826 14.4662 4.91641 14.8773 4.89603 15.2965C4.88307 15.5625 4.87196 15.8267 4.84233 16.0922C4.80529 16.4218 4.82813 16.7502 5.0658 17.0194C5.12012 17.078 5.20778 17.1002 5.25161 17.1965C5.07382 17.3077 4.91517 17.2262 4.75652 17.1527C4.54972 16.991 4.50898 16.7595 4.51206 16.5218C4.51762 16.0829 4.52811 15.6434 4.56022 15.2057C4.57256 15.0378 4.50466 14.9668 4.37379 14.9063C4.20588 14.8285 4.23489 15.0032 4.17316 15.0588C4.0355 15.1829 3.92253 15.3199 3.91142 15.5236C3.90586 15.6286 3.89969 15.7761 3.754 15.7872C3.58856 15.7996 3.6756 15.6107 3.59041 15.5335C3.36447 15.7712 3.33546 16.0582 3.35151 16.3582C3.36201 16.5521 3.38176 16.7465 3.31694 16.9354C3.28299 17.033 3.24163 17.1441 3.12002 17.141C2.99841 17.1379 2.9484 17.0256 2.93729 16.9249C2.90211 16.6107 2.87865 16.2953 2.85704 15.9798C2.83605 15.6687 2.71568 15.4298 2.40578 15.3174C2.36257 15.2508 2.2638 15.3057 2.19404 15.1798C2.65209 15.16 3.08853 15.2927 3.51572 15.1835L3.5188 15.1822Z" fill="#FEFEFE"/>
<path d="M16.5158 13.3599C16.5213 13.2081 16.5701 13.0896 16.7516 13.1254C16.9324 13.1612 16.9954 12.9673 17.1547 12.9451C17.5769 12.8858 17.9924 12.7735 18.4152 12.7297C18.8906 12.6803 18.9005 12.6939 18.9072 12.213C18.9085 12.1142 18.8739 12.0055 18.964 11.9228C19.0369 12.3512 19.2005 12.734 19.4332 13.1068C19.5783 13.3396 19.4739 13.6377 19.277 13.8445C19.048 14.0847 19.0054 14.339 19.1449 14.6328C19.2153 14.5723 19.2134 14.468 19.2733 14.3958C19.3764 14.2723 19.506 14.2334 19.6579 14.2575C19.7962 14.2797 19.882 14.3686 19.8999 14.502C19.9388 14.7927 20.1234 14.8606 20.3808 14.8526C20.8215 14.8396 21.2623 14.8637 21.7031 14.8378C21.9123 14.8254 22.0031 14.7353 22.0253 14.5168C22.1228 13.5433 22.1031 12.5729 22.0037 11.6018C21.9704 11.2777 21.8055 10.9857 21.9889 10.6209C22.1025 10.3944 22.1031 10.0357 21.8907 9.77272C21.8642 9.74 21.8364 9.68259 21.858 9.66037C22.0179 9.49616 21.9395 9.23997 22.0907 9.07577C22.3833 9.04675 22.2648 9.26281 22.2821 9.39739C22.2222 9.89062 22.3068 10.3832 22.2895 10.8759C22.2062 10.9901 22.1982 11.1104 22.2185 11.2524C22.3945 12.4877 22.2914 13.7279 22.2772 14.9668C22.2753 15.131 22.2031 15.1409 22.0617 15.1211C21.5852 15.0539 21.3567 15.2545 21.3351 15.7385C21.329 15.8817 21.329 16.0249 21.3154 16.1675C21.3061 16.2601 21.2784 16.3694 21.1672 16.3731C21.0487 16.3768 21.029 16.2564 21.0215 16.1712C21.0061 15.9879 21.016 15.8027 21.0067 15.6187C21.0012 15.507 20.9857 15.3952 20.9648 15.2853C20.953 15.2242 20.9129 15.1619 20.8462 15.1582C20.7549 15.1526 20.7333 15.2335 20.7172 15.3039C20.7061 15.3533 20.7098 15.4063 20.6987 15.4557C20.6826 15.5304 20.6475 15.5971 20.5586 15.5891C20.4888 15.5823 20.4474 15.5236 20.4511 15.46C20.4672 15.1767 20.3011 15.1174 20.0641 15.123C19.7931 15.1292 19.6931 14.9538 19.6523 14.7174C19.6394 14.6427 19.6536 14.5279 19.5425 14.5267C19.4246 14.5254 19.4727 14.6514 19.4363 14.7131C19.2406 15.0471 19.0924 15.4261 18.7702 15.6601C18.0128 16.2107 17.3306 16.8379 16.6929 17.5231C16.3404 17.9015 15.9602 17.8775 15.7268 17.5367C15.6342 17.4015 15.6071 17.2564 15.6429 17.0978C15.7071 16.8107 15.6108 16.6941 15.2873 16.6675C15.2274 16.6996 15.2027 16.6626 15.1836 16.615C15.225 16.3484 15.2885 16.0922 15.52 15.9169C15.5861 15.8669 15.6565 15.8088 15.7423 15.8527C15.8182 15.8916 15.8009 15.9743 15.8009 16.0459C15.8009 16.2027 15.7225 16.428 15.9324 16.4663C16.1694 16.5095 16.1627 16.2601 16.2139 16.1021C16.4534 15.3613 16.6337 14.6014 16.9115 13.8723C16.9516 13.7668 16.9899 13.6563 17.1022 13.6038C17.196 13.5599 17.3022 13.5149 17.3973 13.5692C17.5133 13.6359 17.4596 13.7519 17.4319 13.847C17.3109 14.2606 17.1547 14.6625 16.9936 15.0619C16.8818 15.3384 16.8071 15.6267 16.6991 15.9039C16.6806 15.952 16.6547 16.0058 16.667 16.0527C16.7756 16.4521 16.5269 16.6829 16.2732 16.9157C16.175 17.0058 16.0762 17.0972 16.0034 17.2095C15.9491 17.2935 15.9293 17.3818 16.0133 17.4601C16.0929 17.5342 16.1818 17.5244 16.2676 17.4713C16.3559 17.4169 16.4256 17.341 16.4966 17.2669C17.0788 16.6589 17.7103 16.1045 18.3424 15.5502C18.4356 15.4687 18.5449 15.4107 18.643 15.3372C18.9807 15.086 18.9591 14.7668 18.5936 14.5779C18.3263 14.4402 18.3134 14.3625 18.5443 14.1606C18.7646 13.968 18.943 13.7458 19.0474 13.4723C19.1628 13.1698 19.0356 12.9494 18.7134 12.9346C18.1053 12.9068 17.5072 12.9581 16.9479 13.2408C16.8164 13.3075 16.6818 13.4025 16.5151 13.3593L16.5158 13.3599Z" fill="#F9F9F9"/>
<path d="M10.8962 14.9218C10.9203 14.9848 10.9604 15.0335 11.0222 15.0625C11.0339 15.3243 11.0635 15.586 11.0611 15.8484C11.0191 15.9286 10.9808 16.0114 10.8987 16.0607C10.7629 15.8434 10.766 15.5996 10.7833 15.3607C10.7956 15.1996 10.737 15.165 10.5993 15.1928C10.34 15.1027 10.074 15.1409 9.80913 15.1539C9.68876 15.1601 9.67271 15.2132 9.73012 15.3076C9.73567 15.4169 9.71715 15.5323 9.59431 15.5459C9.47023 15.5601 9.47023 15.4298 9.45047 15.3465C9.40171 15.1459 9.3017 15.123 9.1412 15.2354C9.02391 15.3175 8.90785 15.4311 8.77575 15.4576C8.31091 15.5527 8.18621 15.8848 8.11645 16.2885C8.07509 16.5293 7.99793 16.7663 7.91459 16.9966C7.79669 17.3238 7.55717 17.3861 7.29851 17.1528C7.13801 17.0077 7.00035 16.9089 6.75713 16.9799C6.49415 17.0565 6.36328 16.87 6.31513 16.6318C6.27377 16.4287 6.3213 16.2243 6.34229 15.9978C6.17438 16.0472 6.2071 16.2262 6.10339 16.2922C6.00956 16.3052 6.0003 16.2354 5.98486 16.1712C6.23549 15.449 6.50835 14.7372 6.938 14.0964C6.99047 14.018 7.05405 13.9477 7.16455 14.0075C7.26579 14.1545 7.2053 14.302 7.1627 14.4471C6.99479 15.0236 6.85898 15.6095 6.69354 16.1867C6.65835 16.3095 6.59107 16.4527 6.70589 16.562C6.83182 16.6818 6.95158 16.5472 7.07319 16.5194C7.22011 16.5182 7.20715 16.6651 7.27629 16.7361C7.53309 16.9219 7.62507 16.8991 7.71026 16.6108C7.79175 16.3354 7.88558 16.0644 7.96521 15.7885C8.02015 15.599 8.13189 15.4632 8.32264 15.3959C8.52141 15.3255 8.66957 15.1848 8.81896 15.0416C8.90168 14.9619 8.9702 14.8378 9.12144 14.8798C9.14984 15.0422 9.18873 15.17 9.36282 14.9755C9.39985 14.9341 9.45973 14.9131 9.50912 14.8829C9.97025 14.949 10.4351 14.878 10.8968 14.9187L10.8962 14.9218Z" fill="#F8F8F8"/>
<path d="M10.8994 16.0613C10.9105 15.978 10.8914 15.8755 11.0198 15.8632C11.2519 15.9823 11.3501 16.244 11.5766 16.3755C11.7797 16.4941 11.9624 16.6478 12.2174 16.6336C12.3057 16.6286 12.3804 16.6663 12.4273 16.7391C12.573 16.9651 12.7526 16.941 12.9563 16.8268C13.1853 16.6984 13.4458 16.6651 13.6977 16.6564C14.1477 16.6416 14.5947 16.6089 15.041 16.5521C15.1027 16.5441 15.1638 16.5471 15.212 16.5959L15.2879 16.6681C15.1323 16.8583 14.8972 16.8107 14.7008 16.8385C14.1953 16.9101 13.6959 16.9941 13.2014 17.1274C12.8495 17.2225 12.4581 17.3725 12.1884 16.9354C12.1427 16.8614 12.0353 16.9033 11.9569 16.8953C11.4254 16.8435 11.071 16.5688 10.8994 16.0613Z" fill="#FEFEFE"/>
<path d="M9.73148 15.3081C9.66975 15.2446 9.51295 15.2797 9.51975 15.1754C9.52962 15.0223 9.68889 15.1038 9.76791 15.0915C9.9852 15.0575 10.2093 15.0711 10.4309 15.0637C10.5235 15.0606 10.5883 15.0908 10.6 15.1927C10.3661 15.3495 10.276 15.5717 10.2858 15.8483C10.292 16.0113 10.284 16.1755 10.2729 16.3384C10.2661 16.4422 10.2383 16.5576 10.1136 16.5662C9.97471 16.5761 9.95804 16.4477 9.94816 16.3508C9.91606 16.0465 9.90063 15.7403 9.86791 15.4359C9.86112 15.3754 9.89878 15.218 9.73148 15.3075V15.3081Z" fill="#FEFEFE"/>
<path d="M3.51877 15.1823C3.20579 15.3187 2.88232 15.2379 2.56317 15.2261C2.47366 15.2231 2.38415 15.1977 2.27241 15.1792C2.33044 15.2373 2.36933 15.2768 2.40822 15.3157C2.15697 15.3305 1.91746 15.2076 1.65386 15.2792C1.50571 15.3194 1.502 15.157 1.50138 15.0434C1.49521 14.3921 1.48966 13.7409 1.48286 13.0896C1.48163 12.9884 1.47854 12.8865 1.47607 12.7853L1.55571 11.6797C1.62485 11.6772 1.63905 11.7229 1.63781 11.7772C1.62979 12.1822 1.66374 12.5883 1.61867 12.9927C1.62176 13.5526 1.6304 14.1125 1.62546 14.6724C1.623 14.9533 1.70942 15.0848 2.02487 15.1064C2.52242 15.1403 3.01813 15.1854 3.51754 15.1817L3.51877 15.1823Z" fill="#E7E7E7"/>
<path d="M6.03095 16.1495C6.04638 16.202 6.04638 16.2619 6.10379 16.2934C6.01243 16.578 5.85748 16.8292 5.65932 17.0465C5.41363 17.3157 5.01485 17.3496 4.75928 17.1514C4.90003 17.1397 5.02534 17.2576 5.17597 17.1984C5.13769 17.1286 5.01793 17.1805 5.00003 17.0835C5.44512 17.0193 5.67723 16.715 5.84699 16.3366C5.88341 16.2551 5.9223 16.165 6.03095 16.1489V16.1495Z" fill="#E2E2E2"/>
<path d="M12.0757 18.9491C11.9479 18.9405 11.8208 18.9232 11.693 18.9257C11.5881 18.9281 11.4683 19.0491 11.485 18.7911C11.4979 18.5868 11.5319 18.5726 11.7023 18.6176C11.7788 18.638 11.8733 18.5509 11.9498 18.6423C12.0375 18.7257 12.1535 18.7979 12.0757 18.9491Z" fill="#616161"/>
<path d="M9.85301 18.2763C9.88573 18.4682 9.78758 18.504 9.64374 18.5121C9.45731 18.5226 9.48879 18.3929 9.48694 18.2861C9.48447 18.1664 9.45793 18.0299 9.65115 18.0281C9.84622 18.0262 9.85363 18.1577 9.85301 18.2769V18.2763Z" fill="#919191"/>
<path d="M10.7266 18.9546C10.5266 18.9293 10.2507 19.1503 10.2315 18.8386C10.2155 18.5769 10.5334 18.7392 10.6933 18.6867C10.9094 18.6157 10.6902 18.9337 10.8723 18.9275C10.8131 19.0374 10.7532 18.9775 10.726 18.9546H10.7266Z" fill="#5F5F5F"/>
<path d="M12.0759 18.9491C12.0808 18.8275 11.9117 18.7775 11.95 18.6423C12.0457 18.5595 12.1611 18.6182 12.263 18.5978C12.4426 18.5614 12.4438 18.6707 12.4512 18.788C12.4599 18.9287 12.3796 18.9602 12.258 18.9485C12.1981 18.9423 12.1364 18.9485 12.0759 18.9497V18.9491Z" fill="#595959"/>
<path d="M10.6394 18.4498C10.6129 18.288 10.5012 18.1238 10.6851 18.0195C10.7647 17.9744 10.8894 17.9806 10.9487 18.0929C10.995 18.1806 10.9567 18.2602 10.8734 18.2892C10.782 18.3207 10.7073 18.3689 10.6394 18.4498Z" fill="#848484"/>
<path d="M13.1747 18.2923C13.0939 18.4812 12.9655 18.5121 12.8315 18.4096C12.6975 18.3071 12.6963 18.1552 12.8124 18.0324C12.9426 17.8947 13.055 17.9478 13.163 18.0849C13.0599 18.1602 12.9414 17.9947 12.8778 18.1423C12.8519 18.2034 12.8587 18.2639 12.9019 18.3145C12.9988 18.4275 13.0513 18.2398 13.1747 18.2917V18.2923Z" fill="#747474"/>
<path d="M11.6582 17.9966C11.8113 18.0225 11.7483 18.1917 11.8601 18.2312C11.8934 18.154 11.9274 18.075 11.9613 17.9966C12.0206 18.1744 11.949 18.3139 11.8656 18.4793C11.7218 18.3275 11.6823 18.1719 11.6588 17.9966H11.6582Z" fill="#878787"/>
<path d="M1.55545 11.0006C1.42767 10.1154 1.47335 9.2221 1.42582 8.33254C1.41964 8.22204 1.46779 8.1671 1.58632 8.15908C2.3345 8.10537 3.08084 8.0887 3.8247 8.21155C4.19386 8.27266 4.49696 8.41033 4.57721 8.86837C4.77661 8.52638 5.03341 8.31032 5.35997 8.16957C5.69394 8.02512 6.01803 8.03129 6.33409 8.20785C6.42978 8.26094 6.4804 8.30723 6.57176 8.17698C6.673 8.03315 6.87054 8.00969 7.03845 7.96709C7.54959 7.83684 8.0564 7.88808 8.55643 8.03191C8.63298 8.05352 8.72125 8.08747 8.76817 8.1455C8.87126 8.27266 8.95089 8.30476 9.07683 8.17081C9.17066 8.0708 9.31079 8.04734 9.44598 8.04055C10.2152 7.99919 10.9831 8.01401 11.7517 8.06648C12.4344 8.11278 12.9733 8.37329 13.2795 9.04986C13.5499 8.21032 13.5499 8.20414 14.4339 8.17636C14.9191 8.16093 15.421 8.04549 15.8679 8.35106C15.9278 8.39242 15.9587 8.35971 15.9945 8.32143C16.1723 8.1313 16.413 8.10846 16.647 8.10661C17.539 8.09858 18.4322 8.06833 19.3175 8.22143C19.4662 8.24735 19.6107 8.30229 19.7595 8.32699C19.8508 8.3418 19.8545 8.39736 19.8416 8.45477C19.8243 8.53317 19.7749 8.57577 19.6835 8.54181C18.6539 8.16031 17.5791 8.33872 16.5229 8.29674C16.35 8.28995 16.1753 8.32946 16.0957 8.53132C16.0537 8.6375 15.9716 8.66713 15.8796 8.577C15.6364 8.33933 15.3284 8.32884 15.0185 8.33069C14.7518 8.33254 14.4851 8.3381 14.2191 8.35353C13.7264 8.38131 13.5999 8.50848 13.54 9.00357C13.524 9.13752 13.5894 9.33815 13.4215 9.37766C13.2727 9.41285 13.2344 9.20975 13.174 9.10481C12.8746 8.58194 12.4437 8.3097 11.8338 8.2634C11.0961 8.20723 10.3602 8.17883 9.6213 8.21525C9.40956 8.22575 9.21511 8.26094 9.06695 8.4307C8.9904 8.51836 8.90151 8.55601 8.80768 8.44983C8.48976 8.09056 8.049 8.10784 7.63786 8.11401C7.27365 8.11957 6.83474 8.01956 6.63349 8.50477C6.59337 8.60169 6.49521 8.53441 6.42422 8.48749C5.84148 8.1029 5.20255 8.24056 4.80871 8.83195C4.71549 8.97147 4.65561 9.13814 4.5198 9.23691C4.48832 9.22333 4.47165 9.22086 4.47042 9.2153C4.29016 8.41156 4.28954 8.41958 3.44876 8.32699C2.85428 8.26093 2.2629 8.30353 1.66966 8.32514C1.49681 8.33131 1.56656 8.44551 1.5715 8.52021C1.61225 9.11407 1.63015 9.70792 1.62089 10.303C1.67645 10.5129 1.59928 10.7327 1.66595 10.9419V11.1247C1.54928 11.1574 1.60237 11.0339 1.55484 11.0031L1.55545 11.0006Z" fill="#F0F0F0"/>
<path d="M21.8474 9.05294C21.8319 9.03998 21.806 9.02948 21.8023 9.01405C21.6863 8.56032 21.3325 8.60415 20.9924 8.6307C20.6881 8.65477 20.3806 8.59736 20.0788 8.66712C20.0936 8.60539 20.1275 8.54304 20.0757 8.48192C20.2288 8.37883 20.3473 8.27018 20.2362 8.05906C20.1856 7.96338 20.1961 7.84239 20.3208 7.80535C20.4313 7.77263 20.4442 7.8893 20.4695 7.95968C20.5078 8.06462 20.5683 8.13623 20.6788 8.16154C20.8603 8.21648 21.0171 8.39797 21.2344 8.26833C21.3295 8.26525 21.4017 8.34982 21.4998 8.33747C21.5795 8.34241 21.6622 8.30784 21.7387 8.35476C21.7573 8.37451 21.7752 8.39365 21.7937 8.4134C21.8585 8.59489 21.9048 8.78132 21.9431 8.97084C21.9245 9.01343 21.8955 9.04368 21.848 9.05356L21.8474 9.05294Z" fill="#1E251E"/>
<path d="M20.6908 8.23257C20.3649 8.29492 20.4593 7.97577 20.3352 7.84058C20.2377 7.91342 20.2766 7.98565 20.3167 8.07454C20.45 8.36962 20.4081 8.43505 20.0753 8.48197C19.8216 8.35727 19.858 8.14738 19.9185 7.93379C19.9321 7.88688 19.9648 7.84366 19.9938 7.8023C20.2895 7.37142 20.2877 7.37265 20.5445 7.81527C20.6044 7.91836 20.6834 8.01034 20.7531 8.10726C20.7902 8.17763 20.7247 8.19739 20.6908 8.23257Z" fill="#528E3C"/>
<path d="M20.6907 8.23256C20.7117 8.19058 20.732 8.14861 20.753 8.10725C20.9426 7.91341 21.0919 7.68191 21.3537 7.55969C21.5481 7.46894 21.6222 7.54796 21.6525 7.71648C21.687 7.90538 21.7049 8.09675 21.7302 8.2875C21.6093 8.3338 21.4932 8.31775 21.3802 8.26034C21.3018 8.18503 21.4253 8.11095 21.3636 8.0023C21.337 8.12268 21.3623 8.24552 21.2487 8.298C21.0333 8.52702 20.8679 8.32763 20.6895 8.23318L20.6907 8.23256Z" fill="#56993B"/>
<path d="M21.9153 8.97394C21.7819 8.80727 21.7535 8.61775 21.7924 8.41342C21.9214 8.25045 22.0511 8.08748 22.1801 7.92389C22.4529 7.86648 22.4671 7.88438 22.4758 8.29428C22.4134 8.57516 22.3122 8.8332 22.0554 8.99802C22.0048 9.01284 21.9579 9.0079 21.9159 8.97394H21.9153Z" fill="#509E34"/>
<path d="M22.4146 8.35105C22.3671 8.19178 22.5553 7.90288 22.18 7.92387C22.3584 7.77509 22.4504 7.81398 22.5232 8.04116C22.6819 8.53871 22.5504 8.98009 22.2825 9.39925C22.1547 9.34184 22.3306 9.10726 22.1103 9.10356C22.0911 9.07948 22.0862 9.05294 22.0924 9.02331C22.2689 8.83256 22.4121 8.62575 22.4146 8.35167V8.35105Z" fill="#51823D"/>
<path d="M1.55566 11.0006L1.6674 11.1222C1.68468 11.7469 1.67481 12.3704 1.62048 12.9933C1.61678 12.6513 1.61493 12.3093 1.60875 11.9673C1.6069 11.8698 1.64085 11.7642 1.55752 11.6803C1.55752 11.4537 1.5569 11.2272 1.55628 11.0006H1.55566Z" fill="#D3D3D3"/>
<path d="M21.3849 8.2251C21.5016 8.2393 21.6238 8.22201 21.7312 8.28683C21.7337 8.30905 21.7356 8.33189 21.738 8.35412C21.6726 8.42079 21.5849 8.39115 21.5078 8.40659C21.4393 8.36461 21.2664 8.39301 21.3855 8.2251H21.3849Z" fill="#D6EAD1"/>
<path d="M1.66671 10.9395C1.56238 10.7327 1.61239 10.5154 1.62165 10.3005C1.68399 10.5104 1.6877 10.724 1.66671 10.9395Z" fill="#D3D3D3"/>
<path d="M15.2119 16.5959C14.6458 16.704 14.0705 16.7095 13.4989 16.754C13.289 16.7706 13.1025 16.8237 12.9241 16.9379C12.6667 17.1021 12.5155 17.0552 12.3686 16.7793C12.3433 16.7317 12.3346 16.6879 12.2692 16.6916C11.6451 16.728 11.3142 16.3225 11.0197 15.8626C10.9382 15.5953 10.9531 15.3286 11.0228 15.0619C11.171 14.4829 11.563 14.0415 11.8815 13.5594C11.9667 13.4303 12.5426 13.3593 12.7198 13.4322C13.0871 13.5834 13.3452 14.3656 13.1458 14.71C13.0995 14.7897 13.0421 14.8378 12.9513 14.831C12.8192 14.8218 12.7155 14.76 12.663 14.6341C12.6081 14.5026 12.5673 14.365 12.5062 14.2365C12.4439 14.1063 12.3395 14.06 12.2605 14.2119C12.0827 14.5545 11.8136 14.8458 11.7074 15.2292C11.634 15.494 11.729 15.7243 12 15.8601C12.2395 15.9799 12.4383 15.9342 12.5686 15.6903C12.6803 15.4811 12.8217 15.494 12.968 15.6366C13.1186 15.7835 13.1637 15.7076 13.1995 15.552C13.3717 14.8014 13.7211 14.1137 13.9686 13.3896C13.9816 13.3513 14.0032 13.3149 14.0267 13.2822C14.1366 13.1297 14.2835 13.0155 14.4693 13.1025C14.6773 13.2001 14.6248 13.3927 14.5576 13.5581C14.4045 13.9341 14.231 14.302 14.0841 14.6798C13.9902 14.9218 13.8742 15.1594 13.8581 15.4261C13.797 15.507 13.8452 15.6008 13.8254 15.6891C13.7378 16.0762 13.7427 16.0805 14.1489 16.0755C14.2557 16.0743 14.3693 16.1132 14.4705 16.0447C14.5063 15.357 14.8409 14.7545 15.0267 14.1094C15.0829 13.9137 15.2533 13.8334 15.4416 13.8878C15.6348 13.9433 15.6206 14.1186 15.5798 14.273C15.4798 14.6495 15.3471 15.015 15.1934 15.373C15.157 15.457 15.094 15.5687 15.1854 15.6243C15.3045 15.6965 15.3175 15.5446 15.373 15.4841C15.9305 14.8705 16.0768 14.0359 16.5175 13.3593C17.1935 12.9618 17.9263 12.7957 18.7047 12.8371C19.1171 12.8587 19.2893 13.1698 19.1195 13.5476C18.9652 13.8902 18.7207 14.1582 18.4152 14.3662C18.4522 14.4866 18.5528 14.4693 18.6201 14.4983C18.7837 14.5693 19.0084 14.6569 18.9794 14.8261C18.9473 15.0119 18.9664 15.2403 18.7417 15.3915C17.909 15.9527 17.2003 16.6601 16.5052 17.3793C16.4416 17.4454 16.3811 17.5194 16.3052 17.5676C16.1675 17.6552 16.0243 17.6312 15.9113 17.5213C15.7934 17.4065 15.8329 17.2774 15.9231 17.162C16.0879 16.9509 16.2848 16.7725 16.4885 16.6003C16.5682 16.533 16.6756 16.4533 16.6385 16.3509C16.4817 15.9206 16.7472 15.5761 16.862 15.2076C17.0293 14.6736 17.2417 14.1532 17.4392 13.6149C17.154 13.5686 17.0453 13.7094 16.97 13.9341C16.7071 14.7181 16.4577 15.5064 16.2472 16.3064C16.2015 16.4793 16.1299 16.6342 15.9243 16.5996C15.7274 16.5663 15.6792 16.4015 15.6959 16.2218C15.707 16.1015 15.7311 15.9829 15.7607 15.7866C15.5761 16.015 15.3144 16.0873 15.3416 16.3916C15.3471 16.4546 15.2588 16.5256 15.2144 16.5935L15.2119 16.5959Z" fill="#020202"/>
<path d="M22.1221 9.03314C22.1183 9.0566 22.114 9.08006 22.1103 9.1029C22.0146 9.28871 22.2449 9.61156 21.835 9.65478C22.2264 9.93627 22.2233 10.7672 21.8319 10.9974C22.0288 11.0715 22.0443 11.2265 22.0683 11.3975C22.2165 12.4592 22.1622 13.5235 22.127 14.5877C22.1196 14.8186 22.0332 14.9279 21.7727 14.9192C21.2405 14.9013 20.7078 14.9143 20.175 14.9236C19.9787 14.9273 19.8707 14.8563 19.8398 14.6544C19.8182 14.5155 19.8547 14.3217 19.617 14.3204C19.3818 14.3192 19.2546 14.4285 19.2472 14.6705C19.246 14.7075 19.2188 14.7433 19.2009 14.7853C18.9083 14.4451 18.9009 14.1846 19.1682 13.8735C19.5225 13.4618 19.4954 13.0963 19.0657 12.7438C18.9756 12.6697 18.9737 12.5957 18.9719 12.5062C18.9682 12.3117 18.9663 12.1179 18.9639 11.9234C18.9805 11.7999 19.0595 11.7666 19.1744 11.7469C19.6392 11.6678 19.6781 11.6444 20.0158 11.3542C20.1158 11.3907 20.0645 11.4759 20.0652 11.5357C20.0726 12.4574 20.0874 13.379 20.0726 14.3001C20.0682 14.581 20.1615 14.6526 20.4238 14.6377C20.8016 14.6168 21.1819 14.6143 21.5597 14.6322C21.7992 14.6433 21.8548 14.5414 21.8535 14.3297C21.8467 13.4494 21.8418 12.5685 21.8535 11.6882C21.8572 11.4314 21.7461 11.3721 21.522 11.3765C21.4097 11.3783 21.2381 11.4493 21.1936 11.3049C21.1374 11.1234 21.1504 10.9197 21.1985 10.7301C21.2152 10.6629 21.2986 10.6659 21.3584 10.6696C21.6443 10.6882 21.8486 10.69 21.8572 10.2739C21.8665 9.82824 21.6331 9.85479 21.3455 9.87145C21.2121 9.87886 21.1757 9.80664 21.164 9.68317C21.1442 9.48008 21.2695 9.45353 21.4121 9.47329C21.7455 9.51958 21.8862 9.38377 21.8467 9.05289C21.8696 9.02635 21.8924 9.00042 21.9146 8.97388C21.9578 8.97449 22.0011 8.97573 22.0443 8.97635C22.0825 8.9782 22.1079 8.99795 22.1214 9.03314H22.1221Z" fill="#020202"/>
<path d="M6.03136 16.1496C5.92457 16.3441 5.82394 16.5423 5.70851 16.7318C5.54862 16.9948 5.32886 17.1522 5.00045 17.0836C4.87204 16.9559 4.80044 16.8034 4.78685 16.6219C4.72142 15.7169 4.8813 14.8261 4.95909 13.9304C4.97328 13.768 5.07329 13.631 5.26404 13.6538C5.46281 13.6779 5.52949 13.8125 5.51035 14.0076C5.46467 14.4749 5.42516 14.9428 5.38689 15.4107C5.37083 15.6076 5.36466 15.8052 5.42392 16.0188C5.56961 15.7212 5.72024 15.4262 5.85975 15.1255C6.13137 14.5409 6.37953 13.9434 6.76226 13.4199C6.88141 13.2569 7.00549 12.9847 7.25673 13.1273C7.53638 13.2859 7.30797 13.5149 7.23883 13.7094C7.21537 13.7748 7.17957 13.8353 7.14932 13.8983C7.18759 13.9304 7.1808 13.965 7.15488 14.0008C6.90301 14.1495 6.81535 14.423 6.69683 14.657C6.45175 15.1428 6.25051 15.6509 6.03136 16.149V16.1496Z" fill="#030303"/>
<path d="M9.12125 14.8822C8.79654 15.0767 8.61443 15.4773 8.18478 15.5286C8.14342 15.5335 8.10391 15.6385 8.08231 15.7033C7.9823 16.0021 7.87489 16.299 7.79649 16.6033C7.68537 17.0367 7.54154 17.0873 7.21004 16.7854C7.13411 16.5323 7.18288 16.2873 7.25696 16.044C7.44339 15.5286 7.5971 15.0026 7.76192 14.4804C7.80081 14.3569 7.82304 14.2205 7.94094 14.1359C8.01379 13.9347 8.08478 13.7328 8.16071 13.5328C8.28417 13.2106 8.46443 13.1229 8.79963 13.1883C9.14965 13.2569 9.5046 13.3062 9.8145 13.5007C10.1046 13.6828 10.1318 13.9081 9.88981 14.1446C9.63548 14.3927 9.3762 14.6359 9.1194 14.881L9.12125 14.8822Z" fill="#030303"/>
<path d="M15.7637 14.0723C15.7693 13.584 15.7211 13.5532 15.1538 13.7223C15.1538 13.1037 15.1538 12.4975 15.1538 11.8913C15.1538 11.8018 15.218 11.7623 15.2946 11.7598C15.6477 11.7475 15.9397 11.5993 16.223 11.3197C16.2465 12.3358 16.3847 13.3136 15.8261 14.1995C15.7088 14.2044 15.7359 14.1384 15.7637 14.0723Z" fill="#020202"/>
<path d="M7.15419 14.0007L7.14863 13.8982C7.36778 13.8087 7.57581 13.6087 7.82521 13.8322C7.8925 14.0236 7.85422 14.2075 7.79249 14.3927C7.61964 14.9119 7.44433 15.4298 7.31407 15.9619C7.21839 16.1465 7.2616 16.3848 7.09307 16.5416C6.97949 16.6601 6.86158 16.8064 6.67824 16.7064C6.47946 16.5978 6.5486 16.4231 6.59737 16.2484C6.7875 15.5718 6.96714 14.8921 7.14678 14.2125C7.16406 14.1458 7.15234 14.0717 7.15419 14.0007Z" fill="#040404"/>
<path d="M5.92922 10.5864C5.91996 10.7487 5.9391 10.9129 5.88231 11.0709C5.84218 11.1814 5.78601 11.2765 5.65205 11.2827C5.50945 11.2895 5.41191 11.2117 5.37734 11.0839C5.25203 10.624 5.30635 10.1672 5.48229 9.73693C5.56501 9.53383 5.7144 9.6221 5.79095 9.78014C5.91379 10.0339 5.91873 10.3116 5.92984 10.587L5.92922 10.5864Z" fill="#050505"/>
<path d="M13.1703 15.0329C13.0561 15.1958 13.1574 15.5181 12.8086 15.3323C12.7154 15.2829 12.6777 15.3847 12.6271 15.4508C12.4697 15.6563 12.2703 15.7107 12.0332 15.5854C11.945 15.5391 11.8758 15.4681 11.8863 15.3699C11.9166 15.0878 12.0524 14.8446 12.2271 14.6304C12.2857 14.5588 12.3863 14.5297 12.4512 14.6915C12.6067 15.0773 12.7135 15.1224 13.1697 15.0329H13.1703Z" fill="#090909"/>
<path d="M12.3724 10.6067C12.3773 10.832 12.3335 11.0598 12.2131 11.2685C12.1829 11.3203 12.1359 11.3716 12.0674 11.3598C11.9859 11.3463 11.9946 11.2716 11.994 11.2141C11.9872 10.7252 11.9822 10.2363 11.9785 9.74679C11.9785 9.68814 11.9761 9.61283 12.0489 9.59925C12.1174 9.5869 12.1563 9.65481 12.1847 9.70543C12.3378 9.98137 12.3576 10.2869 12.3724 10.6067Z" fill="#141414"/>
<path d="M13.915 15.5533C14.0533 15.2434 14.0953 14.8884 14.3521 14.6347C14.5188 14.6304 14.6928 14.6181 14.5959 14.8779C14.4373 15.2119 14.3342 15.5663 14.2268 15.9187C14.1959 15.9496 14.1564 15.9601 14.1157 15.9533C14.0101 15.9348 13.8632 16.0157 13.8051 15.9052C13.7403 15.7811 13.8175 15.6527 13.9156 15.5539L13.915 15.5533Z" fill="#090909"/>
<path d="M18.9699 10.1771C18.9699 10.0345 18.9681 9.89249 18.9705 9.74989C18.9718 9.69125 18.9631 9.62211 19.036 9.59495C19.1008 9.57087 19.152 9.60668 19.2008 9.6468C19.4434 9.84805 19.4502 10.5777 19.2088 10.7759C19.0915 10.8722 18.9971 10.8679 18.9853 10.695C18.9736 10.5228 18.9829 10.3499 18.9829 10.1771H18.9699Z" fill="#0E0E0E"/>
<path d="M15.1438 10.1924C15.1438 10.0597 15.1389 9.92638 15.1457 9.79366C15.1494 9.7202 15.113 9.61278 15.2296 9.59426C15.3191 9.58007 15.3803 9.64982 15.4296 9.71588C15.5852 9.92453 15.5951 10.4665 15.45 10.6888C15.3982 10.7684 15.3383 10.853 15.234 10.8289C15.1265 10.8042 15.1593 10.6986 15.1574 10.6215C15.1537 10.4783 15.1562 10.335 15.1562 10.1918H15.1432L15.1438 10.1924Z" fill="#060606"/>
<path d="M10.8964 14.9217C10.8427 14.9921 10.7724 15.0125 10.6847 15.0106C10.3304 15.0038 9.97602 14.9995 9.62107 14.9995C9.53711 14.9995 9.48032 14.989 9.5081 14.8859C9.69268 14.6729 9.93405 14.6569 10.1927 14.6766C10.3631 14.6896 10.5372 14.6927 10.7057 14.6698C10.9434 14.6371 10.9508 14.7495 10.8952 14.9223L10.8964 14.9217Z" fill="#0D0D0D"/>
<path d="M7.96449 13.3161C7.96449 12.8883 7.96449 12.4654 7.96449 12.042C7.96449 11.9691 7.96757 11.8901 8.05832 11.8759C8.13486 11.8642 8.19536 11.9049 8.23302 11.9734C8.35216 12.1883 8.22684 13.1266 8.05338 13.3019C8.0435 13.3124 8.01819 13.3081 7.96387 13.3161H7.96449Z" fill="#1C1C1C"/>
<path d="M17.8489 11.0388C17.8354 11.2116 17.9329 11.4271 17.5934 11.4203C17.3193 11.4147 17.3242 11.2672 17.3372 11.0888C17.3508 10.9079 17.2532 10.674 17.6076 10.674C17.9286 10.674 17.8329 10.8758 17.8483 11.0382L17.8489 11.0388Z" fill="#0F0F0F"/>
<path d="M10.8956 11.0622C10.8993 11.2684 10.9549 11.4505 10.6444 11.4431C10.3727 11.437 10.3684 11.2913 10.3857 11.1129C10.403 10.9363 10.2962 10.6949 10.6549 10.6949C11.0104 10.6949 10.861 10.9345 10.8962 11.0622H10.8956Z" fill="#111111"/>
<path d="M7.95123 10.1308C7.95123 10.0388 7.95 9.94741 7.95123 9.85543C7.95247 9.77518 7.93765 9.67517 8.03395 9.64554C8.13766 9.61344 8.2068 9.68814 8.25186 9.77333C8.37965 10.0165 8.3636 10.2647 8.25927 10.5092C8.22162 10.5968 8.1463 10.666 8.04198 10.64C7.93827 10.6147 7.95617 10.5147 7.9537 10.4357C7.95061 10.3338 7.95308 10.232 7.95308 10.1301H7.95123V10.1308Z" fill="#0C0C0C"/>
<path d="M7.2635 15.9693C7.34005 15.3693 7.5808 14.8161 7.76538 14.2476C7.80983 14.1112 7.86168 13.9791 7.82588 13.8328C7.96107 13.897 7.84069 14.0599 7.94255 14.1365C7.75365 14.7779 7.58327 15.4248 7.33326 16.0465C7.27091 16.0563 7.23696 16.0403 7.2635 15.9693Z" fill="#E0E0E0"/>
<path d="M9.27409 11.7129C9.21359 11.6209 9.19075 11.5981 9.18149 11.5709C9.12037 11.3907 8.7753 11.3932 8.85184 11.1882C8.90802 11.0382 9.12593 10.9394 9.27409 10.7141V11.7129Z" fill="#2C2C2C"/>
<path d="M2.99316 11.2709C3.04996 11.1567 2.90797 10.94 3.12218 10.9258C3.34812 10.9104 3.3796 11.1252 3.37899 11.2981C3.37837 11.461 3.33454 11.6666 3.13144 11.6462C2.91168 11.6246 3.04317 11.4018 2.99316 11.2709Z" fill="#161616"/>
<path d="M17.627 9.89676C17.4764 9.90355 17.3356 9.92207 17.3239 9.70292C17.3122 9.47822 17.4566 9.4955 17.6011 9.48501C17.7505 9.47389 17.8536 9.48501 17.8517 9.68378C17.8505 9.86033 17.7931 9.92947 17.6264 9.89676H17.627Z" fill="#242424"/>
<path d="M10.6339 9.91228C10.4845 9.9308 10.3783 9.89808 10.3728 9.71288C10.366 9.48509 10.5252 9.52584 10.6635 9.51102C10.8327 9.49312 10.895 9.54806 10.8956 9.72708C10.8963 9.93759 10.7734 9.92339 10.6339 9.91228Z" fill="#121212"/>
<path d="M13.915 15.5533C13.8426 15.8216 13.9463 15.9434 14.2262 15.9187C14.1614 16.0478 14.0138 15.9502 13.9021 16.0465H14.4688C14.2361 16.1823 13.9755 16.0891 13.7305 16.1311C13.6218 16.1496 13.6527 16.0397 13.6675 15.9731C13.7095 15.7842 13.7539 15.5959 13.8564 15.428C13.8755 15.47 13.8953 15.5119 13.9144 15.5539L13.915 15.5533Z" fill="#DCDCDC"/>
<path d="M3.00635 9.83014C3.04339 9.72458 2.94585 9.54124 3.11561 9.52581C3.29587 9.50914 3.29216 9.69927 3.29587 9.82212C3.30081 9.96287 3.27735 10.1586 3.1008 10.1437C2.95017 10.1314 3.03783 9.94064 3.00635 9.83014Z" fill="#0D0D0D"/>
<path d="M5.57227 15.2298C5.5877 15.0853 5.6019 14.9754 5.61116 14.8649C5.62227 14.7285 5.73092 14.7229 5.81055 14.7483C5.92414 14.7853 5.83833 14.8655 5.80808 14.9155C5.74697 15.0174 5.70869 15.1372 5.57227 15.2291V15.2298Z" fill="#232323"/>
<path d="M15.7636 14.0724L15.8259 14.1996C15.8241 14.3594 15.7167 14.4681 15.6395 14.594C15.6124 14.4014 15.6963 14.2391 15.763 14.0724H15.7636Z" fill="#3C3C3C"/>
<path d="M14.5959 14.8779C14.6928 14.6186 14.4545 14.6946 14.3521 14.6347C14.4354 14.5409 14.5471 14.5402 14.6237 14.6118C14.707 14.6896 14.6891 14.7977 14.5959 14.8779Z" fill="#DCDCDC"/>
<path d="M7.26351 15.9694L7.33327 16.0465C7.31043 16.2959 7.19375 16.5299 7.21166 16.7861C7.10486 16.7373 7.1919 16.5947 7.09375 16.5416C7.15054 16.3509 7.20734 16.1601 7.26413 15.9688L7.26351 15.9694Z" fill="#C0C0C0"/>
<path d="M21.3851 8.22512C21.3135 8.36155 21.4283 8.37266 21.5079 8.40661C21.3906 8.44365 21.3202 8.37081 21.2505 8.29673C21.2665 8.23994 21.2943 8.18315 21.2962 8.12574C21.298 8.0566 21.1511 7.97758 21.3128 7.92202C21.3635 7.90474 21.4307 7.83683 21.4684 7.91153C21.5067 7.98807 21.5203 8.08438 21.4493 8.16277C21.4295 8.18438 21.4073 8.20352 21.3863 8.22389L21.3851 8.22512Z" fill="#1B4314"/>
<path d="M22.1221 9.03321C22.0962 9.01407 22.0708 8.99555 22.0449 8.97642C22.1949 8.78381 22.3184 8.57516 22.4147 8.35107C22.4931 8.65418 22.3758 8.87332 22.1215 9.03321H22.1221Z" fill="#1A490E"/>
<path d="M17.3032 15.7014C17.3563 15.5452 17.3995 15.4273 17.4366 15.3076C17.5407 14.9713 17.7644 14.8491 18.1076 14.9409C18.1557 14.9539 18.2162 14.9483 18.2354 15.0051C18.2594 15.0779 18.2039 15.1156 18.1508 15.1458C17.8712 15.3051 17.6489 15.5496 17.3032 15.7014Z" fill="#F0F0F0"/>
<path d="M17.9507 14.0217C17.9655 13.5142 18.0599 13.4142 18.5019 13.4476C18.3427 13.6717 18.1618 13.8494 17.9507 14.0217Z" fill="#E7E7E7"/>
<path d="M8.38672 14.6897C8.45833 14.478 8.53796 14.3002 8.57747 14.1137C8.6429 13.8075 8.79106 13.6952 9.09108 13.8329C9.15157 13.8606 9.25466 13.831 9.2596 13.9236C9.26207 13.9687 9.20034 14.0279 9.15404 14.0625C8.95403 14.2094 8.77995 14.3804 8.64044 14.586C8.58858 14.6625 8.51697 14.6872 8.38672 14.6897Z" fill="#EFEFEF"/>
</g>
<defs>
<clipPath id="clip0_506_62">
<rect width="24.0216" height="24" fill="white"/>
</clipPath>
</defs>
</svg>
