<svg width="24" height="24" viewBox="0 0 24 24" fill="none" xmlns="http://www.w3.org/2000/svg">
<path d="M12 24C18.6274 24 24 18.6274 24 12C24 5.37258 18.6274 0 12 0C5.37258 0 0 5.37258 0 12C0 18.6274 5.37258 24 12 24Z" fill="#414CDF"/>
<path d="M16.8835 12.664C15.163 13.5814 13.3676 14.5417 11.9809 15.2848L7.11846 12.664C8.87909 15.2901 10.3461 17.4764 11.9809 19.8961C13.6187 17.4818 15.4275 14.8178 16.8835 12.664ZM16.6965 11.9396L11.9756 9.41028L7.31617 11.9211L11.973 14.4532L16.6965 11.9396ZM11.9809 8.59992L16.8835 11.1912L12.0023 4.0155L7.11846 11.2073L11.9809 8.59992Z" fill="white"/>
<path d="M11.981 15.2848L7.11848 12.664C8.87911 15.2901 11.981 19.8961 11.981 19.8961V15.2848ZM11.9756 9.41028L7.31619 11.9211L11.973 14.4532L11.9756 9.41028ZM11.981 8.60011L12.0023 4.0155L7.11848 11.2073L11.981 8.60011Z" fill="white"/>
<path d="M16.6965 11.9398L11.9754 12.3288L7.31591 11.9237L11.973 14.456L16.6965 11.9398Z" fill="white"/>
<path d="M11.9756 12.3288L7.31616 11.9237L11.973 14.456L11.9756 12.3288Z" fill="white"/>
</svg>
