<svg width="24" height="24" viewBox="0 0 24 24" fill="none" xmlns="http://www.w3.org/2000/svg">
<circle cx="12" cy="12" r="12" fill="white"/>
<path d="M8.116 13.596L12 17.48L15.8864 13.5944L18.1464 15.8544L12 22L5.856 15.856L8.116 13.596ZM2 12L4.26 14.26L6.52 12.0008L4.26 9.7408L2 12ZM8.116 10.404L12 6.52L15.8856 10.4056L18.1472 8.1472L18.1464 8.1456L12 2L5.856 8.144L5.8528 8.1472L8.116 10.404ZM17.48 11.9992L19.74 14.2592L22 11.9992L19.74 9.7392L17.48 11.9992Z" fill="#F3BA2F"/>
<path d="M14.292 12.0041H14.2928L12 14.2969L10.3048 12.6025L10.1104 12.4081L9.70877 12.0065L9.70557 12.0033L9.70877 12.0001L12 9.70808L14.2936 12.0017L14.2944 12.0033L14.292 12.0041Z" fill="#F3BA2F"/>
</svg>
