<svg width="24" height="24" viewBox="0 0 24 24" fill="none" xmlns="http://www.w3.org/2000/svg">
<path d="M12 24C18.6274 24 24 18.6274 24 12C24 5.37258 18.6274 0 12 0C5.37258 0 0 5.37258 0 12C0 18.6274 5.37258 24 12 24Z" fill="white"/>
<path d="M18.5322 8.02001H16.415C16.2929 8.01938 16.1723 7.993 16.0612 7.9426C15.95 7.89219 15.8508 7.8189 15.7699 7.72751L14.9112 6.75912C14.8481 6.68826 14.7707 6.63156 14.6841 6.59273C14.5974 6.5539 14.5036 6.53382 14.4086 6.53381C14.3132 6.53425 14.2188 6.5545 14.1316 6.59329C14.0444 6.63207 13.9663 6.68854 13.9021 6.75912L13.166 7.58917C13.0474 7.72424 12.9014 7.83252 12.7376 7.9068C12.5739 7.98109 12.3961 8.01968 12.2163 8.02001H0.629215C0.295146 8.97636 0.0837241 9.97112 0 10.9805H10.938C11.0328 10.9804 11.1266 10.9611 11.2136 10.9237C11.3007 10.8864 11.3793 10.8317 11.4446 10.7632L12.4656 9.69989C12.5274 9.6319 12.6024 9.5772 12.6861 9.53915C12.7698 9.50109 12.8604 9.48047 12.9523 9.47854H12.9919C13.0874 9.47849 13.1819 9.49852 13.2692 9.53734C13.3565 9.57615 13.4346 9.63288 13.4984 9.70384L14.3572 10.6722C14.4375 10.7642 14.5367 10.8379 14.6479 10.8884C14.7592 10.9388 14.88 10.9649 15.0022 10.9647H23.9299C23.8468 9.95487 23.634 8.95987 23.2968 8.0042H18.548L18.5322 8.02001Z" fill="black"/>
<path d="M6.61661 17.206C6.71134 17.2057 6.80502 17.1862 6.89206 17.1489C6.97909 17.1115 7.05769 17.057 7.12315 16.9886L8.14018 15.9254C8.20376 15.8608 8.2795 15.8094 8.36303 15.7741C8.44656 15.7388 8.53624 15.7204 8.62693 15.7198H8.67046C8.76592 15.7203 8.86024 15.7405 8.94744 15.7793C9.03464 15.8181 9.11281 15.8746 9.177 15.9451L10.0357 16.9135C10.1155 17.0052 10.2139 17.0787 10.3245 17.1292C10.4351 17.1796 10.5552 17.2058 10.6768 17.206H22.7823C23.2387 16.2584 23.5687 15.2551 23.7637 14.2218H12.1529C12.0311 14.2219 11.9106 14.1962 11.7994 14.1465C11.6883 14.0968 11.5889 14.0241 11.5079 13.9332L10.6491 12.9569C10.5858 12.885 10.5078 12.8274 10.4205 12.7879C10.3332 12.7484 10.2385 12.7279 10.1426 12.7277C10.0472 12.7274 9.95291 12.7477 9.86616 12.7873C9.77941 12.8269 9.70226 12.8847 9.64001 12.9569L8.90394 13.787C8.78494 13.9229 8.63836 14.0319 8.47393 14.1069C8.30949 14.1818 8.13098 14.221 7.95023 14.2218H0.166168C0.361209 15.2551 0.691164 16.2584 1.14759 17.206H6.61661Z" fill="black"/>
<path d="M15.2001 4.78274C15.2955 4.78269 15.3898 4.7634 15.4776 4.72605C15.5653 4.68869 15.6445 4.63403 15.7106 4.56534L16.7276 3.50603C16.7905 3.44019 16.866 3.3877 16.9496 3.3517C17.0333 3.31571 17.1233 3.29694 17.2144 3.29654H17.2579C17.3538 3.29673 17.4485 3.31727 17.5359 3.35679C17.6232 3.39631 17.7011 3.45392 17.7645 3.52579L18.6192 4.49419C18.7007 4.58447 18.8002 4.65676 18.9113 4.70645C19.0224 4.75613 19.1426 4.78211 19.2643 4.78274H21.5675C20.4483 3.29735 18.9988 2.09209 17.3333 1.26207C15.6679 0.432056 13.8322 0 11.9709 0C10.1097 0 8.27394 0.432056 6.60852 1.26207C4.94311 2.09209 3.49361 3.29735 2.37442 4.78274H15.2001Z" fill="black"/>
<path d="M10.5819 20.1705H7.41608C7.2945 20.1703 7.17438 20.1442 7.06379 20.0937C6.9532 20.0432 6.85473 19.9697 6.77499 19.878L5.93604 18.9096C5.87186 18.8391 5.79368 18.7826 5.70648 18.7438C5.61928 18.705 5.52496 18.6848 5.4295 18.6843C5.33456 18.6843 5.24069 18.7044 5.15407 18.7432C5.06745 18.7821 4.99003 18.8388 4.92692 18.9096L4.1869 19.7555C4.06754 19.8907 3.92079 19.999 3.75638 20.0732C3.59197 20.1475 3.41363 20.1861 3.23319 20.1863H3.1857C4.3088 21.3896 5.66782 22.3492 7.1782 23.0053C8.68858 23.6614 10.318 24 11.965 24C13.6121 24 15.2415 23.6614 16.7519 23.0053C18.2622 22.3492 19.6213 21.3896 20.7444 20.1863L10.5819 20.1705Z" fill="black"/>
</svg>
