<svg width="24" height="24" viewBox="0 0 24 24" fill="none" xmlns="http://www.w3.org/2000/svg">
<path d="M12 24C18.6274 24 24 18.6274 24 12C24 5.37258 18.6274 0 12 0C5.37258 0 0 5.37258 0 12C0 18.6274 5.37258 24 12 24Z" fill="white"/>
<g clip-path="url(#clip0_248_6)">
<path d="M19.4299 5.2421C18.9863 4.73503 18.4889 4.29135 17.9234 3.9403C18.1428 4.14995 18.328 4.38399 18.5426 4.60339C20.2734 6.37814 20.8585 8.50393 20.4928 10.9223C20.2637 12.4483 19.7225 13.872 19.0301 15.247C18.8156 15.6127 18.6255 15.993 18.3719 16.3343C17.7771 17.1387 17.0896 17.7726 15.9731 17.5727C15.8609 17.5239 15.7439 17.48 15.6415 17.4215C14.8468 16.9632 14.5884 15.9637 15.0223 15.0471C15.1491 14.7838 15.3246 14.5449 15.4806 14.3011C15.5001 14.2865 15.5245 14.2767 15.5343 14.2572C16.5923 12.7506 17.4699 11.1514 17.9867 9.3718C18.2403 8.4893 18.406 7.58243 18.2159 6.67068C17.8258 4.80817 16.5679 3.60875 15.037 2.62874C14.8858 2.54098 14.7444 2.41422 14.5835 2.37033C13.701 2.13143 12.8039 1.98516 11.8824 1.99978C11.3461 2.00953 10.8098 2.04366 10.2686 2.15093C10.3417 2.24357 10.4295 2.23382 10.5026 2.25819C11.7069 2.61412 12.8575 3.08218 13.8278 3.91592C14.1983 4.23772 14.5591 4.56926 14.8858 4.93494C14.9394 5.00807 14.9882 5.08121 15.0418 5.15434C15.6025 5.9247 15.8805 6.77794 15.8317 7.73357C15.7927 8.4503 15.5684 9.11339 15.3002 9.76673C14.8322 10.7516 14.2276 11.6585 13.6133 12.5556C13.2671 13.0627 12.877 13.5454 12.604 14.1012C11.7264 15.8954 12.0872 17.9091 13.5401 19.1816C14.1788 19.7375 14.9053 20.1129 15.7683 20.186C15.7927 20.1958 15.8122 20.2104 15.8366 20.2153C17.1237 20.3177 18.2256 19.9032 19.152 19.0061C19.191 18.972 19.23 18.9476 19.2642 18.9086C20.9853 17.0656 21.897 14.8764 21.9897 12.3655C22.0872 9.65946 21.2242 7.28013 19.4299 5.2421Z" fill="url(#paint0_linear_248_6)"/>
<path d="M11.4098 20.932C10.5565 20.4688 9.8252 19.8496 9.16698 19.1426C9.13773 19.1036 9.11335 19.0597 9.08409 19.0207C8.4015 18.1724 8.07971 17.207 8.17234 16.1148C8.2211 15.5005 8.42588 14.93 8.63066 14.3596C9.25474 13.0188 10.1275 11.834 10.9564 10.62C11.9315 9.1865 12.2143 7.64092 11.4195 6.05145C10.7662 4.73989 9.64967 3.98904 8.18209 3.79889C6.86079 3.65749 5.75889 4.11093 4.81788 5.01781C3.10165 6.77792 2.17527 8.90371 2.02412 11.3464C1.84372 14.267 2.76522 16.8121 4.7545 18.9622C5.12505 19.3669 5.53948 19.7131 5.91978 19.9276C5.80764 19.796 5.63699 19.5766 5.44197 19.3815C4.24743 18.2065 3.62822 16.7584 3.43319 15.1202C3.27229 13.7648 3.55996 12.4532 3.95976 11.166C4.2133 10.3469 4.56922 9.57168 4.93002 8.79645C5.24694 8.26988 5.52485 7.71893 5.94416 7.25574C6.52924 6.60727 7.21671 6.2221 8.12846 6.45613C9.07434 6.94857 9.41076 7.82619 9.04021 8.80133C8.91832 9.11824 8.70379 9.37665 8.53314 9.66432C7.30447 11.3611 6.32446 13.1797 5.86128 15.2421C5.63699 16.2562 5.61262 17.2655 6.05143 18.2406C6.68039 19.6302 7.74328 20.6248 9.01583 21.4147C9.17673 21.5463 9.35713 21.6292 9.56191 21.678C10.2591 21.8437 10.9661 21.951 11.6828 21.9851C12.3654 22.0144 13.0431 21.9705 13.7111 21.8194C13.6038 21.7657 13.4966 21.7316 13.3844 21.6975C12.7067 21.4976 12.0339 21.2733 11.4098 20.932Z" fill="url(#paint1_linear_248_6)"/>
</g>
<defs>
<linearGradient id="paint0_linear_248_6" x1="2.62307" y1="11.115" x2="22.1448" y2="11.115" gradientUnits="userSpaceOnUse">
<stop stop-color="#0082F8"/>
<stop offset="1" stop-color="#02F1FE"/>
</linearGradient>
<linearGradient id="paint1_linear_248_6" x1="2.6234" y1="12.8863" x2="22.1452" y2="12.8863" gradientUnits="userSpaceOnUse">
<stop stop-color="#0082F8"/>
<stop offset="1" stop-color="#02F1FE"/>
</linearGradient>
<clipPath id="clip0_248_6">
<rect width="19.9951" height="20" fill="white" transform="translate(2 2)"/>
</clipPath>
</defs>
</svg>
