<svg width="24" height="24" viewBox="0 0 24 24" fill="none" xmlns="http://www.w3.org/2000/svg">
<circle cx="12" cy="12" r="12" fill="white"/>
<g clip-path="url(#clip0_1012_635)">
<path d="M16.6294 8.84073C16.4558 8.74816 16.2622 8.69974 16.0654 8.69974C15.8687 8.69974 15.675 8.74816 15.5015 8.84073L12.8696 10.3916L11.0837 11.3786L8.49887 12.9295C8.3253 13.0221 8.13161 13.0705 7.9349 13.0705C7.73819 13.0705 7.5445 13.0221 7.37093 12.9295L5.35004 11.7076C5.17837 11.6063 5.03606 11.462 4.93716 11.2889C4.83827 11.1158 4.78619 10.92 4.78607 10.7206V8.37076C4.78757 8.1717 4.84023 7.97637 4.93899 7.80353C5.03775 7.6307 5.1793 7.48616 5.35004 7.38381L7.37093 6.20888C7.5445 6.11631 7.73819 6.06789 7.9349 6.06789C8.13161 6.06789 8.3253 6.11631 8.49887 6.20888L10.5198 7.43081C10.6914 7.53211 10.8337 7.67641 10.9326 7.84949C11.0315 8.02256 11.0836 8.21842 11.0837 8.41776V9.96867L12.8696 8.93473V7.33682C12.8681 7.13776 12.8155 6.94243 12.7167 6.76959C12.6179 6.59675 12.4764 6.45222 12.3057 6.34987L8.54587 4.14099C8.3723 4.04842 8.17861 4 7.9819 4C7.78518 4 7.5915 4.04842 7.41793 4.14099L3.56414 6.39687C3.39149 6.48493 3.24706 6.61976 3.14734 6.78595C3.04763 6.95215 2.99663 7.14303 3.00017 7.33682V11.7546C3.00167 11.9536 3.05432 12.149 3.15309 12.3218C3.25185 12.4946 3.3934 12.6392 3.56414 12.7415L7.37093 14.9504C7.5445 15.043 7.73819 15.0914 7.9349 15.0914C8.13161 15.0914 8.3253 15.043 8.49887 14.9504L11.0837 13.4465L12.8696 12.4125L15.4545 10.9086C15.6281 10.816 15.8217 10.7676 16.0184 10.7676C16.2152 10.7676 16.4088 10.816 16.5824 10.9086L18.6033 12.0836C18.775 12.1849 18.9173 12.3292 19.0162 12.5022C19.1151 12.6753 19.1672 12.8712 19.1673 13.0705V15.4204C19.1658 15.6194 19.1131 15.8148 19.0144 15.9876C18.9156 16.1604 18.774 16.305 18.6033 16.4073L16.6294 17.5822C16.4558 17.6748 16.2622 17.7232 16.0654 17.7232C15.8687 17.7232 15.675 17.6748 15.5015 17.5822L13.4806 16.4073C13.3089 16.306 13.1666 16.1617 13.0677 15.9886C12.9688 15.8156 12.9167 15.6197 12.9166 15.4204V13.9165L11.1307 14.9504V16.5013C11.1322 16.7004 11.1849 16.8957 11.2836 17.0685C11.3824 17.2414 11.524 17.3859 11.6947 17.4883L15.5015 19.6971C15.675 19.7897 15.8687 19.8381 16.0654 19.8381C16.2622 19.8381 16.4558 19.7897 16.6294 19.6971L20.4362 17.4883C20.6079 17.387 20.7502 17.2426 20.8491 17.0696C20.948 16.8965 21.0001 16.7006 21.0002 16.5013V12.0366C20.9987 11.8375 20.946 11.6422 20.8473 11.4693C20.7485 11.2965 20.6069 11.152 20.4362 11.0496L16.6294 8.84073Z" fill="#8247E5"/>
</g>
<defs>
<clipPath id="clip0_1012_635">
<rect width="18" height="15.8381" fill="white" transform="translate(3 4)"/>
</clipPath>
</defs>
</svg>
