<svg width="24" height="24" viewBox="0 0 24 24" fill="none" xmlns="http://www.w3.org/2000/svg">
<circle cx="12" cy="12" r="12" fill="white"/>
<path d="M11.5762 5C11.1188 5.00046 10.6803 5.18253 10.3571 5.50619L5.29528 10.5681C5.10852 10.7535 5.00242 11.0051 5 11.2683C4.99973 11.3975 5.02493 11.5254 5.07414 11.6448C5.12336 11.7643 5.19564 11.8728 5.28684 11.9643L8.6108 15.2883V9.40383C8.6108 9.1935 8.69435 8.99179 8.84307 8.84307C8.9918 8.69435 9.19351 8.6108 9.40383 8.6108H16.3892L20 5H11.5762Z" fill="#4A21EF"/>
<path d="M8.6108 16.3892H15.592C15.8034 16.3892 16.0062 16.3052 16.1557 16.1557C16.3052 16.0062 16.3892 15.8034 16.3892 15.5919V9.71173L19.7089 13.0146C19.8009 13.1057 19.874 13.2141 19.9239 13.3336C19.9739 13.453 19.9997 13.5811 20 13.7106C20.0004 13.8402 19.9749 13.9685 19.9249 14.0881C19.8749 14.2076 19.8015 14.3159 19.7089 14.4066L14.6471 19.4685C14.4915 19.634 14.304 19.7664 14.096 19.8578C13.888 19.9491 13.6636 19.9975 13.4364 20H5L8.6108 16.3892Z" fill="#4A21EF"/>
</svg>
