<svg width="24" height="24" viewBox="0 0 24 24" fill="none" xmlns="http://www.w3.org/2000/svg">
<path d="M11.9993 23.9985C18.6263 23.9985 23.9985 18.6263 23.9985 11.9993C23.9985 5.37225 18.6263 0 11.9993 0C5.37225 0 0 5.37225 0 11.9993C0 18.6263 5.37225 23.9985 11.9993 23.9985Z" fill="#070A0E"/>
<path fill-rule="evenodd" clip-rule="evenodd" d="M6.96399 16.0039C6.60769 15.786 6.38832 15.3973 6.38832 14.9792V12.647C6.38832 12.5572 6.41188 12.4718 6.45752 12.3953C6.59592 12.1567 6.90363 12.0743 7.14214 12.2156L12.4041 15.2839C12.7119 15.4635 12.9018 15.7919 12.9018 16.1496V18.5657C12.9018 18.6761 12.8709 18.7851 12.8134 18.8793C12.6397 19.1634 12.2702 19.2518 11.986 19.078L6.96252 16.0039H6.96399ZM14.8084 11.5767C15.1161 11.7563 15.3061 12.0846 15.3061 12.4424V17.3437C15.3061 17.4894 15.228 17.6219 15.1014 17.6926L13.9486 18.3419C13.9339 18.3493 13.9177 18.3566 13.903 18.361V15.6387C13.903 15.2869 13.7174 14.96 13.4156 14.7774L8.79406 12.0125V8.93977C8.79406 8.84996 8.81762 8.76456 8.86326 8.688C9.00166 8.44949 9.30937 8.36704 9.54788 8.50838L14.8084 11.5767ZM17.1111 7.95627C17.4203 8.13442 17.6102 8.46569 17.6102 8.82346V15.9833C17.6102 16.1305 17.5292 16.2659 17.3997 16.3351L16.3087 16.9241V11.9388C16.3087 11.587 16.1232 11.2616 15.8228 11.0805L11.0997 8.24631V5.33116C11.0997 5.24134 11.1232 5.15595 11.1659 5.07939C11.3043 4.84088 11.612 4.75843 11.8506 4.8983L17.1111 7.9548V7.95627Z" fill="#00D395"/>
</svg>
