<svg width="24" height="24" viewBox="0 0 24 24" fill="none" xmlns="http://www.w3.org/2000/svg">
<g clip-path="url(#clip0_242_94)">
<path d="M12 24C18.6274 24 24 18.6274 24 12C24 5.37258 18.6274 0 12 0C5.37258 0 0 5.37258 0 12C0 18.6274 5.37258 24 12 24Z" fill="#111111"/>
<path d="M8.26476 3.78027H6.77148V5.27355H8.26476V3.78027Z" fill="#5555FF"/>
<path d="M17.2286 3.78027H15.7354V5.27355H17.2286V3.78027Z" fill="#5555FF"/>
<path d="M9.75792 5.27808H8.26465V6.77135H9.75792V5.27808Z" fill="#5555FF"/>
<path d="M15.7355 5.27808H14.2422V6.77135H15.7355V5.27808Z" fill="#5555FF"/>
<path d="M9.75792 6.77124H8.26465V8.26451H9.75792V6.77124Z" fill="#5555FF"/>
<path d="M11.2511 6.77124H9.75781V8.26451H11.2511V6.77124Z" fill="#3333DD"/>
<path d="M12.7443 6.77124H11.251V8.26451H12.7443V6.77124Z" fill="#5555FF"/>
<path d="M14.2379 6.77124H12.7446V8.26451H14.2379V6.77124Z" fill="#3333DD"/>
<path d="M15.7355 6.77124H14.2422V8.26451H15.7355V6.77124Z" fill="#5555FF"/>
<path d="M8.26476 8.26465H6.77148V9.75792H8.26476V8.26465Z" fill="#5555FF"/>
<path d="M9.75792 8.26465H8.26465V9.75792H9.75792V8.26465Z" fill="#5555FF"/>
<path d="M11.2511 8.26465H9.75781V9.75792H11.2511V8.26465Z" fill="#5555FF"/>
<path d="M12.7443 8.26465H11.251V9.75792H12.7443V8.26465Z" fill="#5555FF"/>
<path d="M14.2379 8.26465H12.7446V9.75792H14.2379V8.26465Z" fill="#5555FF"/>
<path d="M15.7355 8.26465H14.2422V9.75792H15.7355V8.26465Z" fill="#5555FF"/>
<path d="M17.2286 8.26465H15.7354V9.75792H17.2286V8.26465Z" fill="#5555FF"/>
<path d="M6.77111 9.75781H5.27783V11.2511H6.77111V9.75781Z" fill="#5555FF"/>
<path d="M8.26476 9.75781H6.77148V11.2511H8.26476V9.75781Z" fill="#5555FF"/>
<path d="M9.75792 9.75781H8.26465V11.2511H9.75792V9.75781Z" fill="#F4F4F4"/>
<path d="M11.2511 9.75781H9.75781V11.2511H11.2511V9.75781Z" fill="#F4F4F4"/>
<path d="M12.7443 9.75781H11.251V11.2511H12.7443V9.75781Z" fill="#5555FF"/>
<path d="M14.2379 9.75781H12.7446V11.2511H14.2379V9.75781Z" fill="#5555FF"/>
<path d="M15.7355 9.75781H14.2422V11.2511H15.7355V9.75781Z" fill="#F4F4F4"/>
<path d="M17.2286 9.75781H15.7354V11.2511H17.2286V9.75781Z" fill="#F4F4F4"/>
<path d="M18.7218 9.75781H17.2285V11.2511H18.7218V9.75781Z" fill="#5555FF"/>
<path d="M6.77111 11.2512H5.27783V12.7445H6.77111V11.2512Z" fill="#5555FF"/>
<path d="M8.26476 11.2512H6.77148V12.7445H8.26476V11.2512Z" fill="#5555FF"/>
<path d="M9.75792 11.2512H8.26465V12.7445H9.75792V11.2512Z" fill="#F4F4F4"/>
<path d="M11.2511 11.2512H9.75781V12.7445H11.2511V11.2512Z" fill="#FF55FF"/>
<path d="M12.7443 11.2512H11.251V12.7445H12.7443V11.2512Z" fill="#5555FF"/>
<path d="M14.2379 11.2512H12.7446V12.7445H14.2379V11.2512Z" fill="#5555FF"/>
<path d="M15.7355 11.2512H14.2422V12.7445H15.7355V11.2512Z" fill="#F4F4F4"/>
<path d="M17.2286 11.2512H15.7354V12.7445H17.2286V11.2512Z" fill="#FF55FF"/>
<path d="M18.7218 11.2512H17.2285V12.7445H18.7218V11.2512Z" fill="#5555FF"/>
<path d="M5.27355 12.7444H3.78027V14.2377H5.27355V12.7444Z" fill="#3333DD"/>
<path d="M6.77111 12.7444H5.27783V14.2377H6.77111V12.7444Z" fill="#3333DD"/>
<path d="M8.26476 12.7444H6.77148V14.2377H8.26476V12.7444Z" fill="#3333DD"/>
<path d="M9.75792 12.7444H8.26465V14.2377H9.75792V12.7444Z" fill="#3333DD"/>
<path d="M11.2511 12.7444H9.75781V14.2377H11.2511V12.7444Z" fill="#3333DD"/>
<path d="M12.7443 12.7444H11.251V14.2377H12.7443V12.7444Z" fill="#3333DD"/>
<path d="M14.2379 12.7444H12.7446V14.2377H14.2379V12.7444Z" fill="#3333DD"/>
<path d="M15.7355 12.7444H14.2422V14.2377H15.7355V12.7444Z" fill="#3333DD"/>
<path d="M17.2286 12.7444H15.7354V14.2377H17.2286V12.7444Z" fill="#3333DD"/>
<path d="M18.7218 12.7444H17.2285V14.2377H18.7218V12.7444Z" fill="#3333DD"/>
<path d="M20.2154 12.7444H18.7222V14.2377H20.2154V12.7444Z" fill="#3333DD"/>
<path d="M8.26476 14.2422H6.77148V15.7355H8.26476V14.2422Z" fill="#3333DD"/>
<path d="M11.2511 14.2422H9.75781V15.7355H11.2511V14.2422Z" fill="#5555FF"/>
<path d="M14.2379 14.2422H12.7446V15.7355H14.2379V14.2422Z" fill="#5555FF"/>
<path d="M17.2286 14.2422H15.7354V15.7355H17.2286V14.2422Z" fill="#3333DD"/>
<path d="M8.26476 15.7354H6.77148V17.2286H8.26476V15.7354Z" fill="#3333DD"/>
<path d="M11.2511 15.7354H9.75781V17.2286H11.2511V15.7354Z" fill="#5555FF"/>
<path d="M14.2379 15.7354H12.7446V17.2286H14.2379V15.7354Z" fill="#5555FF"/>
<path d="M17.2286 15.7354H15.7354V17.2286H17.2286V15.7354Z" fill="#3333DD"/>
<path d="M11.2511 17.2288H9.75781V18.722H11.2511V17.2288Z" fill="#5555FF"/>
<path d="M14.2379 17.2288H12.7446V18.722H14.2379V17.2288Z" fill="#5555FF"/>
<path d="M9.75792 18.7219H8.26465V20.2152H9.75792V18.7219Z" fill="#5555FF"/>
<path d="M11.2511 18.7219H9.75781V20.2152H11.2511V18.7219Z" fill="#5555FF"/>
<path d="M14.2379 18.7219H12.7446V20.2152H14.2379V18.7219Z" fill="#5555FF"/>
<path d="M15.7355 18.7219H14.2422V20.2152H15.7355V18.7219Z" fill="#5555FF"/>
</g>
<defs>
<clipPath id="clip0_242_94">
<rect width="24" height="24" fill="white"/>
</clipPath>
</defs>
</svg>
