<svg width="24" height="24" viewBox="0 0 24 24" fill="none" xmlns="http://www.w3.org/2000/svg">
<path d="M12 24C18.6274 24 24 18.6274 24 12C24 5.37258 18.6274 0 12 0C5.37258 0 0 5.37258 0 12C0 18.6274 5.37258 24 12 24Z" fill="white"/>
<path d="M16.7908 4.202C16.8229 4.20579 16.8561 4.20863 16.8883 4.21147C17.1439 4.932 17.5974 5.54743 17.9639 6.20736C18.852 7.80654 19.7751 9.38679 20.6727 10.9803C20.8488 11.2937 21.1016 11.5702 21.1651 11.9423C20.9729 12.0085 20.8602 11.8551 20.7267 11.7747C18.4382 10.4056 16.1554 9.02605 13.8802 7.63517C13.6388 7.48747 13.4021 7.32556 13.1029 7.48841C10.8438 8.48447 8.51838 9.31388 6.23276 10.2446C6.0718 10.3099 5.89285 10.3989 5.72621 10.237C5.67603 9.64811 5.90895 9.10842 6.03393 8.55358C6.34543 7.17407 6.73363 5.81159 7.02903 4.42734C7.04987 4.34592 7.09531 4.27775 7.15023 4.21526L7.15686 4.19727L7.95597 4.21147C9.1234 4.71896 10.2028 5.39405 11.3285 5.98202C11.8701 6.26512 12.3994 6.57094 12.9344 6.86635C13.2686 7.05098 13.4996 6.98754 13.7609 6.72338C14.5979 5.87882 15.4226 5.021 16.2927 4.21052L16.7898 4.19916L16.7908 4.202Z" fill="#B3CEF9"/>
<path d="M7.95778 19.8681C7.68888 19.8482 7.40578 19.9742 7.15393 19.7848C6.82443 18.7083 6.7449 17.5844 6.5527 16.4832C6.24877 14.7468 6.00543 12.9999 5.73938 11.2577C5.69866 10.9936 5.56138 10.7057 5.81418 10.4643C6.10106 10.3393 6.28569 10.5552 6.47411 10.6906C7.75705 11.6166 9.02579 12.5634 10.3106 13.4866C11.6892 14.4779 13.0346 15.5127 14.4198 16.4946C14.4416 16.5789 14.399 16.6347 14.3375 16.6821C12.4003 17.609 10.5227 18.6543 8.59404 19.6002C8.38574 19.7024 8.17649 19.7952 7.95778 19.8672V19.8681Z" fill="#B296C7"/>
<path d="M13.1162 7.38148C13.333 7.18454 13.5574 7.27827 13.7458 7.40515C14.9161 8.19101 16.1555 8.8642 17.3476 9.61787C18.426 10.2996 19.5357 10.9406 20.6444 11.5778C20.8318 11.6857 20.9729 11.8495 21.1661 11.9433C21.3176 12.1232 21.1879 12.2245 21.0581 12.3258C20.989 12.3012 20.9322 12.3286 20.8754 12.3665C18.9429 13.6703 16.9878 14.9381 15.0288 16.203C14.8318 16.3299 14.651 16.5552 14.3622 16.4094C14.1587 16.2797 14.0952 16.0742 14.0801 15.8555C13.9437 13.8956 13.7165 11.9433 13.5622 9.98429C13.5082 9.29311 13.4154 8.60477 13.3614 7.91264C13.3444 7.69866 13.2118 7.55191 13.1162 7.38148Z" fill="#B2C0ED"/>
<path d="M14.5044 16.4064C16.5685 15.0572 18.6316 13.7061 20.6995 12.3616C20.7989 12.2972 20.9115 12.052 21.0574 12.3256C20.0727 14.0896 19.0889 15.8535 18.1023 17.6165C17.7331 18.2764 17.3487 18.9288 16.9908 19.5944C16.8724 19.815 16.7399 19.9305 16.488 19.8661C16.4302 19.8349 16.363 19.8112 16.3251 19.7582C15.6236 18.7725 14.9646 17.7585 14.3008 16.7482C14.2743 16.7075 14.2847 16.6545 14.3075 16.6081L14.4078 16.5087C14.4126 16.449 14.4694 16.4377 14.5044 16.4064Z" fill="#B288BC"/>
<path d="M5.96391 10.4575C5.83135 10.52 5.75655 10.6109 5.78306 10.769C5.92793 11.6231 6.07658 12.4762 6.21008 13.3311C6.36725 14.3319 6.49034 15.3393 6.66645 16.3373C6.82078 17.2074 6.94671 18.0813 7.10293 18.9505C7.15311 19.2327 7.13891 19.5072 7.15501 19.7847C6.53957 18.9278 6.0709 17.9819 5.52742 17.0815C4.65161 15.6291 3.81652 14.153 2.96533 12.6863C2.89905 12.5727 2.84508 12.4515 2.78448 12.3341L2.77407 12.0217C2.75797 11.9724 2.76839 11.9279 2.80058 11.8882C3.64136 11.357 4.53042 10.9073 5.37498 10.3818C5.47251 10.3212 5.57855 10.2786 5.69785 10.2833C5.78306 10.3468 5.9819 10.2369 5.96296 10.4566L5.96391 10.4575Z" fill="#B2A4D5"/>
<path d="M14.3084 16.6082C15.0724 17.6695 15.7958 18.7574 16.4889 19.8662C13.6456 19.8662 10.8023 19.8681 7.95898 19.869C8.09059 19.7734 8.21273 19.6579 8.35665 19.585C10.2759 18.605 12.197 17.6298 14.119 16.6564C14.1758 16.628 14.2449 16.6242 14.3084 16.6091V16.6082Z" fill="#B27AAE"/>
<path d="M16.2937 4.21436C16.3004 4.34312 16.2237 4.42834 16.1394 4.51166C15.309 5.34107 14.4768 6.16765 13.6521 7.00179C13.4911 7.16465 13.3472 7.21294 13.1304 7.09648C11.4356 6.17901 9.72847 5.28332 8.06207 4.31377C8.02136 4.2901 7.99106 4.24844 7.95508 4.2153C10.734 4.2153 13.5129 4.2153 16.2928 4.2153L16.2937 4.21436Z" fill="#B8F8FD"/>
<path d="M5.96395 10.4576C5.89767 10.3307 5.77743 10.3648 5.67044 10.3591C5.64109 10.2691 5.67517 10.2369 5.76512 10.2568C6.99883 9.88757 8.15584 9.32421 9.35357 8.86311C10.6109 8.37834 11.8626 7.87652 13.1162 7.38228C13.4211 7.35956 13.4969 7.51768 13.5205 7.80172C13.6313 9.13769 13.7743 10.4727 13.8822 11.8077C13.957 12.7375 14.1208 13.6606 14.118 14.5989C14.117 15.0392 14.2354 15.4748 14.2193 15.9217C14.2126 16.1176 14.3045 16.307 14.5052 16.4074L14.4086 16.5096C13.9229 16.4746 13.6502 16.0779 13.3018 15.8279C11.4773 14.5194 9.67454 13.1806 7.86327 11.8522C7.22985 11.3873 6.59643 10.9234 5.96395 10.4585V10.4576Z" fill="#B1B2E0"/>
<path d="M5.76431 10.2568L5.66963 10.3591C4.91596 10.7946 4.16324 11.2292 3.40957 11.6648C3.21074 11.7793 3.01948 11.91 2.78467 11.9441C3.03463 11.2595 3.43797 10.6507 3.81007 10.0372C4.6802 8.5999 5.47269 7.12002 6.33051 5.67707C6.60698 5.21123 6.70072 5.04933 7.15046 4.21802C6.93458 5.55777 6.51893 7.03291 6.21973 8.35278C6.07582 8.98905 5.91675 9.62152 5.76431 10.2568Z" fill="#B7F9FE"/>
</svg>
