<svg width="24" height="24" viewBox="0 0 24 24" fill="none" xmlns="http://www.w3.org/2000/svg">
<path d="M23.9823 11.343C23.9396 10.5438 23.8168 9.75095 23.6157 8.97633C23.4984 8.52374 23.3544 8.07852 23.1843 7.643C22.3392 5.47997 20.886 3.60776 19.0003 2.25233C17.7577 1.3571 16.3544 0.709431 14.867 0.344665C13.9288 0.11501 12.9663 -0.000708606 12.0003 3.26442e-06C11.0344 -0.000708606 10.0719 0.11501 9.13367 0.344665C7.6463 0.709604 6.24303 1.35726 5.00033 2.25233C3.1146 3.6078 1.66138 5.47998 0.815999 7.643C0.646046 8.07854 0.502019 8.52377 0.384668 8.97633C0.18353 9.75095 0.0606919 10.5438 0.0180013 11.343C0.0060013 11.5608 0 11.7798 0 12C0 12.2269 0.00633358 12.4523 0.0190002 12.6763C0.0616267 13.4526 0.179854 14.223 0.372001 14.9763C0.487541 15.4288 0.629675 15.874 0.797666 16.3097C1.63991 18.4925 3.10042 20.3823 5.00033 21.7477C6.24303 22.6427 7.6463 23.2904 9.13367 23.6553C10.0719 23.885 11.0344 24.0007 12.0003 24C12.9663 24.0007 13.9288 23.885 14.867 23.6553C16.3544 23.2906 17.7577 22.6429 19.0003 21.7477C20.9001 20.3821 22.3606 18.4923 23.203 16.3097C23.3709 15.874 23.5129 15.4288 23.6283 14.9763C23.8205 14.223 23.9387 13.4526 23.9813 12.6763C23.994 12.4523 24.0003 12.2269 24.0003 12C24.0003 11.7796 23.9943 11.5606 23.9823 11.343Z" fill="white"/>
<path d="M8.30015 11.4113L11.4115 8.29999C11.5365 8.17497 11.6067 8.00543 11.6067 7.82865C11.6067 7.65188 11.5365 7.48234 11.4115 7.35732C11.2865 7.23234 11.1169 7.16213 10.9401 7.16213C10.7634 7.16213 10.5938 7.23234 10.4688 7.35732L7.35748 10.4687C7.2325 10.5937 7.16229 10.7632 7.16229 10.94C7.16229 11.1168 7.2325 11.2863 7.35748 11.4113C7.4825 11.5363 7.65204 11.6065 7.82881 11.6065C8.00559 11.6065 8.17513 11.5363 8.30015 11.4113ZM15.6541 12.5427L12.5428 15.654C12.4178 15.779 12.3476 15.9485 12.3476 16.1253C12.3476 16.3021 12.4178 16.4716 12.5428 16.5967C12.6678 16.7216 12.8374 16.7918 13.0141 16.7918C13.1909 16.7918 13.3605 16.7216 13.4855 16.5967L16.5968 13.4853C16.7218 13.3603 16.792 13.1908 16.792 13.014C16.792 12.8372 16.7218 12.6677 16.5968 12.5427C16.5349 12.4807 16.4614 12.4315 16.3804 12.3979C16.2995 12.3644 16.2128 12.3471 16.1251 12.3471C16.0375 12.3471 15.9508 12.3644 15.8699 12.3979C15.7889 12.4315 15.7154 12.4807 15.6535 12.5427H15.6541ZM16.0078 7.05099L7.05115 16.0077C6.92617 16.1327 6.85596 16.3022 6.85596 16.479C6.85596 16.6558 6.92617 16.8253 7.05115 16.9503C7.17617 17.0753 7.34571 17.1455 7.52248 17.1455C7.69926 17.1455 7.8688 17.0753 7.99382 16.9503L16.9505 7.99365C17.0755 7.86863 17.1457 7.6991 17.1457 7.52232C17.1457 7.34555 17.0755 7.17601 16.9505 7.05099C16.8886 6.98901 16.815 6.93983 16.7341 6.90628C16.6532 6.87273 16.5664 6.85547 16.4788 6.85547C16.3912 6.85547 16.3045 6.87273 16.2235 6.90628C16.1426 6.93983 16.0691 6.98901 16.0071 7.05099H16.0078Z" fill="black"/>
</svg>
