<svg width="24" height="24" viewBox="0 0 24 24" fill="none" xmlns="http://www.w3.org/2000/svg">
<path d="M12.0002 23.9994C18.6274 23.9994 23.9999 18.627 23.9999 11.9997C23.9999 5.37245 18.6274 0 12.0002 0C5.37294 0 0.000488281 5.37245 0.000488281 11.9997C0.000488281 18.627 5.37294 23.9994 12.0002 23.9994Z" fill="url(#paint0_linear_1020_10764)"/>
<path d="M19.1674 8.20139C19.1674 10.7074 19.1674 13.2134 19.1674 15.7194C19.1724 15.7668 19.1621 15.8146 19.1379 15.8557C19.1138 15.8968 19.0771 15.9291 19.0333 15.9478C18.7302 16.1169 18.4466 16.3204 18.1434 16.4907C17.9476 16.6016 17.7649 16.728 17.5709 16.8437C17.2944 17.0057 17.031 17.1902 16.7516 17.3468C16.551 17.4583 16.3659 17.5924 16.1672 17.7063C15.8937 17.8642 15.6332 18.0469 15.3591 18.2029C15.1639 18.3145 14.9806 18.4402 14.7878 18.5589C14.509 18.7256 14.2402 18.9101 13.9572 19.0679C13.7608 19.1777 13.5787 19.3082 13.3853 19.4239C13.1088 19.5859 12.8395 19.7603 12.5672 19.93C12.5559 19.9365 12.5476 19.949 12.5357 19.9543C12.3251 20.0593 12.3453 20.019 12.3459 19.8457C12.3459 19.5366 12.3518 19.2281 12.3459 18.9196C12.3434 18.8727 12.3546 18.826 12.3781 18.7853C12.4016 18.7445 12.4363 18.7114 12.4782 18.69C12.8187 18.4812 13.1664 18.2836 13.5063 18.0736C13.9175 17.8191 14.3316 17.5693 14.7415 17.3142C15.1515 17.0591 15.5561 16.8105 15.9607 16.5548C16.2425 16.3768 16.535 16.2119 16.8156 16.0333C17.1307 15.8327 17.4641 15.6607 17.7649 15.4364C17.7756 15.4287 17.7845 15.4145 17.7957 15.4115C18.0651 15.3409 18.1007 15.1534 18.0995 14.9025C18.0888 13.3368 18.0942 11.7706 18.0942 10.2043C18.0942 10.0263 18.0942 10.0222 17.9298 10.1153C17.6213 10.2933 17.3223 10.4873 17.0079 10.654C16.5997 10.87 16.2123 11.1215 15.8047 11.3398C15.5573 11.4715 15.3158 11.6181 15.0714 11.7551C14.6929 11.9699 14.3262 12.2042 13.9501 12.4226C13.813 12.5021 13.6695 12.5691 13.5348 12.6534C13.4994 12.6703 13.4698 12.6974 13.4498 12.7312C13.4298 12.765 13.4204 12.804 13.4227 12.8432C13.4227 13.3576 13.4227 13.8725 13.4227 14.3857C13.4267 14.424 13.4183 14.4625 13.3986 14.4956C13.3789 14.5286 13.3491 14.5544 13.3135 14.5691C13.0026 14.7423 12.6977 14.925 12.3904 15.103C12.3838 15.1066 12.3737 15.103 12.3631 15.103C12.3428 15.0589 12.3372 15.0094 12.347 14.9618C12.347 14.0487 12.347 13.1357 12.347 12.2232C12.347 12.1129 12.3815 12.0571 12.4835 11.996C12.8869 11.754 13.304 11.5368 13.7033 11.287C13.8884 11.1713 14.0848 11.0681 14.2782 10.9625C14.5902 10.7922 14.8869 10.5929 15.2007 10.4286C15.6089 10.2114 15.9981 9.96341 16.4039 9.74212C16.7818 9.53625 17.1532 9.31676 17.5258 9.10081C17.8681 8.90206 18.211 8.70567 18.5516 8.50454C18.7213 8.40487 18.9075 8.33191 19.0606 8.20139C19.0749 8.18747 19.0941 8.17969 19.114 8.17969C19.134 8.17969 19.1531 8.18747 19.1674 8.20139Z" fill="#FEFEFE"/>
<path d="M4.85411 8.16016C5.02617 8.24507 5.19335 8.33955 5.35485 8.44315C5.51029 8.5446 5.68886 8.60215 5.83302 8.72496C5.85607 8.73902 5.87508 8.75883 5.88818 8.78244C5.90128 8.80604 5.90803 8.83264 5.90778 8.85964C5.90778 9.12365 5.90778 9.38763 5.90778 9.65164C5.90778 11.4497 5.90778 13.2481 5.90778 15.047C5.90778 15.1947 5.96236 15.273 6.08576 15.3537C6.3474 15.524 6.62625 15.6658 6.88017 15.8491C7.06468 15.982 7.27529 16.0787 7.46573 16.2051C7.73093 16.3783 8.01096 16.5254 8.2726 16.7052C8.45652 16.8315 8.65882 16.9312 8.84571 17.0558C9.11624 17.2338 9.40398 17.388 9.6763 17.569C9.86556 17.6954 10.0679 17.8063 10.2637 17.9214C10.3313 17.9706 10.4014 18.0163 10.4737 18.0584C10.5567 18.0976 10.5805 18.0721 10.5816 17.9932C10.5816 17.9576 10.5816 17.9214 10.5816 17.8858C10.5816 16.2483 10.5751 14.6109 10.5894 12.974C10.5894 12.7468 10.4915 12.6382 10.3248 12.5587C9.97946 12.392 9.66799 12.1654 9.32033 12.0022C9.25566 11.972 9.20168 11.9138 9.13405 11.8782C9.11621 11.8685 9.10146 11.8539 9.09149 11.8362C9.08153 11.8185 9.07675 11.7983 9.07769 11.778C9.07769 11.422 9.07769 11.0625 9.07769 10.7047C9.07769 10.6205 9.11268 10.5997 9.18625 10.6496C9.39093 10.7866 9.61104 10.8975 9.82462 11.0198C10.1337 11.1977 10.4369 11.3829 10.7454 11.5603C11.0195 11.7187 11.2977 11.8693 11.576 12.0248C11.6027 12.0369 11.625 12.0571 11.6397 12.0825C11.6544 12.108 11.6607 12.1373 11.6579 12.1666C11.6564 12.1932 11.6564 12.22 11.6579 12.2467V19.8294C11.6579 19.8656 11.6579 19.9012 11.6579 19.9368C11.6579 20.0145 11.6199 20.0323 11.5546 19.9926C11.3767 19.8834 11.1933 19.7748 11.0136 19.6645C10.8641 19.5725 10.7169 19.4782 10.5662 19.385C10.2868 19.2118 10.0068 19.0374 9.72614 18.8653C9.5351 18.7467 9.3417 18.6345 9.15125 18.5171C8.87835 18.3492 8.60721 18.1777 8.33431 18.0098C8.13971 17.8912 7.94214 17.7725 7.74754 17.6538C7.47819 17.4883 7.2136 17.3198 6.94188 17.1531C6.75143 17.0345 6.55979 16.9194 6.36935 16.8013C6.09288 16.631 5.82175 16.4507 5.53876 16.2911C5.34653 16.1831 5.17508 16.0413 4.97633 15.9487C4.93083 15.9327 4.89225 15.9014 4.86707 15.8603C4.8419 15.8191 4.83166 15.7705 4.83809 15.7227C4.84046 14.0615 4.84046 12.4019 4.83809 10.7439C4.83809 9.93425 4.83809 9.12444 4.83809 8.31442C4.82772 8.26256 4.8333 8.20877 4.85411 8.16016Z" fill="#FEFEFE"/>
<path d="M5.31697 7.55816C5.53352 7.44959 5.7554 7.35112 5.96542 7.23128C6.39792 6.98625 6.84229 6.76258 7.27539 6.51934C7.49787 6.39416 7.72985 6.28736 7.95055 6.15981C8.38068 5.91004 8.82682 5.68993 9.25991 5.44787C9.48654 5.32031 9.72268 5.21053 9.94694 5.08179C10.4073 4.81422 10.8825 4.57515 11.35 4.32064C11.528 4.22452 11.7108 4.13669 11.884 4.02872C11.9181 4.00584 11.9581 3.99319 11.9992 3.99224C12.0403 3.9913 12.0808 4.00211 12.116 4.02339C12.4927 4.21442 12.8599 4.42384 13.2331 4.622C13.4621 4.74065 13.6971 4.85457 13.9207 4.98628C14.3461 5.23546 14.7863 5.45617 15.2188 5.6917C15.6513 5.92723 16.072 6.14793 16.4944 6.38287C16.9293 6.62433 17.3724 6.84978 17.8043 7.0948C18.0233 7.2188 18.2481 7.32857 18.4694 7.44663C18.5406 7.4846 18.5845 7.58069 18.6866 7.55874C18.6936 7.56569 18.6991 7.57399 18.7029 7.5831C18.7067 7.59222 18.7087 7.60196 18.7087 7.61184C18.7087 7.62171 18.7067 7.63149 18.7029 7.6406C18.6991 7.64972 18.6936 7.65799 18.6866 7.66494C18.3703 7.81919 18.0684 7.99956 17.7682 8.18229C17.7303 8.20715 17.6859 8.22039 17.6406 8.22039C17.5953 8.22039 17.5509 8.20715 17.5131 8.18229C17.1826 8.00787 16.8539 7.82633 16.5241 7.6519C16.0941 7.42052 15.6646 7.18815 15.2354 6.9548C14.8065 6.72104 14.3764 6.49026 13.9474 6.25769C13.5185 6.02513 13.0777 5.79255 12.6481 5.55227C12.4559 5.44489 12.2601 5.34523 12.0661 5.24141C12.0488 5.22941 12.0285 5.22262 12.0074 5.22188C11.9864 5.22115 11.9656 5.22648 11.9475 5.23724C11.5179 5.45161 11.0959 5.67925 10.6814 5.92012C10.5289 6.00792 10.364 6.07436 10.2098 6.16039C9.73513 6.4244 9.25636 6.6724 8.77996 6.9287C8.39254 7.13753 8.01284 7.35942 7.62009 7.55758C7.58331 7.57657 7.53999 7.59554 7.54118 7.63826C7.54236 7.68097 7.58627 7.69759 7.62187 7.71717C8.01106 7.94024 8.40144 8.16035 8.79063 8.38342C9.12584 8.57565 9.46578 8.76194 9.79327 8.96544C10.1629 9.19563 10.5467 9.4003 10.9205 9.62575C11.1222 9.74856 11.3281 9.87019 11.5423 9.97401C11.671 10.0408 11.7946 10.1171 11.9119 10.2024C11.9343 10.2241 11.9637 10.2371 11.9949 10.2393C12.026 10.2415 12.0569 10.2326 12.0822 10.2143C12.2542 10.0987 12.4324 9.99277 12.6161 9.89687C12.8902 9.74855 13.159 9.58956 13.4295 9.43531C13.4444 9.42176 13.4639 9.41425 13.4841 9.41425C13.5042 9.41425 13.5237 9.42176 13.5387 9.43531C13.6888 9.43531 13.7795 9.55396 13.8988 9.61744C14.1047 9.72482 14.2981 9.85474 14.5016 9.96984C14.5567 10.0007 14.5377 10.0185 14.5099 10.0464C14.4843 10.0773 14.4539 10.1038 14.4197 10.1247C14.1029 10.2688 13.811 10.4599 13.5102 10.632C13.1364 10.8461 12.7674 11.068 12.3889 11.2739C12.2898 11.3279 12.1937 11.3925 12.0922 11.4477C12.0667 11.4649 12.0367 11.474 12.0059 11.474C11.9752 11.474 11.9451 11.4649 11.9196 11.4477C11.5761 11.2519 11.2361 11.0484 10.8902 10.858C10.6055 10.7008 10.3308 10.5263 10.0442 10.3715C9.73157 10.2024 9.43553 10.0031 9.12228 9.83459C8.80903 9.66609 8.50466 9.4786 8.19022 9.31248C7.84553 9.12856 7.51508 8.91856 7.17513 8.72456C6.83518 8.53056 6.48514 8.33774 6.14816 8.13128C5.87762 7.96575 5.60412 7.80853 5.32231 7.66436C5.31494 7.65777 5.30894 7.64979 5.30467 7.64087C5.30041 7.63194 5.29795 7.62224 5.29746 7.61236C5.29696 7.60248 5.29844 7.59261 5.30179 7.5833C5.30514 7.574 5.31029 7.56546 5.31697 7.55816Z" fill="#FEFEFE"/>
<path d="M5.31695 7.55859V7.66479C5.30946 7.665 5.30202 7.66354 5.29517 7.66051C5.28831 7.65747 5.28222 7.65295 5.27733 7.64727C5.27245 7.64158 5.26888 7.63489 5.26691 7.62766C5.26493 7.62042 5.26461 7.61284 5.26594 7.60547C5.26772 7.57105 5.28907 7.55859 5.31695 7.55859Z" fill="#F0F0F0"/>
<path d="M18.6841 7.66246V7.55863C18.6916 7.55834 18.6991 7.55973 18.7061 7.56272C18.713 7.56571 18.7192 7.57023 18.7241 7.57593C18.7291 7.58162 18.7327 7.58835 18.7347 7.59563C18.7367 7.6029 18.737 7.61053 18.7357 7.61796C18.7333 7.64703 18.712 7.6583 18.6841 7.66246Z" fill="#EFEFEF"/>
<path d="M19.1678 8.20082H19.061C19.0966 8.12607 19.1322 8.12547 19.1678 8.20082Z" fill="#F0F0F0"/>
<path d="M13.532 9.43453H13.4229C13.4584 9.36037 13.4952 9.36037 13.532 9.43453Z" fill="#F5F5F5"/>
<defs>
<linearGradient id="paint0_linear_1020_10764" x1="2.76933" y1="19.6673" x2="21.2316" y2="4.33273" gradientUnits="userSpaceOnUse">
<stop stop-color="#00F7E3"/>
<stop offset="1" stop-color="#00A2FE"/>
</linearGradient>
</defs>
</svg>
