<svg width="24" height="24" viewBox="0 0 24 24" fill="none" xmlns="http://www.w3.org/2000/svg">
<circle cx="12" cy="12" r="12" fill="white"/>
<path d="M7.48297 12.213C7.46347 12.5707 7.58618 12.9215 7.82415 13.1885C8.06213 13.4554 8.39592 13.6167 8.75225 13.6369H8.83225C9.09532 13.636 9.35236 13.5578 9.57164 13.4119C9.79091 13.266 9.96281 13.0588 10.0661 12.816C10.1694 12.5731 10.1996 12.3052 10.1529 12.0454C10.1062 11.7855 9.9847 11.545 9.80339 11.3537C9.62209 11.1624 9.38892 11.0285 9.13269 10.9687C8.87646 10.9089 8.60838 10.9257 8.36157 11.0171C8.11476 11.1085 7.90002 11.2705 7.74388 11.483C7.58774 11.6955 7.49704 11.9493 7.48297 12.213Z" fill="#0033AD"/>
<path d="M2.45904 11.8639C2.37311 11.8592 2.28771 11.8801 2.21364 11.9241C2.13957 11.9681 2.08015 12.0331 2.04289 12.111C2.00564 12.1889 1.99222 12.2761 2.00434 12.3616C2.01645 12.4471 2.05356 12.5271 2.11097 12.5915C2.16837 12.6558 2.2435 12.7016 2.32685 12.7232C2.4102 12.7447 2.49803 12.7409 2.57924 12.7123C2.66045 12.6837 2.73138 12.6316 2.78308 12.5625C2.83478 12.4934 2.86492 12.4106 2.86969 12.3243C2.87329 12.2669 2.86549 12.2094 2.84672 12.155C2.82796 12.1007 2.79861 12.0507 2.7604 12.0078C2.72218 11.965 2.67586 11.9302 2.62412 11.9055C2.57239 11.8808 2.51627 11.8667 2.45904 11.8639Z" fill="#0033AD"/>
<path d="M7.39747 4.36403C7.44859 4.33802 7.49411 4.30216 7.53143 4.25849C7.56875 4.21482 7.59713 4.16421 7.61496 4.10953C7.63279 4.05485 7.63971 3.99718 7.63534 3.93982C7.63096 3.88245 7.61537 3.82651 7.58946 3.7752C7.56354 3.72388 7.52781 3.67819 7.48431 3.64073C7.4408 3.60327 7.39037 3.57478 7.3359 3.55689C7.28142 3.53899 7.22397 3.53204 7.16682 3.53643C7.10967 3.54083 7.05394 3.55647 7.00282 3.58248C6.89956 3.63501 6.82133 3.72656 6.78532 3.83699C6.74932 3.94742 6.75849 4.06768 6.81082 4.17132C6.86316 4.27496 6.95437 4.35349 7.06438 4.38963C7.1744 4.42577 7.29421 4.41656 7.39747 4.36403Z" fill="#0033AD"/>
<path d="M8.76277 6.75671C8.88146 6.69689 8.9798 6.60309 9.04537 6.48717C9.11094 6.37126 9.14079 6.23842 9.13114 6.10548C9.1215 5.97253 9.07279 5.84544 8.99118 5.74028C8.90958 5.63511 8.79873 5.5566 8.67267 5.51468C8.54661 5.47275 8.41099 5.46928 8.28297 5.50472C8.15495 5.54016 8.04027 5.61291 7.95344 5.71377C7.86661 5.81463 7.81153 5.93907 7.79516 6.07135C7.77879 6.20364 7.80187 6.33782 7.86148 6.45694C7.94173 6.61634 8.08159 6.73736 8.25049 6.79354C8.41939 6.84971 8.60358 6.83647 8.76277 6.75671Z" fill="#0033AD"/>
<path d="M4.16582 8.40133C4.25758 8.46166 4.36511 8.49333 4.4748 8.49232C4.58448 8.49132 4.69141 8.45769 4.78206 8.39569C4.87271 8.33369 4.94301 8.2461 4.98407 8.144C5.02512 8.0419 5.0351 7.92987 5.01272 7.82208C4.99035 7.71429 4.93664 7.61558 4.85838 7.53843C4.78011 7.46128 4.68082 7.40916 4.57304 7.38865C4.46527 7.36814 4.35386 7.38017 4.2529 7.42322C4.15193 7.46626 4.06595 7.53839 4.00583 7.63049C3.96555 7.69153 3.93773 7.75999 3.92397 7.83189C3.91021 7.90379 3.91079 7.97772 3.92566 8.0494C3.94054 8.12108 3.96943 8.18909 4.01065 8.24949C4.05187 8.3099 4.10461 8.36151 4.16582 8.40133Z" fill="#0033AD"/>
<path d="M4.98189 11.6221C4.84897 11.6147 4.71686 11.647 4.60224 11.715C4.48762 11.7829 4.39566 11.8835 4.33797 12.0039C4.28028 12.1243 4.25946 12.2592 4.27815 12.3915C4.29684 12.5238 4.35419 12.6475 4.44295 12.7471C4.53171 12.8467 4.64789 12.9176 4.77681 12.9509C4.90573 12.9842 5.04159 12.9784 5.16721 12.9342C5.29283 12.89 5.40256 12.8093 5.48254 12.7025C5.56252 12.5957 5.60915 12.4675 5.61652 12.3341C5.62627 12.1552 5.56492 11.9798 5.44593 11.8463C5.32695 11.7129 5.16005 11.6322 4.98189 11.6221Z" fill="#0033AD"/>
<path d="M4.24011 16.1569C4.14202 16.2067 4.06083 16.2845 4.00681 16.3806C3.95279 16.4766 3.92837 16.5866 3.93663 16.6967C3.94489 16.8067 3.98547 16.9117 4.05323 16.9986C4.12099 17.0855 4.21289 17.1502 4.3173 17.1846C4.42172 17.2191 4.53396 17.2217 4.63984 17.1921C4.74572 17.1625 4.84048 17.102 4.91214 17.0184C4.98379 16.9347 5.02913 16.8316 5.04241 16.7221C5.05569 16.6126 5.03631 16.5016 4.98674 16.4031C4.91984 16.2715 4.80382 16.1718 4.66396 16.1256C4.5241 16.0795 4.37175 16.0907 4.24011 16.1569Z" fill="#0033AD"/>
<path d="M6.85345 10.2222C6.98424 10.3079 7.13742 10.3528 7.29362 10.3512C7.44982 10.3495 7.60202 10.3014 7.73099 10.213C7.85996 10.1245 7.9599 9.99963 8.01817 9.85415C8.07644 9.70867 8.09043 9.54912 8.05836 9.39567C8.02629 9.24221 7.94961 9.10175 7.83801 8.99203C7.72641 8.88232 7.58491 8.80829 7.4314 8.7793C7.27788 8.7503 7.11925 8.76765 6.97556 8.82915C6.83186 8.89065 6.70957 8.99354 6.62413 9.1248C6.56676 9.21177 6.52717 9.3093 6.50764 9.41174C6.48811 9.51419 6.48904 9.6195 6.51037 9.72158C6.5317 9.82366 6.57301 9.92048 6.63191 10.0064C6.6908 10.0923 6.7661 10.1657 6.85345 10.2222Z" fill="#0033AD"/>
<path d="M15.1467 6.70173C15.258 6.77525 15.3885 6.81401 15.5217 6.81311C15.6549 6.81221 15.7848 6.77169 15.8951 6.69666C16.0053 6.62164 16.0909 6.51549 16.1411 6.39163C16.1913 6.26777 16.2037 6.13176 16.1769 6.0008C16.15 5.86984 16.0851 5.74981 15.9903 5.65588C15.8955 5.56195 15.7751 5.49834 15.6443 5.4731C15.5135 5.44785 15.3782 5.46211 15.2554 5.51405C15.1327 5.566 15.028 5.65331 14.9547 5.76494C14.9051 5.8388 14.8707 5.92186 14.8535 6.00925C14.8363 6.09664 14.8366 6.1866 14.8545 6.27385C14.8724 6.36111 14.9074 6.4439 14.9576 6.51737C15.0078 6.59085 15.0721 6.65352 15.1467 6.70173Z" fill="#0033AD"/>
<path d="M16.5224 4.32127C16.5947 4.36775 16.6791 4.39175 16.765 4.39025C16.8508 4.38875 16.9343 4.36183 17.005 4.31285C17.0756 4.26387 17.1303 4.19504 17.1621 4.11498C17.1939 4.03492 17.2014 3.94721 17.1837 3.86287C17.1661 3.77853 17.1239 3.70132 17.0627 3.64093C17.0014 3.58054 16.9237 3.53967 16.8394 3.52344C16.7551 3.50722 16.6678 3.51637 16.5887 3.54974C16.5095 3.58312 16.4419 3.63922 16.3944 3.71102C16.3333 3.80969 16.3124 3.92825 16.3363 4.04195C16.3601 4.15566 16.4268 4.25573 16.5224 4.32127Z" fill="#0033AD"/>
<path d="M15.248 10.9208C15.0705 10.9092 14.8925 10.933 14.7243 10.9909C14.556 11.0488 14.4009 11.1395 14.2678 11.2579C14.1347 11.3763 14.0262 11.52 13.9488 11.6807C13.8713 11.8414 13.8264 12.0159 13.8165 12.1941C13.8067 12.3724 13.8321 12.5508 13.8913 12.7191C13.9506 12.8874 14.0424 13.0423 14.1617 13.1748C14.2809 13.3072 14.4251 13.4147 14.5859 13.4909C14.7467 13.5671 14.921 13.6106 15.0986 13.6188H15.1733C15.5234 13.6185 15.8595 13.4812 16.1104 13.2362C16.3613 12.9911 16.507 12.6575 16.5167 12.3062C16.5265 11.955 16.3994 11.6138 16.1625 11.3551C15.9255 11.0964 15.5975 10.9406 15.248 10.9208Z" fill="#0033AD"/>
<path d="M9.20543 10.128C9.32579 10.3665 9.51386 10.5639 9.74588 10.6952C9.97791 10.8265 10.2435 10.8858 10.5091 10.8657C10.7747 10.8456 11.0284 10.7469 11.2382 10.5821C11.4479 10.4174 11.6044 10.1939 11.6877 9.94002C11.771 9.68609 11.7775 9.41307 11.7064 9.15544C11.6352 8.8978 11.4896 8.66711 11.2879 8.49248C11.0862 8.31786 10.8375 8.20714 10.5732 8.1743C10.3089 8.14147 10.0408 8.18799 9.80274 8.308C9.6444 8.38807 9.50333 8.49868 9.38761 8.63351C9.27188 8.76833 9.18376 8.92473 9.12829 9.09376C9.07281 9.2628 9.05108 9.44114 9.06431 9.61861C9.07755 9.79608 9.1255 9.96919 9.20543 10.128Z" fill="#0033AD"/>
<path d="M19.7597 8.40248C19.8567 8.35197 19.9367 8.27381 19.9897 8.17781C20.0426 8.08182 20.0661 7.97227 20.0571 7.86292C20.0482 7.75358 20.0073 7.64931 19.9396 7.56322C19.8719 7.47713 19.7803 7.41304 19.6764 7.37902C19.5725 7.34499 19.4609 7.34254 19.3556 7.37197C19.2503 7.4014 19.156 7.4614 19.0846 7.54444C19.0131 7.62747 18.9677 7.72984 18.9541 7.83869C18.9404 7.94754 18.9591 8.05801 19.0078 8.15624C19.0759 8.28804 19.1929 8.3877 19.3336 8.43376C19.4742 8.47981 19.6272 8.46858 19.7597 8.40248Z" fill="#0033AD"/>
<path d="M16.3465 8.82642C16.2067 8.89681 16.0908 9.00725 16.0135 9.14378C15.9362 9.2803 15.9009 9.43677 15.9122 9.59339C15.9235 9.75001 15.9808 9.89976 16.0769 10.0237C16.173 10.1476 16.3036 10.2401 16.4521 10.2896C16.6006 10.339 16.7603 10.3431 16.9112 10.3014C17.062 10.2597 17.1971 10.174 17.2994 10.0552C17.4017 9.93638 17.4666 9.78979 17.4859 9.63396C17.5052 9.47812 17.478 9.32005 17.4078 9.17972C17.3137 8.99166 17.149 8.8488 16.95 8.78255C16.751 8.7163 16.5339 8.73208 16.3465 8.82642Z" fill="#0033AD"/>
<path d="M11.9468 4.1172C12.0934 4.12399 12.2369 4.0729 12.3466 3.97486C12.4562 3.87683 12.5233 3.73963 12.5334 3.5926C12.538 3.51949 12.5281 3.4462 12.5045 3.37691C12.4808 3.30761 12.4438 3.24368 12.3955 3.18875C12.298 3.07782 12.1605 3.01031 12.0134 3.00109C11.9406 2.99652 11.8676 3.00639 11.7985 3.03015C11.7295 3.0539 11.6658 3.09108 11.6111 3.13954C11.5006 3.23742 11.4333 3.37536 11.4241 3.52301C11.4163 3.67103 11.4667 3.8162 11.5645 3.92731C11.6622 4.03843 11.7995 4.10661 11.9468 4.1172Z" fill="#0033AD"/>
<path d="M11.9414 7.61284C12.0975 7.6213 12.2526 7.5831 12.3871 7.50309C12.5215 7.42308 12.6293 7.30485 12.6969 7.16334C12.7644 7.02184 12.7886 6.86341 12.7664 6.7081C12.7442 6.55279 12.6767 6.40757 12.5722 6.2908C12.4678 6.17403 12.3313 6.09096 12.1799 6.05208C12.0284 6.01321 11.8689 6.02028 11.7215 6.0724C11.574 6.12452 11.4453 6.21936 11.3516 6.34491C11.2578 6.47046 11.2033 6.6211 11.1948 6.77776C11.1885 6.88197 11.2028 6.98639 11.2371 7.08498C11.2713 7.18357 11.3247 7.27434 11.3941 7.35204C11.4636 7.42974 11.5478 7.4928 11.6417 7.53757C11.7357 7.58235 11.8376 7.60793 11.9414 7.61284Z" fill="#0033AD"/>
<path d="M7.65325 15.7261C7.7931 15.6558 7.909 15.5453 7.98631 15.4088C8.06361 15.2723 8.09885 15.1158 8.08755 14.9592C8.07624 14.8026 8.01892 14.6528 7.92282 14.5289C7.82673 14.405 7.69618 14.3125 7.54768 14.263C7.39919 14.2136 7.23943 14.2095 7.0886 14.2512C6.93778 14.2929 6.80267 14.3786 6.70036 14.4974C6.59805 14.6162 6.53315 14.7628 6.51385 14.9186C6.49456 15.0744 6.52174 15.2325 6.59196 15.3728C6.68607 15.5609 6.85073 15.7038 7.04974 15.77C7.24875 15.8363 7.46582 15.8205 7.65325 15.7261Z" fill="#0033AD"/>
<path d="M12.4533 8.77431C12.289 9.0258 12.213 9.32511 12.2374 9.62485C12.2617 9.92458 12.3849 10.2076 12.5876 10.4291C12.7902 10.6506 13.0607 10.7979 13.3562 10.8477C13.6517 10.8974 13.9552 10.8468 14.2188 10.7039C14.4824 10.5609 14.691 10.3338 14.8114 10.0585C14.9319 9.78312 14.9574 9.47531 14.8839 9.18377C14.8104 8.89223 14.6422 8.63363 14.4057 8.44893C14.1693 8.26422 13.8782 8.16398 13.5786 8.16406C13.3553 8.16384 13.1354 8.21952 12.9389 8.32608C12.7424 8.43264 12.5755 8.5867 12.4533 8.77431Z" fill="#0033AD"/>
<path d="M14.7947 14.4278C14.675 14.189 14.4874 13.9911 14.2557 13.8593C14.0239 13.7275 13.7585 13.6676 13.4928 13.6872C13.2272 13.7069 12.9733 13.8051 12.7633 13.9696C12.5533 14.1341 12.3967 14.3574 12.3131 14.6112C12.2295 14.8651 12.2229 15.1381 12.2939 15.3958C12.365 15.6534 12.5105 15.8842 12.7122 16.0588C12.9139 16.2334 13.1627 16.3441 13.427 16.3768C13.6914 16.4095 13.9595 16.3627 14.1974 16.2425C14.355 16.1638 14.4956 16.0547 14.6112 15.9214C14.7267 15.7881 14.815 15.6333 14.871 15.4658C14.9269 15.2983 14.9495 15.1213 14.9373 14.9451C14.9251 14.7688 14.8785 14.5967 14.8 14.4385C14.8 14.4331 14.8 14.4331 14.7947 14.4278Z" fill="#0033AD"/>
<path d="M17.1465 14.3322C17.0157 14.2464 16.8626 14.2015 16.7064 14.2032C16.5502 14.2048 16.398 14.2529 16.269 14.3414C16.14 14.4298 16.0401 14.5547 15.9818 14.7002C15.9235 14.8457 15.9096 15.0052 15.9416 15.1587C15.9737 15.3121 16.0504 15.4526 16.162 15.5623C16.2736 15.672 16.4151 15.746 16.5686 15.775C16.7221 15.804 16.8807 15.7867 17.0244 15.7252C17.1681 15.6637 17.2904 15.5608 17.3759 15.4295C17.4332 15.3426 17.4728 15.245 17.4923 15.1426C17.5119 15.0401 17.5109 14.9348 17.4896 14.8328C17.4683 14.7307 17.427 14.6339 17.3681 14.5479C17.3092 14.462 17.2339 14.3887 17.1465 14.3322Z" fill="#0033AD"/>
<path d="M19.7279 12.3029C19.7352 12.1695 19.7031 12.0369 19.6354 11.9218C19.5677 11.8068 19.4675 11.7145 19.3475 11.6566C19.2276 11.5987 19.0932 11.5778 18.9614 11.5965C18.8296 11.6153 18.7063 11.6729 18.6071 11.7619C18.5079 11.851 18.4372 11.9677 18.404 12.0971C18.3709 12.2265 18.3767 12.3628 18.4207 12.4889C18.4648 12.615 18.5451 12.7252 18.6515 12.8054C18.7579 12.8857 18.8856 12.9325 19.0185 12.9399C19.1965 12.9489 19.3708 12.887 19.5036 12.7677C19.6364 12.6484 19.717 12.4814 19.7279 12.3029Z" fill="#0033AD"/>
<path d="M21.5889 11.821C21.503 11.8162 21.4176 11.8372 21.3435 11.8812C21.2695 11.9251 21.21 11.9902 21.1728 12.068C21.1355 12.1459 21.1221 12.2331 21.1342 12.3186C21.1463 12.4041 21.1834 12.4841 21.2408 12.5485C21.2983 12.6129 21.3734 12.6587 21.4567 12.6802C21.5401 12.7017 21.6279 12.6979 21.7091 12.6693C21.7903 12.6407 21.8613 12.5886 21.913 12.5195C21.9647 12.4505 21.9948 12.3676 21.9996 12.2813C22.005 12.1659 21.965 12.0529 21.8881 11.9668C21.8113 11.8807 21.7039 11.8283 21.5889 11.821Z" fill="#0033AD"/>
<path d="M19.8341 16.1535C19.7424 16.0932 19.6349 16.0615 19.5252 16.0625C19.4155 16.0635 19.3086 16.0972 19.2179 16.1592C19.1273 16.2212 19.057 16.3087 19.0159 16.4108C18.9748 16.5129 18.9649 16.625 18.9872 16.7328C19.0096 16.8406 19.0633 16.9393 19.1416 17.0164C19.2199 17.0936 19.3191 17.1457 19.4269 17.1662C19.5347 17.1867 19.6461 17.1747 19.7471 17.1316C19.848 17.0886 19.934 17.0165 19.9941 16.9244C20.0344 16.8633 20.0622 16.7949 20.076 16.723C20.0898 16.6511 20.0892 16.5771 20.0743 16.5054C20.0594 16.4338 20.0305 16.3658 19.9893 16.3054C19.9481 16.2449 19.8954 16.1933 19.8341 16.1535Z" fill="#0033AD"/>
<path d="M7.47218 20.2364C7.40048 20.1888 7.31635 20.1637 7.2304 20.1641C7.14445 20.1645 7.06056 20.1905 6.98933 20.2387C6.91809 20.287 6.86271 20.3554 6.83018 20.4352C6.79765 20.5151 6.78944 20.6028 6.80658 20.6874C6.82373 20.7719 6.86545 20.8494 6.92649 20.9102C6.98752 20.9709 7.06513 21.0121 7.14949 21.0286C7.23386 21.0451 7.32119 21.0361 7.40046 21.0027C7.47973 20.9694 7.54738 20.9132 7.59484 20.8413C7.62746 20.7938 7.6502 20.7403 7.6617 20.6838C7.6732 20.6273 7.67323 20.5691 7.66177 20.5126C7.65032 20.4562 7.62762 20.4026 7.59505 20.3551C7.56247 20.3076 7.52068 20.2673 7.47218 20.2364Z" fill="#0033AD"/>
<path d="M16.6024 20.1919C16.5513 20.2179 16.5058 20.2537 16.4685 20.2974C16.4311 20.3411 16.4028 20.3917 16.3849 20.4464C16.3671 20.501 16.3602 20.5587 16.3646 20.6161C16.3689 20.6734 16.3845 20.7294 16.4104 20.7807C16.4363 20.832 16.4721 20.8777 16.5156 20.9152C16.5591 20.9526 16.6095 20.9811 16.664 20.999C16.7185 21.0169 16.7759 21.0239 16.8331 21.0195C16.8902 21.0151 16.9459 20.9994 16.9971 20.9734C17.1003 20.9209 17.1786 20.8293 17.2146 20.7189C17.2506 20.6085 17.2414 20.4882 17.1891 20.3846C17.1367 20.2809 17.0455 20.2024 16.9355 20.1663C16.8255 20.1301 16.7057 20.1393 16.6024 20.1919Z" fill="#0033AD"/>
<path d="M11.5465 15.7821C11.6925 15.5581 11.7692 15.2958 11.7667 15.0282C11.7642 14.7605 11.6827 14.4996 11.5325 14.2785C11.3823 14.0574 11.1702 13.8859 10.9229 13.7858C10.6756 13.6856 10.4043 13.6614 10.1432 13.716C9.88222 13.7707 9.6432 13.9018 9.45641 14.0928C9.26961 14.2838 9.14344 14.5261 9.09384 14.789C9.04424 15.052 9.07345 15.3238 9.17776 15.5702C9.28207 15.8165 9.4568 16.0262 9.67987 16.1728C9.97934 16.3684 10.3437 16.437 10.6934 16.3638C11.0432 16.2906 11.3498 16.0814 11.5465 15.7821Z" fill="#0033AD"/>
<path d="M8.85353 17.8536C8.74228 17.7801 8.6118 17.7413 8.4786 17.7422C8.3454 17.7431 8.21546 17.7836 8.1052 17.8586C7.99494 17.9337 7.90932 18.0398 7.85915 18.1637C7.80899 18.2875 7.79655 18.4235 7.82339 18.5545C7.85023 18.6855 7.91515 18.8055 8.00994 18.8994C8.10474 18.9934 8.22515 19.057 8.35596 19.0822C8.48677 19.1075 8.6221 19.0932 8.74484 19.0413C8.86758 18.9893 8.97222 18.902 9.04552 18.7904C9.09507 18.7165 9.12943 18.6334 9.14661 18.5461C9.16378 18.4587 9.16342 18.3687 9.14554 18.2815C9.12766 18.1943 9.09262 18.1115 9.04249 18.038C8.99235 17.9645 8.92811 17.9018 8.85353 17.8536Z" fill="#0033AD"/>
<path d="M11.9948 20.4384C11.8853 20.4321 11.7763 20.4585 11.6817 20.5142C11.5871 20.5699 11.5111 20.6524 11.4631 20.7515C11.4152 20.8505 11.3975 20.9615 11.4123 21.0706C11.4271 21.1797 11.4738 21.2819 11.5464 21.3645C11.6189 21.447 11.7142 21.5061 11.8202 21.5344C11.9263 21.5626 12.0382 21.5588 12.142 21.5233C12.2459 21.4878 12.3369 21.4223 12.4037 21.335C12.4705 21.2477 12.5101 21.1424 12.5174 21.0326C12.5256 20.8845 12.4754 20.7391 12.3775 20.6279C12.2797 20.5167 12.1422 20.4486 11.9948 20.4384Z" fill="#0033AD"/>
<path d="M11.9999 16.9426C11.8438 16.9341 11.6888 16.9723 11.5543 17.0523C11.4198 17.1323 11.312 17.2506 11.2445 17.3921C11.177 17.5336 11.1528 17.692 11.175 17.8473C11.1972 18.0026 11.2647 18.1478 11.3691 18.2646C11.4735 18.3814 11.6101 18.4644 11.7615 18.5033C11.913 18.5422 12.0725 18.5351 12.2199 18.483C12.3674 18.4309 12.4961 18.336 12.5898 18.2105C12.6836 18.0849 12.7381 17.9343 12.7466 17.7776C12.7529 17.6734 12.7385 17.569 12.7043 17.4704C12.6701 17.3718 12.6167 17.2811 12.5472 17.2034C12.4778 17.1257 12.3936 17.0626 12.2997 17.0178C12.2057 16.9731 12.1038 16.9475 11.9999 16.9426Z" fill="#0033AD"/>
<path d="M15.2373 17.7977C15.1193 17.8589 15.0219 17.9536 14.9574 18.0701C14.8929 18.1866 14.8641 18.3197 14.8747 18.4525C14.8853 18.5854 14.9348 18.7122 15.017 18.8169C15.0991 18.9216 15.2103 18.9996 15.3365 19.0411C15.4627 19.0826 15.5983 19.0857 15.7263 19.05C15.8542 19.0144 15.9688 18.9416 16.0557 18.8407C16.1425 18.7399 16.1977 18.6156 16.2144 18.4833C16.231 18.3511 16.2084 18.2169 16.1492 18.0975C16.1094 18.0173 16.0541 17.9458 15.9866 17.8873C15.919 17.8287 15.8405 17.7841 15.7557 17.7563C15.6708 17.7284 15.5813 17.7177 15.4923 17.7248C15.4033 17.7319 15.3166 17.7567 15.2373 17.7977Z" fill="#0033AD"/>
</svg>
