<svg width="32" height="32" viewBox="0 0 32 32" fill="none" xmlns="http://www.w3.org/2000/svg">
<path d="M19.552 20.832C19.712 20.992 19.712 21.248 19.552 21.392C18.528 22.416 16.576 22.496 16 22.496C15.424 22.496 13.472 22.4 12.448 21.392C12.288 21.248 12.288 20.992 12.448 20.832C12.592 20.688 12.832 20.688 12.976 20.832C13.616 21.488 15.008 21.712 16 21.712C16.976 21.712 18.352 21.504 19.024 20.832C19.168 20.688 19.408 20.688 19.552 20.832ZM14.064 17.6C14.064 18.48 13.344 19.184 12.48 19.184C11.6 19.184 10.88 18.48 10.88 17.6C10.88 16.72 11.584 16 12.48 16H12.496C13.36 16 14.064 16.72 14.064 17.6ZM21.12 17.6C21.12 18.48 20.4 19.184 19.52 19.184C18.64 19.184 17.936 18.464 17.936 17.6C17.936 16.704 18.656 16 19.52 16C20.4 16 21.12 16.704 21.12 17.6ZM25.6 15.472C25.6 14.288 24.64 13.344 23.456 13.344C22.848 13.344 22.32 13.6 21.92 13.984C20.48 12.992 18.528 12.336 16.368 12.272L17.488 7.216L21.056 8.016C21.056 8.896 21.776 9.6 22.64 9.6C23.536 9.6 24.24 8.864 24.24 8C24.24 7.136 23.52 6.4 22.64 6.4C22.032 6.4 21.488 6.752 21.216 7.296L17.28 6.416C17.088 6.368 16.88 6.512 16.832 6.704L15.6 12.272C13.456 12.368 11.52 13.008 10.08 14C9.68 13.584 9.12 13.344 8.528 13.344C7.36 13.328 6.4 14.288 6.4 15.456C6.4 16.32 6.896 17.024 7.616 17.392C7.536 17.728 7.504 18.048 7.504 18.384C7.504 21.776 11.328 24.528 16.016 24.528C20.736 24.528 24.544 21.776 24.544 18.384C24.544 18.048 24.512 17.696 24.416 17.36C25.152 17.008 25.6 16.272 25.6 15.472ZM32 16C32 24.832 24.832 32 16 32C7.168 32 0 24.832 0 16C0 7.168 7.168 0 16 0C24.832 0 32 7.168 32 16Z" fill="#EB5528"/>
</svg>
