<svg width="32" height="32" viewBox="0 0 32 32" fill="none" xmlns="http://www.w3.org/2000/svg">
<path fill-rule="evenodd" clip-rule="evenodd" d="M16 32C24.8366 32 32 24.8366 32 16C32 7.16344 24.8366 0 16 0C7.16344 0 0 7.16344 0 16C0 24.8366 7.16344 32 16 32ZM7 9.1656C7 10.3551 7.97614 11.3329 9.16356 11.3329C10.3492 11.3329 11.3254 10.3551 11.3236 9.1656C11.3236 7.97784 10.3475 7 9.16182 7C7.97614 7 7 7.97784 7 9.1656ZM21.2701 25H24.9983L25 18.4035C25 15.1656 24.3033 12.6763 20.5262 12.6763C19.0856 12.6221 17.7253 13.3708 16.9971 14.618H16.9465V12.9755H13.3685V24.9982H17.0931V19.0507C17.0931 17.4816 17.39 15.9632 19.3318 15.9632C21.2457 15.9632 21.2701 17.758 21.2701 19.1521V25ZM11.025 12.9755H7.2951V24.9982H11.025V12.9755Z" fill="#3578B4"/>
</svg>
