<svg width="24" height="24" viewBox="0 0 24 24" fill="none" xmlns="http://www.w3.org/2000/svg">
<circle cx="12" cy="12" r="12" fill="white"/>
<path d="M18.3634 5H20.965L15.5509 10.383C13.5903 12.3313 10.4114 12.3313 8.44938 10.383L3.0332 5H5.63687L9.75016 9.08913C10.3495 9.68226 11.1571 10.0148 11.9986 10.0148C12.84 10.0148 13.6477 9.68226 14.247 9.08913L18.3634 5Z" fill="#23292F"/>
<path d="M5.60332 19.9673H3L8.44922 14.5511C10.4099 12.6028 13.5887 12.6028 15.5508 14.5511L21 19.9673H18.3984L14.25 15.845C13.6507 15.2518 12.843 14.9193 12.0016 14.9193C11.1601 14.9193 10.3525 15.2518 9.75316 15.845L5.60332 19.9673Z" fill="#23292F"/>
</svg>
