<svg width="24" height="24" viewBox="0 0 24 24" fill="none" xmlns="http://www.w3.org/2000/svg">
<g clip-path="url(#clip0_190_713)">
<path d="M10.7238 19.8871C15.0537 19.8871 18.5638 16.377 18.5638 12.0471C18.5638 7.71713 15.0537 4.20703 10.7238 4.20703C6.39389 4.20703 2.88379 7.71713 2.88379 12.0471C2.88379 16.377 6.39389 19.8871 10.7238 19.8871Z" fill="white"/>
<path d="M12.0022 0C5.38217 0 0 5.38217 0 12.0022C0 18.6223 5.38217 24.0045 12.0022 24.0045C18.6223 24.0045 24.0045 18.6223 24.0045 12.0022C24.0045 5.38217 18.6178 0 12.0022 0ZM17.3575 11.8497L12.5135 16.6937C9.1766 20.0306 4.2564 14.9893 7.53504 11.7152L12.379 6.87124C14.2538 4.99645 17.0974 7.84003 15.2226 9.71482L10.3786 14.5588C9.90768 15.0297 9.19903 14.3211 9.66997 13.8501L14.5139 9.00617C15.4513 8.06877 14.025 6.63801 13.0832 7.57541L8.23921 12.4194C5.89348 14.7651 9.45917 18.3308 11.8049 15.985L16.6489 11.1411C17.0929 10.6971 17.797 11.4057 17.3575 11.8497Z" fill="#C5BBFF"/>
</g>
<defs>
<clipPath id="clip0_190_713">
<rect width="24" height="24" fill="white"/>
</clipPath>
</defs>
</svg>
