<svg width="24" height="24" viewBox="0 0 24 24" fill="none" xmlns="http://www.w3.org/2000/svg">
<circle cx="12" cy="12" r="12" fill="white"/>
<path d="M3.70023 14.9912C3.72233 14.8704 3.73248 14.7472 3.77014 14.6293C4.00447 13.892 4.49748 13.4326 5.26045 13.2964C6.17769 13.1324 7.04824 13.6739 7.34865 14.56C7.41496 14.7558 7.51509 14.94 7.59876 15.1299C7.86354 15.7308 8.12786 16.3316 8.39241 16.9324C8.40098 16.9518 8.40729 16.9719 8.41677 16.9971C8.3879 16.9971 8.36467 16.9971 8.34121 16.9971C7.41744 16.9973 6.49366 16.9973 5.56966 16.998C4.64069 16.9985 3.86193 16.328 3.72007 15.4064C3.71331 15.3625 3.71895 15.3162 3.7 15.2741V14.9912H3.70023Z" fill="#7940A4"/>
<path d="M18.8801 16.9982C18.3316 16.9982 17.7831 17.003 17.2346 16.9969C16.648 16.9904 16.2321 16.712 16.0034 16.1739C15.6768 15.4055 15.3607 14.6329 15.0402 13.862C14.1649 11.7555 13.2898 9.64885 12.4145 7.54239C12.2093 7.04825 12.0038 6.55433 11.7984 6.06042C11.7736 6.00043 11.7738 6.0002 11.8419 6.0002C12.9705 6.0002 14.0988 6.0002 15.2274 6.0002C15.816 6.0002 16.2637 6.29678 16.4908 6.84121C16.8627 7.73296 17.2326 8.62539 17.6033 9.51759C18.445 11.5426 19.2865 13.5677 20.1282 15.5927C20.314 16.0397 20.5001 16.4865 20.6861 16.9335C20.704 16.9767 20.6899 16.9983 20.6437 16.9985C20.056 16.9985 19.468 16.9985 18.8803 16.9985L18.8801 16.9982Z" fill="#7840A4"/>
<path d="M5.7052 6.00023C5.73159 6.00023 5.75256 6.00023 5.77376 6.00023C6.90232 6.00023 8.03088 6.00023 9.15967 6.00023C9.74312 6.00023 10.1949 6.29951 10.4193 6.83875C10.9375 8.08369 11.454 9.32907 11.9714 10.5742C12.8182 12.6124 13.6651 14.6503 14.512 16.6882C14.5539 16.789 14.5957 16.8898 14.6405 16.998C14.6126 16.998 14.5932 16.998 14.5738 16.998C13.4412 16.998 12.3088 16.9971 11.1761 16.9985C10.7267 16.9989 10.3656 16.8244 10.0927 16.468C9.97902 16.3194 9.9179 16.1444 9.84709 15.9744C8.82994 13.5276 7.81302 11.0805 6.79632 8.63353C6.43908 7.77381 6.08229 6.91408 5.7255 6.05413C5.71896 6.03834 5.71332 6.02188 5.7052 6V6.00023Z" fill="#7840A4"/>
</svg>
