<svg width="24" height="24" viewBox="0 0 24 24" fill="none" xmlns="http://www.w3.org/2000/svg">
<path d="M12 24C18.6274 24 24 18.6274 24 12C24 5.37258 18.6274 0 12 0C5.37258 0 0 5.37258 0 12C0 18.6274 5.37258 24 12 24Z" fill="url(#paint0_linear_1022_21451)"/>
<path d="M15.7623 12.876C16.0383 12.606 16.2843 12.366 16.5303 12.126C16.8603 11.802 17.1963 11.478 17.5263 11.148C17.6643 11.016 17.8323 10.95 18.0243 10.944C18.2223 10.938 18.4203 10.944 18.6123 10.944C18.6243 10.944 18.6423 10.944 18.6543 10.944C18.7863 10.962 18.9243 10.986 18.9723 11.13C19.0263 11.274 18.9363 11.376 18.8403 11.472C18.2943 12 17.7543 12.534 17.2023 13.062C17.1183 13.14 17.1303 13.182 17.2023 13.26C17.7663 13.884 18.3243 14.508 18.8823 15.138C18.9183 15.18 18.9543 15.222 18.9783 15.264C19.0743 15.432 19.0203 15.582 18.8463 15.654C18.8163 15.666 18.7803 15.684 18.7443 15.684C18.4623 15.702 18.1803 15.72 17.9043 15.666C17.7483 15.636 17.6283 15.552 17.5203 15.438C16.9803 14.832 16.4403 14.232 15.9063 13.626C15.8703 13.584 15.8283 13.542 15.7863 13.5C15.7443 13.542 15.7623 13.584 15.7623 13.62C15.7623 14.166 15.7623 14.712 15.7623 15.258C15.7623 15.528 15.6003 15.696 15.3303 15.702C15.1623 15.708 14.9883 15.702 14.8203 15.702C14.5503 15.696 14.3823 15.534 14.3823 15.264C14.3823 13.386 14.3823 11.508 14.3823 9.636C14.3823 9.366 14.5503 9.198 14.8143 9.192C14.9883 9.186 15.1623 9.186 15.3363 9.192C15.5943 9.198 15.7563 9.366 15.7563 9.63C15.7563 10.656 15.7563 11.688 15.7563 12.714C15.7623 12.75 15.7623 12.792 15.7623 12.876Z" fill="white"/>
<path d="M4.96215 12.9075C4.96215 12.1155 4.96215 11.3235 4.96215 10.5375C4.96215 10.4355 4.93815 10.4115 4.83615 10.4115C4.36215 10.4175 3.88815 10.4115 3.41415 10.4115C3.11415 10.4115 2.95215 10.2435 2.95215 9.9435C2.95215 9.8415 2.95215 9.7395 2.95215 9.6375C2.95215 9.3555 3.12615 9.1875 3.40215 9.1875C3.70815 9.1875 4.00815 9.1875 4.31415 9.1875C5.48415 9.1875 6.66015 9.1875 7.83015 9.1875C8.20215 9.1875 8.34615 9.3315 8.34615 9.7095C8.34615 9.8055 8.34615 9.9075 8.34615 10.0035C8.33415 10.2495 8.16615 10.4115 7.92615 10.4115C7.44615 10.4115 6.96615 10.4175 6.49215 10.4115C6.37215 10.4115 6.34215 10.4415 6.34215 10.5615C6.34815 12.0975 6.34215 13.6335 6.34215 15.1695C6.34215 15.5535 6.19815 15.6975 5.82015 15.6975C5.67015 15.6975 5.52615 15.7035 5.37615 15.6975C5.12415 15.6915 4.96215 15.5175 4.95615 15.2715C4.96215 14.4795 4.96215 13.6935 4.96215 12.9075Z" fill="white"/>
<path d="M12.2824 12.4437C12.2824 11.5137 12.2824 10.5837 12.2824 9.65369C12.2824 9.34769 12.4444 9.18569 12.7564 9.17969C12.9124 9.17969 13.0684 9.17969 13.2244 9.17969C13.4944 9.18569 13.6684 9.35369 13.6684 9.62369C13.6684 11.4897 13.6684 13.3617 13.6684 15.2277C13.6684 15.5157 13.4944 15.6837 13.2064 15.6837C13.0444 15.6837 12.8824 15.6837 12.7204 15.6837C12.4444 15.6777 12.2764 15.5097 12.2764 15.2397C12.2824 14.3157 12.2824 13.3797 12.2824 12.4437Z" fill="white"/>
<path d="M21.126 9.64197C21.126 10.134 20.724 10.53 20.238 10.524C19.746 10.524 19.35 10.128 19.356 9.63597C19.356 9.14397 19.758 8.74797 20.244 8.75397C20.73 8.75397 21.126 9.14997 21.126 9.64197Z" fill="white"/>
<path d="M11.5262 12.75C11.5202 12.306 11.4482 11.88 11.1542 11.52C10.7882 11.07 10.2842 10.92 9.73216 10.866C9.14416 10.806 8.56816 10.902 7.99216 11.028C7.65016 11.1 7.52416 11.256 7.52416 11.604C7.52416 12.06 7.67416 12.18 8.12416 12.084C8.53816 11.994 8.95816 11.934 9.39016 11.964C9.88816 11.994 10.1582 12.24 10.1642 12.66C10.1642 12.762 10.1462 12.798 10.0322 12.798C9.76216 12.792 9.48616 12.798 9.21616 12.792C8.89216 12.792 8.57416 12.786 8.25616 12.852C7.85416 12.936 7.49416 13.086 7.29016 13.476C7.12216 13.806 7.10416 14.16 7.14616 14.52C7.21216 15.102 7.53616 15.45 8.09416 15.6C8.36416 15.672 8.64016 15.702 8.91616 15.696C9.43216 15.69 9.95416 15.732 10.4702 15.666C11.1062 15.588 11.4542 15.222 11.5082 14.586C11.5382 14.226 11.5202 13.872 11.5262 13.572C11.5262 13.26 11.5322 13.008 11.5262 12.75ZM10.1702 13.848C10.1642 14.016 10.1702 14.19 10.1642 14.358C10.1582 14.58 10.0502 14.712 9.82816 14.718C9.47416 14.73 9.11416 14.754 8.75416 14.7C8.50816 14.664 8.42416 14.568 8.39416 14.322C8.35216 13.974 8.46616 13.818 8.80816 13.77C9.03016 13.74 9.25216 13.758 9.44416 13.758C9.67216 13.758 9.86416 13.758 10.0562 13.758C10.1342 13.752 10.1702 13.764 10.1702 13.848Z" fill="white"/>
<defs>
<linearGradient id="paint0_linear_1022_21451" x1="5.85755" y1="2.08978" x2="17.4699" y2="20.8251" gradientUnits="userSpaceOnUse">
<stop stop-color="#1E3988"/>
<stop offset="0.3546" stop-color="#182D71"/>
<stop offset="0.7209" stop-color="#142561"/>
<stop offset="1" stop-color="#13225B"/>
</linearGradient>
</defs>
</svg>
