<svg width="18" height="20" viewBox="0 0 18 20" fill="none"
    xmlns="http://www.w3.org/2000/svg">
    <g clip-path="url(#clip0_2213_25392)">
        <path d="M0.0759853 1.67995C0.0295626 1.84171 0.00170898 2.01299 0.00170898 2.21282V18.3893C0.00170898 18.5796 0.0295626 18.7509 0.0759853 18.9126L8.93344 10.3106L0.0759853 1.67995Z" fill="#65D1F9"/>
        <path d="M12.3966 6.95114L2.04436 1.0515C1.63584 0.794579 1.22732 0.727971 0.883789 0.823126L9.77838 9.4918L12.3966 6.95114Z" fill="#73EA83"/>
        <path d="M16.2032 9.13025L13.4457 7.56018L10.6139 10.3007L13.4921 13.1077L16.1753 11.5948C17.4937 10.824 17.0202 9.59651 16.2032 9.13025Z" fill="#F7D649"/>
        <path d="M0.855957 19.7686C1.20877 19.8638 1.61729 19.8067 2.04438 19.5498L12.4245 13.7072L9.76912 11.119L0.855957 19.7686Z" fill="#E84D4C"/>
    </g>
    <defs>
        <clipPath id="clip0_2213_25392">
            <rect width="17" height="19.0311" fill="white" transform="translate(0.00170898 0.785065)"/>
        </clipPath>
    </defs>
</svg>
