<svg width="24" height="24" viewBox="0 0 24 24" fill="none" xmlns="http://www.w3.org/2000/svg">
<mask id="mask0_190_755" style="mask-type:luminance" maskUnits="userSpaceOnUse" x="0" y="0" width="24" height="24">
<path d="M12 24C18.6274 24 24 18.6274 24 12C24 5.37258 18.6274 0 12 0C5.37258 0 0 5.37258 0 12C0 18.6274 5.37258 24 12 24Z" fill="white"/>
</mask>
<g mask="url(#mask0_190_755)">
<path d="M-0.129883 24.0611C-0.129883 16.0916 -0.129883 8.12203 -0.129883 0.144891C-0.129883 -0.0760612 -0.0765495 -0.129395 0.144403 -0.129395C8.12155 -0.129395 16.0911 -0.129395 24.0606 -0.129395C24.1139 -0.0227279 24.0911 0.0915579 24.0911 0.198225C24.0911 8.03822 24.0911 15.8782 24.0911 23.7182C24.0911 24.1373 24.1368 24.0916 23.7177 24.0916C15.8777 24.0916 8.03774 24.0916 0.197736 24.0916C0.0910696 24.0916 -0.0232162 24.122 -0.129883 24.0611Z" fill="#F5B43F"/>
<path d="M-0.129588 24.0609C7.80946 24.0609 15.7485 24.0609 23.6876 24.0609C23.9923 24.0609 24.0685 23.9847 24.0685 23.6799C24.0609 15.7409 24.0685 7.80184 24.0685 -0.137207C24.1904 -0.0838737 24.1218 0.022793 24.1218 0.106602C24.1218 3.65708 24.1218 7.19994 24.1218 10.7504C24.1218 15.1237 24.1218 19.4971 24.1218 23.8704C24.1218 24.0761 24.0837 24.1218 23.8704 24.1142C15.9466 24.1142 8.03041 24.1142 0.106602 24.1066C0.030412 24.1066 -0.0838737 24.1752 -0.137207 24.0533L-0.129588 24.0609Z" fill="#FEFEFE"/>
<path d="M12.0377 21.3563C10.0949 21.3334 8.22821 20.9601 6.49107 20.0915C4.6625 19.1772 3.64155 17.6534 3.32917 15.6496C2.97869 13.3944 3.63393 11.3906 4.89869 9.54675C5.02059 9.3639 5.19583 9.23437 4.91393 8.99056C4.73107 8.83818 4.69297 8.51818 4.72345 8.25151C4.85297 7.06294 4.99012 5.87437 5.41678 4.73913C5.47012 4.60961 5.52345 4.48009 5.59202 4.35056C5.84345 3.85532 6.05678 3.78675 6.55202 4.05342C6.91012 4.2439 7.16917 4.53342 7.36726 4.87628C7.55774 5.21152 7.77869 5.5239 8.06821 5.78294C8.19012 5.89723 8.29678 5.93532 8.47202 5.86675C9.28726 5.53913 10.133 5.37913 11.0092 5.59247C11.2454 5.65342 11.4892 5.61532 11.7254 5.55437C12.7539 5.30294 13.7444 5.38675 14.6815 5.91247C14.9787 6.08009 15.2225 6.07247 15.5273 5.92009C16.3501 5.51628 17.1806 5.12771 18.0796 4.91437C18.293 4.86104 18.5139 4.82294 18.7349 4.83056C19.1996 4.8458 19.4739 5.06675 19.5349 5.5239C19.6492 6.3239 19.4663 7.0858 19.1692 7.82485C19.0015 8.25913 18.8111 8.67818 18.5749 9.07437C18.4606 9.26485 18.4682 9.38675 18.6054 9.57723C19.352 10.5982 19.9539 11.7029 20.2054 12.9601C20.8377 16.1525 19.1615 19.2839 16.1596 20.5334C14.8415 21.082 13.4625 21.341 12.0377 21.3334V21.3563Z" fill="#060304"/>
<path d="M20.0074 14.5143C19.9922 17.0057 18.3541 19.3295 15.9084 20.3048C13.9351 21.0972 11.9008 21.1962 9.82839 20.8305C8.75411 20.64 7.7103 20.3429 6.72744 19.8552C4.70839 18.8495 3.73315 17.1581 3.57315 14.9562C3.52744 14.3619 3.5503 13.7676 3.68744 13.181C3.76363 13.0362 3.8703 12.9219 3.9922 12.8152C4.70077 12.2057 5.21887 11.4362 5.72934 10.6591C6.14839 10.0114 6.63601 9.43239 7.29887 9.01334C7.8322 8.67048 8.41125 8.5562 9.02839 8.64001C9.47792 8.70096 9.72173 9.02096 9.89696 9.39429C10.0341 9.69906 10.0951 10.0267 10.1789 10.3467C10.3389 10.9257 10.7122 11.0552 11.1922 10.6972C11.4665 10.4914 11.6646 10.2019 11.8855 9.94287C12.2893 9.44763 12.7541 9.01334 13.356 8.76953C14.2779 8.38858 15.1998 8.48001 15.9541 9.21144C16.5484 9.78287 17.0055 10.4533 17.4551 11.1391C17.9579 11.9086 18.4532 12.6781 19.0246 13.3943C19.2379 13.661 19.4893 13.8972 19.7332 14.141C19.8474 14.2552 19.9465 14.3772 20.0074 14.5295V14.5143Z" fill="#F4E9E0"/>
<path d="M20.0075 14.5144C18.9027 13.5772 18.1485 12.3582 17.3637 11.162C16.9751 10.5753 16.5713 9.99627 16.0989 9.47055C14.9561 8.20579 13.5999 8.51817 12.6018 9.31817C12.2589 9.59246 11.9846 9.9277 11.7332 10.2782C11.5351 10.5448 11.3065 10.7886 10.9865 10.9182C10.5446 11.101 10.2094 10.9182 10.1027 10.4534C10.0418 10.2096 9.98845 9.96579 9.91988 9.72198C9.66083 8.83055 9.23417 8.4877 8.05321 8.7696C7.26845 8.96008 6.69702 9.50103 6.21702 10.1258C5.72179 10.7734 5.32559 11.4896 4.79226 12.1144C4.45702 12.5029 4.10655 12.8763 3.6875 13.181C3.93131 11.7563 4.57131 10.5144 5.42464 9.37151C5.47798 9.30294 5.56179 9.2496 5.63036 9.19627C5.77512 8.99055 5.85131 8.78484 5.72179 8.52579C5.63798 8.35817 5.70655 8.22865 5.90464 8.19817C6.17893 8.16008 6.26274 7.97722 6.26274 7.72579C6.26274 7.50484 6.26274 7.28389 6.26274 7.06293C6.26274 6.97151 6.26274 6.86484 6.36179 6.83436C6.45321 6.80389 6.49893 6.89532 6.55226 6.94865C6.65131 7.05532 6.75798 7.13913 6.91036 7.16198C7.25321 7.21532 7.45893 6.97913 7.38274 6.62865C7.22274 5.8896 6.83417 5.25722 6.38464 4.66293C6.21702 4.44198 6.2094 4.44198 6.28559 4.28198C6.67417 4.48008 6.94845 4.78484 7.16179 5.16579C7.35988 5.53151 7.63417 5.84389 7.95417 6.11055C8.1294 6.25532 8.2894 6.30103 8.52559 6.20198C9.29512 5.87436 10.0951 5.69913 10.9408 5.90484C11.2761 5.98865 11.6189 5.92008 11.9618 5.84389C12.838 5.64579 13.6989 5.72198 14.4761 6.17913C14.9256 6.43817 15.3065 6.41532 15.7485 6.18674C16.5485 5.77532 17.3637 5.4096 18.2475 5.22674C19.0627 5.05151 19.2532 5.21151 19.2456 6.03436C19.238 6.94865 18.9561 7.80198 18.4837 8.54865C18.0951 9.16579 18.1713 9.58484 18.5904 10.1486C19.5351 11.4286 20.0837 12.8763 20.0151 14.5144H20.0075Z" fill="#786F6C"/>
<path d="M5.5007 9.05922C5.15022 8.87636 4.99784 8.56398 5.04356 8.19065C5.21118 7.00207 5.29499 5.79826 5.79022 4.67826C5.85118 4.54112 5.88927 4.38874 6.02641 4.30493C6.22451 4.32017 6.27022 4.50303 6.36927 4.62493C6.82641 5.2116 7.2226 5.83636 7.39784 6.58303C7.45879 6.83446 7.41308 7.02493 7.20737 7.16207C7.03975 7.27636 6.75022 7.18493 6.57499 7.00969C6.49118 6.92588 6.4607 6.71255 6.31594 6.7735C6.18641 6.82684 6.27784 7.00969 6.28546 7.1316C6.28546 7.37541 6.3007 7.6116 6.2626 7.85541C6.22451 8.07636 6.13308 8.23636 5.87403 8.22874C5.67594 8.22874 5.65308 8.32779 5.71403 8.48779C5.75213 8.57922 5.80546 8.66303 5.81308 8.76969C5.82832 8.98303 5.73689 9.08207 5.50832 9.06684L5.5007 9.05922Z" fill="#C3AA9D"/>
<path d="M5.50098 9.05925C5.76002 8.97544 5.80574 8.86877 5.69145 8.59448C5.53907 8.21353 5.53145 8.20591 5.92764 8.15258C6.11812 8.1221 6.16383 7.99258 6.17907 7.83258C6.21717 7.50496 6.17907 7.16972 6.17145 6.8421C6.17145 6.73544 6.13336 6.59067 6.2705 6.5602C6.38479 6.52972 6.42288 6.66686 6.47621 6.75067C6.52193 6.81925 6.56764 6.88782 6.62098 6.94877C6.76574 7.11639 6.94098 7.20782 7.15431 7.11639C7.37526 7.01734 7.36764 6.81925 7.32955 6.62877C7.16193 5.85925 6.73526 5.23448 6.27812 4.62496C6.20193 4.51829 6.1105 4.42686 6.02669 4.3202C6.1105 4.28972 6.18669 4.20591 6.28574 4.29734C6.25526 4.47258 6.40764 4.54877 6.48383 4.66306C6.89526 5.22686 7.2686 5.80591 7.44383 6.49163C7.54288 6.87258 7.46669 7.12401 7.24574 7.23829C7.00955 7.3602 6.72764 7.26877 6.47621 6.99448C6.44574 6.95639 6.41526 6.92591 6.34669 6.8421C6.34669 7.18496 6.34669 7.47448 6.34669 7.75639C6.33907 8.1221 6.24764 8.23639 5.88955 8.29734C5.67621 8.33544 5.78288 8.43448 5.81336 8.53353C5.9505 8.91448 5.92002 9.02877 5.6305 9.21163L5.5086 9.0821L5.50098 9.05925Z" fill="#1B100E"/>
<path d="M9.73696 17.5314C10.0341 17.5848 10.3312 17.6457 10.6284 17.6838C12.0303 17.8971 12.9827 17.4476 13.7141 16.2514C14.0722 15.6648 14.3389 15.0324 14.5903 14.4C14.6284 14.3162 14.636 14.1714 14.7655 14.1867C14.9027 14.2019 14.9103 14.3467 14.9179 14.4457C14.9789 14.8724 14.956 15.299 14.8493 15.7029C14.7655 16.0152 14.8722 16.0533 15.1389 16.0229C15.4512 15.9924 15.7636 16.0457 16.0531 16.1676C16.5789 16.3962 16.7998 16.8457 16.6398 17.4019C16.4798 17.9505 16.137 18.3543 15.657 18.6514C15.5351 18.7276 15.4131 18.7886 15.2836 18.8419C14.6284 19.139 13.9351 19.36 13.2646 19.5809C11.8246 20.0533 10.4912 19.4971 9.74458 17.8971C9.68362 17.76 9.63791 17.6381 9.45505 17.7143C9.32553 17.7448 9.36362 17.6457 9.36362 17.5924C9.36362 17.5314 9.3941 17.5009 9.45505 17.5009C9.5541 17.5009 9.65315 17.4705 9.7522 17.5238L9.73696 17.5314Z" fill="#180A0A"/>
<path d="M14.2167 12.8152C13.4015 12.8152 12.6472 12.2971 12.3957 11.6724C12.35 11.5581 12.3348 11.4667 12.4719 11.3981C12.8605 11.2076 13.2186 10.9562 13.6224 10.8038C14.2395 10.5828 14.811 10.6209 15.2986 11.1086C15.5272 11.3371 15.7557 11.5581 15.9919 11.779C16.0986 11.8857 16.1215 11.9695 15.9919 12.0686C15.4281 12.4952 14.811 12.8 14.2243 12.8076L14.2167 12.8152Z" fill="#403236"/>
<path d="M10.1028 16.5639C9.75233 16.8458 9.64566 16.8839 8.76185 17.0515C8.81519 17.242 9.0209 17.2877 9.19614 17.4858C8.91423 17.463 8.77709 17.3258 8.6628 17.1811C8.55614 17.0439 8.43423 16.9753 8.27423 16.922C7.64185 16.7163 7.03233 15.7639 7.10852 15.1011C7.16947 14.5906 7.4209 14.202 7.92376 14.042C8.77709 13.7677 9.6228 13.8287 10.4076 14.263C11.0476 14.6211 11.1771 15.1772 10.8342 15.7334C10.7657 15.7334 10.7123 15.703 10.6819 15.6496C10.6819 15.6192 10.6666 15.5887 10.6819 15.5582C10.8266 14.9411 10.6514 14.5449 10.0571 14.3315C9.42471 14.0953 8.76947 14.042 8.10661 14.2096C7.94661 14.2477 7.80947 14.3392 7.68757 14.4458C7.39804 14.7049 7.39804 14.8268 7.68757 15.0858C7.84757 15.2306 7.99233 15.383 8.06852 15.5811C8.11423 15.703 8.15233 15.8401 8.04566 15.9468C7.94661 16.0382 7.83995 15.962 7.73328 15.9239C7.68757 15.9087 7.64185 15.8782 7.52757 15.8934C7.71804 16.183 7.90852 16.4268 8.2209 16.6249C8.25899 16.3734 8.15233 16.1677 8.19042 15.962C8.2209 15.7944 8.19042 15.5125 8.39614 15.5201C8.63233 15.5353 8.47233 15.7944 8.49518 15.9468C8.5028 16.0077 8.49518 16.0687 8.49518 16.1296C8.49518 16.7468 8.60185 16.8306 9.21899 16.7392C9.5009 16.6934 9.70661 16.5182 9.95804 16.4039C10.0571 16.4039 10.0952 16.4649 10.1028 16.5487V16.5639Z" fill="#0F0909"/>
<path d="M8.03029 10.2172C8.46458 10.1867 8.79219 10.4153 9.0741 10.72C9.61505 11.2991 9.69886 11.101 9.02839 11.7029C8.72362 11.9848 8.38077 12.1753 7.94648 12.1448C7.28362 12.1067 6.93315 11.8172 6.77315 11.1772C6.71981 10.9639 6.60553 10.72 6.65886 10.5372C6.73505 10.2858 7.03981 10.4458 7.23791 10.3772C7.48934 10.2934 7.74839 10.1943 8.03791 10.2096L8.03029 10.2172Z" fill="#403336"/>
<path d="M10.6972 15.6572C10.7582 15.6572 10.8039 15.6877 10.8267 15.741C10.6667 16.0915 10.4229 16.3658 10.0953 16.5715L9.95818 16.4496C9.79056 16.5334 9.69151 16.4039 9.60008 16.3125C9.43246 16.1448 9.26484 16.0534 9.01342 16.1068C8.79246 16.1601 8.70865 16.0229 8.77723 15.802C8.86865 15.4896 9.1277 15.2991 9.4477 15.4058C9.85913 15.5429 10.2706 15.6191 10.6972 15.6572Z" fill="#040303"/>
<path d="M9.7371 17.5314C9.66852 17.6381 9.33329 17.3486 9.44757 17.7219C8.76948 17.9962 8.18281 17.7829 7.66471 17.3486C7.23043 16.9905 7.00186 16.4952 6.87233 15.9543C6.8571 15.901 6.82662 15.84 6.91805 15.7791C7.0171 15.8248 7.00186 15.9391 7.03233 16.0229C7.30662 16.8686 7.76376 17.5162 8.71614 17.6762C8.85329 17.6991 8.99805 17.6991 9.13519 17.6686C9.18091 17.661 9.26472 17.6305 9.26472 17.6152C9.21138 17.28 9.44757 17.5086 9.539 17.4781C9.59233 17.4629 9.66852 17.501 9.7371 17.5162V17.5314Z" fill="#26201B"/>
<path d="M11.794 7.4134C11.7711 8.03816 11.6797 8.64007 11.1997 9.09721C10.8111 9.47054 10.5826 9.42483 10.3692 8.93721C9.98065 8.0534 10.3235 6.8953 11.1083 6.39245C11.413 6.20197 11.5502 6.24769 11.6797 6.58292C11.7787 6.84959 11.8092 7.13149 11.8016 7.4134H11.794Z" fill="#F4E9E0"/>
<path d="M18.979 6.04183C18.9104 6.68183 18.7656 7.37516 18.499 8.04564C18.3999 8.28183 18.2475 8.47992 18.019 8.60945C17.5771 8.85326 17.1656 8.64754 17.1733 8.1523C17.1733 7.81706 17.059 7.76373 16.7694 7.80945C16.6323 7.8323 16.4875 7.80945 16.3504 7.79421C15.9923 7.74087 15.6875 7.47421 15.6266 7.15421C15.558 6.84945 15.718 6.49897 16.0152 6.29326C16.3123 6.08754 16.6399 5.96564 16.9828 5.88183C17.4933 5.75992 18.0037 5.64564 18.5142 5.53897C18.9028 5.46278 19.0094 5.55421 18.9942 6.03421L18.979 6.04183Z" fill="#19100D"/>
<path d="M11.1616 17.8743C11.4588 17.8362 11.7026 17.821 11.9388 17.7829C12.5635 17.6686 13.074 17.3638 13.4473 16.861C13.6911 16.5257 14.0188 16.3657 14.3997 16.2743C14.9254 16.1448 15.4511 16.0762 15.9692 16.2895C16.4569 16.4876 16.655 16.8762 16.5102 17.3791C16.373 17.8591 16.0835 18.2324 15.6721 18.4838C14.8645 18.9943 13.973 19.2076 13.0207 19.0934C12.2283 18.9943 11.6797 18.5067 11.1692 17.8819L11.1616 17.8743Z" fill="#AA6468"/>
<path d="M13.592 19.36C12.6015 19.7334 11.672 19.7029 10.8339 19.1086C10.4072 18.8038 10.0872 18.3543 9.87391 17.8591C9.85105 17.8057 9.79772 17.7524 9.86629 17.6991C9.91201 17.661 9.95772 17.6838 10.0034 17.6991C10.2625 17.7905 10.5292 17.8362 10.7958 17.8362C10.933 17.8362 11.0091 17.8895 11.093 17.9962C11.4587 18.4915 11.9082 18.8724 12.4872 19.101C12.7158 19.1924 12.9444 19.2381 13.1882 19.2305C13.3101 19.2305 13.4472 19.2 13.5844 19.36H13.592Z" fill="#403236"/>
<path d="M14.7577 14.4383C14.8567 14.9564 14.7577 15.4516 14.6586 15.9392C14.6434 16.0154 14.0415 16.2669 13.9729 16.2364C13.9272 16.2211 13.912 16.183 13.9348 16.1449C14.2624 15.604 14.4758 15.0021 14.7577 14.4307V14.4383Z" fill="#3D3236"/>
<path d="M14.1407 12.6324C13.6226 12.6324 13.1807 12.221 13.1807 11.7486C13.1807 11.2534 13.653 10.8877 14.2397 10.8648C14.7426 10.8496 15.1845 11.3753 15.1692 11.7867C15.1616 12.2515 14.6892 12.6324 14.133 12.6324H14.1407Z" fill="#09111A"/>
<path d="M10.6968 15.6572C10.3615 15.7562 10.0415 15.7639 9.72154 15.581C9.31773 15.3448 8.92916 15.4972 8.84535 15.8858C8.82249 15.9924 8.81487 16.1143 8.98249 16.0229C9.25678 15.8705 9.45487 15.9848 9.63773 16.1981C9.72916 16.3048 9.81297 16.4191 9.96535 16.4419C9.60726 16.8686 9.11964 16.8915 8.61678 16.8534C8.49487 16.8458 8.47202 16.7391 8.44916 16.6324C8.35773 16.2819 8.39583 15.9238 8.41106 15.5734C8.16726 15.9543 8.33487 16.3581 8.37297 16.7696C8.03011 16.7315 7.86249 16.4648 7.65678 16.2591C7.59583 16.1981 7.54249 16.1143 7.49678 16.0381C7.43583 15.9467 7.32154 15.8477 7.41297 15.7486C7.5044 15.6496 7.61868 15.7715 7.71773 15.8019C7.81678 15.8324 7.90821 15.9924 7.99964 15.901C8.09868 15.8019 8.00725 15.6572 7.95392 15.5353C7.84725 15.3296 7.70249 15.1543 7.5044 15.0553C7.26059 14.941 7.29106 14.7962 7.40535 14.621C7.61106 14.301 7.90059 14.1258 8.28916 14.0572C8.80726 13.9734 9.31011 14.0419 9.81297 14.1258C10.133 14.1791 10.392 14.3619 10.613 14.5829C10.9406 14.9029 10.9558 15.1848 10.7044 15.6343L10.6968 15.6572Z" fill="#403237"/>
<path d="M7.99222 11.9697C7.5046 11.9697 7.03984 11.5735 7.04746 11.1773C7.05507 10.743 7.44365 10.4001 7.91603 10.4001C8.38079 10.4001 8.86079 10.804 8.86841 11.2001C8.87603 11.5887 8.44174 11.9697 7.9846 11.9697H7.99222Z" fill="#1D0C06"/>
<path d="M18.2397 6.95638C18.3692 6.88019 18.392 6.78876 18.3311 6.68971C18.2778 6.59828 18.1863 6.59066 18.0949 6.6059C17.7749 6.67447 17.5692 6.88019 17.432 7.16971C17.3406 7.36019 17.3101 7.604 17.0282 7.64971C16.6701 7.70304 16.3197 7.71828 16.0073 7.50495C15.6416 7.25352 15.6492 6.7659 16.0073 6.46876C16.2282 6.2859 16.4949 6.18685 16.7616 6.09542C17.333 5.90495 17.9349 5.8059 18.5216 5.684C18.8187 5.62304 18.8873 5.684 18.8492 5.99638C18.773 6.63638 18.6435 7.26876 18.4225 7.87066C18.3158 8.16019 18.1558 8.41161 17.8435 8.5259C17.5768 8.62495 17.3863 8.5259 17.3101 8.25161C17.1958 7.86304 17.5463 7.01733 17.9044 6.81923C18.0568 6.73542 18.2244 6.65161 18.2473 6.94876L18.2397 6.95638Z" fill="#C3AA9D"/>
<path d="M13.3714 11.5429C13.6304 10.9563 14.4076 10.8191 14.8342 11.2915C15.0552 11.5353 15.0704 11.8248 14.8723 12.1448C14.7428 12.0458 14.6057 11.962 14.4228 12.0229C14.3466 11.9239 14.339 11.7944 14.2628 11.6953C14.0952 11.5429 13.9809 11.5658 13.9352 11.7487C13.9123 11.8401 13.9352 11.9467 13.8514 12.0229C13.6 11.9467 13.5314 11.6953 13.3638 11.5429H13.3714Z" fill="#64BCD3"/>
<path d="M13.3712 11.543C13.6379 11.5963 13.7293 11.8249 13.8436 12.0306C13.9121 12.0306 13.9502 12.0763 13.9883 12.1296C14.0569 12.2363 14.1331 12.3354 14.0264 12.4573C13.5388 12.4268 13.2417 12.0153 13.3712 11.543Z" fill="#86D4EC"/>
<path d="M14.0264 12.4572C14.0493 12.3277 13.9578 12.2439 13.9121 12.1448C13.9273 12.0762 13.935 12.0077 14.0188 11.9924C14.1483 11.9924 14.2702 12.0381 14.3997 12.0686C14.4988 12.1524 14.6131 12.221 14.6816 12.3353C14.4835 12.4801 14.2626 12.5334 14.0188 12.4648L14.0264 12.4572Z" fill="#63ABBF"/>
<path d="M14.6817 12.3275C14.5217 12.3275 14.4302 12.2361 14.3845 12.0914C14.354 12.0304 14.3845 12.0152 14.4455 12.0228C14.5445 11.9999 14.4683 11.8095 14.575 11.8475C14.7045 11.8933 14.8493 11.9695 14.8645 12.1447C14.8264 12.2285 14.7578 12.2895 14.674 12.3275H14.6817Z" fill="#85D0E8"/>
<path d="M9.59981 15.0704C9.11981 15.0247 8.61695 15.0018 8.15981 14.7656C8.06838 14.7199 7.916 14.6894 7.93124 14.5599C7.93886 14.4227 8.09124 14.3999 8.20552 14.3618C8.28171 14.3313 8.3579 14.3085 8.43409 14.2856C9.16552 14.0494 9.44743 14.1332 9.93505 14.7199C9.996 14.7961 10.095 14.8647 10.0493 14.9789C10.0036 15.1008 9.87409 15.0475 9.78267 15.0627C9.73695 15.0627 9.68362 15.0627 9.61505 15.0627L9.59981 15.0704Z" fill="#AFA9AB"/>
<path d="M7.25322 10.9335C7.46656 10.5677 7.90846 10.4458 8.31227 10.6439C8.67799 10.8192 8.78465 11.1087 8.63989 11.4744C8.55608 11.4287 8.46465 11.4439 8.38084 11.4211C8.29703 11.2992 8.22084 11.162 8.06846 11.1087C7.91608 10.9944 7.75608 11.0477 7.59608 11.0858C7.46656 11.0706 7.33703 11.0401 7.24561 10.9258L7.25322 10.9335Z" fill="#B9983B"/>
<path d="M7.25319 10.9333C7.39033 10.918 7.50462 10.979 7.61129 11.0628C7.80938 11.1085 7.80176 11.299 7.87795 11.4285C7.88557 11.558 8.03033 11.7104 7.80176 11.7866C7.337 11.718 7.10843 11.3523 7.26081 10.9333H7.25319Z" fill="#DDBC63"/>
<path d="M7.79424 11.7865C7.92376 11.6646 7.76376 11.5427 7.79424 11.4208C7.79424 11.3522 7.78662 11.2684 7.86281 11.2456C7.94662 11.2227 7.9771 11.3065 8.02281 11.3522C8.08376 11.436 8.19043 11.4589 8.27424 11.5199C8.31995 11.5884 8.33519 11.657 8.34281 11.7332C8.15995 11.8094 7.9771 11.8475 7.78662 11.7865H7.79424Z" fill="#B19447"/>
<path d="M8.35041 11.7408C8.27422 11.7027 8.22089 11.6494 8.28184 11.558C8.28184 11.4742 8.32756 11.4285 8.41137 11.4208C8.47994 11.4056 8.4266 11.2608 8.52565 11.2913C8.60184 11.3142 8.63232 11.398 8.63994 11.4742C8.5866 11.6113 8.47232 11.6799 8.3428 11.7332L8.35041 11.7408Z" fill="#CCB56C"/>
<path d="M14.4456 12.0305L14.3846 12.0991C14.2475 12.1448 14.1332 12.1296 14.0265 12.0305C13.9275 11.9315 13.9275 11.8172 14.0113 11.7181C14.0951 11.6191 14.2094 11.5886 14.3236 11.6724C14.4456 11.7638 14.4836 11.8858 14.4456 12.0381V12.0305Z" fill="#061119"/>
<path d="M14.3314 11.6649C14.1028 11.6802 13.9657 11.7716 14.0342 12.0306L13.9123 12.1525L13.8438 12.0383C13.8438 11.9392 13.8438 11.8402 13.8438 11.7411C13.859 11.6192 13.8895 11.5049 14.0418 11.4897C14.179 11.4821 14.3009 11.4897 14.3237 11.6649H14.3314Z" fill="#4591A1"/>
<path d="M8.41905 11.421L8.28953 11.5582C8.16001 11.5658 8.04572 11.5429 7.96191 11.421C7.96191 11.2839 7.88572 11.1163 8.10667 11.0706C8.31239 11.101 8.44953 11.1848 8.41905 11.421Z" fill="#130806"/>
<path d="M8.10657 11.0705C8.01514 11.1695 7.94657 11.2762 7.9618 11.421C7.90847 11.2762 7.85514 11.3295 7.8018 11.421C7.74085 11.2991 7.67228 11.1848 7.61133 11.0629C7.77895 10.88 7.94657 10.8724 8.10657 11.0629V11.0705Z" fill="#9C7719"/>
</g>
</svg>
