<svg width="32" height="32" viewBox="0 0 32 32" fill="none" xmlns="http://www.w3.org/2000/svg">
<path fill-rule="evenodd" clip-rule="evenodd" d="M16 32C24.8366 32 32 24.8366 32 16C32 7.16344 24.8366 0 16 0C7.16344 0 0 7.16344 0 16C0 24.8366 7.16344 32 16 32ZM25.3741 10.1962C25.3755 10.1942 25.3769 10.1921 25.3783 10.1901L25.3814 10.1931C25.379 10.1941 25.3765 10.1952 25.3741 10.1962ZM23.4492 12.1786C24.202 11.6325 24.8436 10.9717 25.3741 10.1962C24.639 10.5124 23.9034 10.7099 23.1673 10.7889C24.0003 10.2881 24.5636 9.58154 24.8572 8.66929C24.0953 9.12135 23.2816 9.43069 22.416 9.59729C21.6541 8.78764 20.7175 8.38281 19.6061 8.38281C18.5425 8.38281 17.6359 8.75767 16.8861 9.50738C16.1364 10.2571 15.7616 11.1638 15.7616 12.2274C15.7616 12.5128 15.7931 12.8064 15.856 13.1081C14.2855 13.0289 12.8115 12.6342 11.4339 11.9241C10.0564 11.2141 8.88766 10.2678 7.92766 9.08529C7.5782 9.67957 7.40347 10.3262 7.40347 11.0251C7.40449 11.6844 7.55941 12.2954 7.86824 12.8582C8.17706 13.421 8.59357 13.8772 9.11776 14.2266C8.49808 14.2033 7.91852 14.0407 7.37909 13.739V13.7862C7.37909 14.7148 7.67065 15.53 8.25376 16.232C8.83687 16.9339 9.57287 17.3763 10.4618 17.5592C10.1286 17.6466 9.79128 17.6902 9.44995 17.6902C9.22747 17.6902 8.98519 17.6704 8.72309 17.6308C8.96893 18.4009 9.4215 19.0337 10.0808 19.5295C10.7401 20.0252 11.4863 20.2812 12.3193 20.2975C10.9225 21.3926 9.33109 21.9402 7.54519 21.9402C7.20385 21.9402 6.89452 21.9244 6.61719 21.8929C8.40309 23.0439 10.3713 23.6194 12.5219 23.6194C13.8863 23.6194 15.1678 23.403 16.3665 22.9702C17.5653 22.5375 18.5893 21.9579 19.4385 21.2316C20.2878 20.5052 21.0197 19.6697 21.6343 18.7249C22.2489 17.7802 22.7071 16.7942 23.0088 15.7672C23.3105 14.7402 23.4614 13.7106 23.4614 12.6784C23.4614 12.456 23.4573 12.2894 23.4492 12.1786Z" fill="#1DA1F3"/>
</svg>
