<svg width="32" height="32" viewBox="0 0 32 32" fill="none" xmlns="http://www.w3.org/2000/svg">
<path d="M21.232 23.3392L23.8576 10.9648C23.9648 10.4416 23.9024 10.0656 23.6704 9.84C23.4384 9.6144 23.1312 9.5728 22.7504 9.7152L7.3216 15.6608C6.976 15.792 6.7408 15.9408 6.616 16.1072C6.4912 16.2736 6.4768 16.432 6.5712 16.5808C6.6672 16.7296 6.8576 16.8464 7.1424 16.9296L11.0896 18.1616L20.2496 12.3936C20.4992 12.2272 20.6896 12.192 20.8208 12.2864C20.904 12.3456 20.88 12.4352 20.7488 12.5536L13.3376 19.2496L13.0512 23.3216C13.3248 23.3216 13.5936 23.1904 13.8544 22.928L15.7824 21.0704L19.7824 24.0176C20.5472 24.4464 21.0304 24.2208 21.232 23.3392ZM32 16C32 18.1664 31.5776 20.2384 30.7328 22.2144C29.888 24.1904 28.7504 25.8928 27.3216 27.3216C25.8928 28.7504 24.1904 29.8864 22.2144 30.7328C20.2384 31.5776 18.1664 32 16 32C13.8336 32 11.7616 31.5776 9.7856 30.7328C7.8096 29.888 6.1072 28.7504 4.6784 27.3216C3.2496 25.8928 2.1136 24.1904 1.2672 22.2144C0.4224 20.2384 0 18.1664 0 16C0 13.8336 0.4224 11.7616 1.2672 9.7856C2.112 7.8096 3.2496 6.1072 4.6784 4.6784C6.1072 3.2496 7.8096 2.1136 9.7856 1.2672C11.7616 0.4208 13.8336 0 16 0C18.1664 0 20.2384 0.4224 22.2144 1.2672C24.1904 2.112 25.8928 3.2496 27.3216 4.6784C28.7504 6.1072 29.8864 7.8096 30.7328 9.7856C31.5792 11.7616 32 13.8336 32 16Z" fill="url(#paint0_linear_7021_28199)"/>
<defs>
<linearGradient id="paint0_linear_7021_28199" x1="20.5" y1="-7.89296e-07" x2="8" y2="32" gradientUnits="userSpaceOnUse">
<stop stop-color="#67BAF4"/>
<stop offset="1" stop-color="#4393D1"/>
</linearGradient>
</defs>
</svg>
