<?xml version="1.0" encoding="utf-8"?>
<!-- Generator: Adobe Illustrator 25.0.0, SVG Export Plug-In . SVG Version: 6.00 Build 0)  -->
<svg version="1.1" id="图层_1" xmlns="http://www.w3.org/2000/svg" xmlns:xlink="http://www.w3.org/1999/xlink" x="0px" y="0px"
	 viewBox="0 0 293.23 65.16" style="enable-background:new 0 0 293.23 65.16;" xml:space="preserve">
<style type="text/css">
	.st0{fill:#FFFFFF;}
	.st1{fill:url(#SVGID_1_);}
	.st2{fill:none;}
	.st3{fill:url(#SVGID_2_);}
	.st4{fill:url(#SVGID_3_);}
	.st5{fill:url(#SVGID_4_);}
	.st6{fill:url(#SVGID_5_);}
</style>
<g>
	<g>
		<path class="st0" d="M120.91,44.53c-0.8,8.66-8.36,14.66-17.1,14.66H82.36l4.67-50.55h19.93c8.52,0,14.85,5.78,14.07,14.23
			c-0.4,4.33-2.52,7.73-5.7,10.11C119.16,35.29,121.4,39.26,120.91,44.53z M96.14,17.96l-1.03,11.12h9.97
			c3.11,0,5.64-2.38,5.93-5.56c0.29-3.18-1.73-5.56-4.9-5.56L96.14,17.96L96.14,17.96z M111.08,43.88c0.31-3.39-1.91-5.92-5.3-5.92
			H94.29l-1.1,11.91h11.48C108.07,49.88,110.76,47.35,111.08,43.88z"/>
		<path class="st0" d="M161.84,18.17h-13.65l-3.79,41.02h-9.97l3.8-41.02h-13.58l0.88-9.53h37.19L161.84,18.17z"/>
		<path class="st0" d="M160.74,33.92c1.37-14.8,13.41-26.29,28.72-26.29c9.25,0,16.97,4.7,20.63,11.91l-9.06,4.98
			c-2.04-4.48-6.7-7.22-12.48-7.22c-9.89,0-17.03,6.86-17.93,16.61c-0.9,9.68,4.97,16.54,14.86,16.54c5.78,0,11.01-2.74,13.8-7.15
			l8.13,4.98c-4.93,7.22-13.53,11.91-22.84,11.91C169.29,60.2,159.38,48.65,160.74,33.92z"/>
		<path class="st0" d="M244.71,49.66l-0.88,9.53h-31.27l4.68-50.55h30.91l-0.88,9.53h-20.94l-1,10.76h19.14l-0.87,9.38h-19.14
			l-1.05,11.34L244.71,49.66L244.71,49.66z"/>
		<path class="st0" d="M266.68,47.09l-8.33,12.09h-11.27l14.52-21.09L266.68,47.09z M263.95,8.83l25.37,50.36h-11.34L253.03,8.83
			H263.95z"/>
		<path class="st0" d="M271.07,43.13l-12.03-25.1l9.43-0.07l2.95,5.85l9.75-14.98h12.05L271.07,43.13z"/>
	</g>
	<g>
		<linearGradient id="SVGID_1_" gradientUnits="userSpaceOnUse" x1="57.9531" y1="54.2132" x2="4.7551" y2="-11.5019">
			<stop  offset="0.0658" style="stop-color:#00FFE0"/>
			<stop  offset="0.9997" style="stop-color:#0862FB"/>
		</linearGradient>
		<path class="st1" d="M30.05,0L30.05,0c-0.89,0-1.63,0.68-1.71,1.56l-0.29,3.2l-0.03,0.35l-0.78,8.6l0,0.01l-0.32,3.46
			c2.25-1.06,4.76-1.65,7.41-1.65c0.79,0,1.56,0.06,2.32,0.16c2.58,0.3,4.94,1.14,6.98,2.43c0.88,0.56,1.7,1.19,2.45,1.9
			c1.82,1.59,3.42,3.42,4.74,5.46c1.17,1.8,2.11,3.74,2.81,5.81c0.87,2.6,1.36,5.38,1.36,8.27c0,12.27-8.54,22.54-19.99,25.22
			c15.65-2.38,27.64-15.89,27.64-32.21v0C62.63,14.59,48.04,0,30.05,0z"/>
		<path class="st2" d="M45.36,45.69c-0.64,0.59-1.28,1.17-1.94,1.74C44.1,46.89,44.75,46.31,45.36,45.69z"/>
		<linearGradient id="SVGID_2_" gradientUnits="userSpaceOnUse" x1="6.1225" y1="70.9154" x2="61.6674" y2="27.3661">
			<stop  offset="0.0658" style="stop-color:#00FFE0"/>
			<stop  offset="0.9997" style="stop-color:#0862FB"/>
		</linearGradient>
		<path class="st3" d="M54.55,34.91c-0.23-1.24-0.54-2.44-0.93-3.61c-0.7-2.07-1.64-4.01-2.81-5.81c-1.32-2.03-2.92-3.87-4.74-5.46
			c2.63,2.48,4.4,5.83,4.93,9.64c0.15,1.07,0.2,2.18,0.14,3.31c-0.01,0.15-0.01,0.3-0.02,0.46c-0.16,2.13-0.7,4.18-1.54,6.08
			c-1.01,2.29-2.46,4.38-4.23,6.16c-0.61,0.62-1.26,1.2-1.94,1.74c-10.74,9.2-24.7,14.75-39.95,14.75c-1.14,0-2.28-0.03-3.41-0.1
			c0.31,1.75,1.83,3.08,3.66,3.08h21.32h5.01c1.68,0,3.33-0.13,4.94-0.37c11.46-2.68,19.99-12.95,19.99-25.22
			C54.98,37.97,54.83,36.42,54.55,34.91z"/>
		<linearGradient id="SVGID_3_" gradientUnits="userSpaceOnUse" x1="-4.7891" y1="54.8008" x2="38.3722" y2="54.8008">
			<stop  offset="0.0658" style="stop-color:#00FFE0"/>
			<stop  offset="0.9997" style="stop-color:#0862FB"/>
		</linearGradient>
		<path class="st4" d="M30.85,51.93h-6.82H13.65c-0.18,0-0.36-0.04-0.51-0.1c-0.06-0.02-0.12-0.06-0.18-0.09
			c-4.38-0.32-8.44-1.77-11.89-4.07L0,61.44c0,0.22,0.02,0.43,0.06,0.64c1.13,0.06,2.27,0.1,3.41,0.1c15.25,0,29.2-5.56,39.95-14.75
			C39.87,50.23,35.45,51.93,30.85,51.93z"/>
		<linearGradient id="SVGID_4_" gradientUnits="userSpaceOnUse" x1="11.365" y1="-1.741344e-05" x2="11.365" y2="51.7401">
			<stop  offset="0.0658" style="stop-color:#00FFE0"/>
			<stop  offset="0.9997" style="stop-color:#0862FB"/>
		</linearGradient>
		<path class="st5" d="M16.83,0h-0.44h-8.2C6.13,0,4.47,1.67,4.47,3.72l-1.05,13.6l-0.63,8.15l-0.52,6.75l-0.59,7.6l-0.61,7.86
			c3.45,2.3,7.51,3.76,11.89,4.07c-0.15-0.08-0.3-0.19-0.41-0.32c-0.23-0.28-0.35-0.64-0.31-1.04l1.59-17.47l1.39-15.23l0.51-5.55
			L16.1,8l0.15-1.6l0.1-1.06l0.01-0.07h0.04c0-2.91,2.36-5.27,5.27-5.27H16.83z"/>
		<linearGradient id="SVGID_5_" gradientUnits="userSpaceOnUse" x1="29.9644" y1="23.9735" x2="29.9644" y2="40.2145">
			<stop  offset="0.0658" style="stop-color:#00FFE0"/>
			<stop  offset="0.9997" style="stop-color:#0862FB"/>
		</linearGradient>
		<path class="st6" d="M30.68,26.39c-0.28-0.09-0.58-0.14-0.87-0.16c-1.34-0.09-2.61,0.39-3.76,0.93l-1.17,12.82
			c0,0.04,0,0.09,0.01,0.13c0.33,0.13,0.68,0.24,1.03,0.32c0.54,0.12,1.1,0.2,1.68,0.2c0.6,0,1.17-0.08,1.73-0.21
			c1.02-0.24,1.96-0.7,2.77-1.31c1.79-1.36,2.95-3.51,2.95-5.93C35.05,30.16,33.38,27.24,30.68,26.39z"/>
	</g>
</g>
</svg>
