<svg width="24" height="24" viewBox="0 0 24 24" fill="none" xmlns="http://www.w3.org/2000/svg">
<path d="M24 12C24 18.624 18.624 24 12 24C5.376 24 0 18.624 0 12C0 5.376 5.376 0 12 0C18.624 0 24 5.376 24 12Z" fill="#F7931A"/>
<path d="M14.9159 15.504C14.8199 15.84 14.5919 16.116 14.2799 16.284C13.9679 16.452 13.6079 16.488 13.2719 16.392L9.88789 15.384L10.6439 12.852L14.0279 13.86C14.7239 14.076 15.1199 14.808 14.9159 15.504ZM16.0559 10.332C16.2239 10.644 16.2599 11.004 16.1639 11.34C15.9599 12.036 15.2159 12.432 14.5199 12.228L11.1359 11.22L11.8919 8.68803L15.2759 9.69603C15.6119 9.79203 15.8879 10.02 16.0559 10.332ZM17.5679 9.50403C17.1839 8.79603 16.5359 8.26803 15.7679 8.04003L15.3239 7.90803L15.9479 5.80803L14.3399 5.32803L13.7159 7.42803L12.3479 7.02003L12.9599 4.92003L12.5759 4.80003L11.0159 4.33203L10.4159 6.36003L8.51989 5.80803L7.97989 7.60803L9.87589 8.17203L7.91989 14.724L6.02389 14.16L5.48389 15.96L7.37989 16.524L6.87589 18.228L7.25989 18.348L8.81989 18.816L9.34789 17.028L10.7279 17.436L10.1999 19.212L11.7959 19.692L12.3239 17.904L12.7799 18.036C13.0679 18.12 13.3559 18.168 13.6559 18.168C14.1479 18.168 14.6519 18.048 15.0959 17.796C15.8039 17.412 16.3319 16.764 16.5599 15.996C16.7999 15.18 16.6799 14.34 16.2959 13.644C17.0039 13.272 17.5559 12.636 17.8079 11.82C18.0359 11.04 17.9519 10.224 17.5679 9.50403Z" fill="white"/>
</svg>
