<svg width="32" height="32" viewBox="0 0 32 32" fill="none" xmlns="http://www.w3.org/2000/svg">
<path fill-rule="evenodd" clip-rule="evenodd" d="M16 32C24.8366 32 32 24.8366 32 16C32 7.16344 24.8366 0 16 0C7.16344 0 0 7.16344 0 16C0 24.8366 7.16344 32 16 32ZM5.33909 15.4036C5.22441 19.2714 8.25823 22.0029 11.6257 22.0029C15.0557 22.0134 17.9122 19.1985 17.9227 15.7372C17.9227 12.0049 14.9827 9.33594 11.6465 9.33594C8.22695 9.33594 5.44334 12.0466 5.33909 15.4036ZM23.7173 20.1912C24.5722 18.7316 24.812 17.1261 24.8224 15.7186C24.7494 13.8629 24.4679 12.6118 23.9258 11.5276C23.6026 10.8916 23.2065 10.3182 22.5705 9.95334C21.9658 9.6093 21.3716 9.6093 20.7669 9.95334C20.0475 10.3704 19.6097 11.0167 19.2969 11.757C18.2439 14.2278 18.2752 16.7403 19.1509 19.2425C19.4116 19.9827 19.8077 20.6395 20.4228 21.1503C21.1422 21.7446 21.9658 21.7967 22.7269 21.2859C23.1439 21.0044 23.4671 20.6186 23.7173 20.1912ZM27.6413 15.9384C27.6309 17.0956 27.5475 18.503 27.2139 19.8792C27.1409 20.2024 27.0366 20.5152 26.849 20.7862C26.6405 21.0886 26.4215 21.0886 26.2234 20.7758C25.9211 20.3275 25.8168 19.7958 25.7334 19.285C25.3268 16.8037 25.3164 14.3224 25.7751 11.8516C25.8585 11.4241 25.9628 11.0071 26.1817 10.6214C26.4111 10.2252 26.6926 10.2148 26.9115 10.6214C27.2219 11.2007 27.3269 11.8416 27.4304 12.4727L27.4328 12.4875C27.5787 13.5614 27.6309 14.6248 27.6413 15.9384Z" fill="#F9F9F9"/>
</svg>
