<svg width="32" height="32" viewBox="0 0 32 32" fill="none" xmlns="http://www.w3.org/2000/svg">
<path fill-rule="evenodd" clip-rule="evenodd" d="M15.6333 21.9991C18.7445 21.9991 21.2667 19.477 21.2667 16.3658C21.2667 13.2546 18.7445 10.7324 15.6333 10.7324C12.5221 10.7324 10 13.2546 10 16.3658C10 19.477 12.5221 21.9991 15.6333 21.9991ZM15.6333 20.2658C17.7872 20.2658 19.5333 18.5197 19.5333 16.3658C19.5333 14.2118 17.7872 12.4658 15.6333 12.4658C13.4794 12.4658 11.7333 14.2118 11.7333 16.3658C11.7333 18.5197 13.4794 20.2658 15.6333 20.2658Z" fill="#DF3380"/>
<circle cx="21.5" cy="10.5" r="1.5" fill="#DF3380"/>
<path fill-rule="evenodd" clip-rule="evenodd" d="M16 32C24.8366 32 32 24.8366 32 16C32 7.16344 24.8366 0 16 0C7.16344 0 0 7.16344 0 16C0 24.8366 7.16344 32 16 32ZM12 6C8.68629 6 6 8.68629 6 12V20C6 23.3137 8.68629 26 12 26H20C23.3137 26 26 23.3137 26 20V12C26 8.68629 23.3137 6 20 6H12Z" fill="#DF3380"/>
</svg>
